<?xml version="1.0" encoding="UTF-8" standalone="no"?>
<!DOCTYPE svg PUBLIC "-//W3C//DTD SVG 1.1//EN" "http://www.w3.org/Graphics/SVG/1.1/DTD/svg11.dtd">
<svg width="100%" height="100%" viewBox="0 0 1451 268" version="1.1" xmlns="http://www.w3.org/2000/svg" xmlns:xlink="http://www.w3.org/1999/xlink" xml:space="preserve" xmlns:serif="http://www.serif.com/" style="fill-rule:evenodd;clip-rule:evenodd;stroke-linejoin:round;stroke-miterlimit:2;">
    <g transform="matrix(1,0,0,1,-1370.93,-13747.2)">
        <g transform="matrix(8.33333,0,0,8.33333,0,0)">
            <g transform="matrix(-1,0,0,1,184.539,1660.84)">
                <path d="M0,-7.269C-2.007,-7.269 -3.634,-5.642 -3.634,-3.635C-3.634,-1.627 -2.007,0 0,0C2.007,0 3.634,-1.627 3.634,-3.635C3.634,-5.642 2.007,-7.269 0,-7.269" style="fill:rgb(28,33,64);fill-rule:nonzero;"/>
            </g>
        </g>
        <g transform="matrix(8.33333,0,0,8.33333,0,0)">
            <g transform="matrix(1,0,0,1,193.601,1677.07)">
                <path d="M0,-20.062L-2.786,-20.062C-2.786,-20.062 -4.071,-15.507 -9.11,-15.507C-14.15,-15.507 -15.434,-20.062 -15.434,-20.062L-18.221,-20.062C-18.221,-20.062 -17.857,-15.143 -12.381,-13.157L-14.005,0L-9.885,0L-9.037,-5.452L-8.238,0L-4.119,0L-5.815,-13.157C-0.363,-15.168 0,-20.062 0,-20.062M-9.062,-10.104C-9.062,-10.104 -10.516,-11.339 -10.516,-12.309C-10.516,-12.89 -9.983,-13.157 -9.619,-13.157C-9.232,-13.157 -9.037,-12.817 -9.037,-12.817C-9.037,-12.817 -8.868,-13.157 -8.456,-13.157C-8.117,-13.157 -7.56,-12.89 -7.56,-12.309C-7.608,-11.339 -9.062,-10.104 -9.062,-10.104" style="fill:rgb(28,33,64);fill-rule:nonzero;"/>
            </g>
        </g>
        <g transform="matrix(8.33333,0,0,8.33333,0,0)">
            <g transform="matrix(1,0,0,1,179.378,1655.07)">
                <path d="M0,-1.915C-0.242,-1.794 -0.703,-1.479 -1.309,-1.479C-2.132,-1.479 -3.077,-2.739 -3.537,-2.933C-3.804,-3.029 -4.313,-3.102 -4.603,-2.836C-4.773,-2.666 -5.016,-2.376 -5.403,-2.23C-5.403,-2.23 -5.379,-2.158 -5.282,-2.109C-5.185,-2.061 -5.04,-2.036 -4.919,-1.939C-4.603,-1.673 -4.555,-0.437 -4.264,-0.074C-4.095,0.144 -3.755,1.187 -2.35,1.187C-0.557,1.187 0.339,-1.891 0.412,-2.036C0.315,-2.036 0.242,-2.036 0,-1.915M-4.168,-2.109C-4.264,-2.109 -4.361,-2.181 -4.361,-2.303C-4.361,-2.399 -4.289,-2.497 -4.168,-2.497C-4.071,-2.497 -3.974,-2.424 -3.974,-2.303C-3.974,-2.181 -4.071,-2.109 -4.168,-2.109" style="fill:rgb(28,33,64);fill-rule:nonzero;"/>
            </g>
        </g>
        <g transform="matrix(8.33333,0,0,8.33333,0,0)">
            <g transform="matrix(1,0,0,1,193.48,1652.04)">
                <path d="M0,1.502L1.357,1.502C1.332,0.945 1.139,0.412 0.8,0C0.484,0.194 0.17,0.339 -0.194,0.46C-0.097,0.775 0,1.139 0,1.502" style="fill:rgb(28,33,64);fill-rule:nonzero;"/>
            </g>
        </g>
        <g transform="matrix(8.33333,0,0,8.33333,0,0)">
            <g transform="matrix(1,0,0,1,192.389,1652.26)">
                <path d="M0,-1.236C0,-1.236 0.484,-0.752 0.8,0C1.139,-0.097 1.454,-0.218 1.745,-0.388C1.309,-0.848 0.703,-1.163 0,-1.236" style="fill:rgb(28,33,64);fill-rule:nonzero;"/>
            </g>
        </g>
        <g transform="matrix(8.33333,0,0,8.33333,0,0)">
            <g transform="matrix(1,0,0,1,192.316,1652.4)">
                <path d="M0,-1.211L0,0C0.194,0 0.412,-0.024 0.63,-0.072C0.436,-0.629 0.121,-1.017 0,-1.211" style="fill:rgb(28,33,64);fill-rule:nonzero;"/>
            </g>
        </g>
        <g transform="matrix(8.33333,0,0,8.33333,0,0)">
            <g transform="matrix(1,0,0,1,192.316,1652.55)">
                <path d="M0,0.993L0.896,0.993C0.896,0.654 0.824,0.314 0.727,0C0.484,0.048 0.242,0.072 0,0.097L0,0.993Z" style="fill:rgb(28,33,64);fill-rule:nonzero;"/>
            </g>
        </g>
        <g transform="matrix(8.33333,0,0,8.33333,0,0)">
            <g transform="matrix(1,0,0,1,192.002,1652.26)">
                <path d="M0,-1.236C-0.703,-1.188 -1.309,-0.873 -1.745,-0.388C-1.454,-0.218 -1.139,-0.073 -0.8,0C-0.484,-0.752 0,-1.236 0,-1.236" style="fill:rgb(28,33,64);fill-rule:nonzero;"/>
            </g>
        </g>
        <g transform="matrix(8.33333,0,0,8.33333,0,0)">
            <g transform="matrix(1,0,0,1,190.887,1652.01)">
                <path d="M0,1.527C0.024,1.164 0.097,0.8 0.218,0.461C-0.145,0.364 -0.484,0.195 -0.775,0C-1.114,0.437 -1.309,0.945 -1.332,1.503L0,1.503L0,1.527Z" style="fill:rgb(28,33,64);fill-rule:nonzero;"/>
            </g>
        </g>
        <g transform="matrix(8.33333,0,0,8.33333,0,0)">
            <g transform="matrix(1,0,0,1,191.178,1652.55)">
                <path d="M0,0.993L0.896,0.993L0.896,0.097C0.678,0.097 0.412,0.072 0.17,0C0.073,0.314 0,0.654 0,0.993" style="fill:rgb(28,33,64);fill-rule:nonzero;"/>
            </g>
        </g>
        <g transform="matrix(8.33333,0,0,8.33333,0,0)">
            <g transform="matrix(1,0,0,1,192.074,1652.4)">
                <path d="M0,-1.211C-0.121,-1.017 -0.436,-0.654 -0.63,-0.072C-0.412,-0.024 -0.194,0 0,0L0,-1.211Z" style="fill:rgb(28,33,64);fill-rule:nonzero;"/>
            </g>
        </g>
        <g transform="matrix(8.33333,0,0,8.33333,0,0)">
            <g transform="matrix(1,0,0,1,192.002,1655.07)">
                <path d="M0,1.236C0,1.236 -0.484,0.752 -0.8,0C-1.139,0.097 -1.454,0.218 -1.745,0.388C-1.309,0.873 -0.703,1.188 0,1.236" style="fill:rgb(28,33,64);fill-rule:nonzero;"/>
            </g>
        </g>
        <g transform="matrix(8.33333,0,0,8.33333,0,0)">
            <g transform="matrix(-1,0,0,1,189.724,1655.31)">
                <path d="M-1.163,-1.502L0.194,-1.502C0.169,-0.945 -0.024,-0.412 -0.363,0C-0.679,-0.193 -0.993,-0.339 -1.357,-0.46C-1.26,-0.775 -1.187,-1.138 -1.163,-1.502" style="fill:rgb(28,33,64);fill-rule:nonzero;"/>
            </g>
        </g>
        <g transform="matrix(8.33333,0,0,8.33333,0,0)">
            <g transform="matrix(-1,0,0,1,191.178,1654.8)">
                <path d="M-0.896,-0.993L0,-0.993C0,-0.654 -0.072,-0.314 -0.169,0C-0.412,-0.048 -0.654,-0.072 -0.896,-0.097L-0.896,-0.993Z" style="fill:rgb(28,33,64);fill-rule:nonzero;"/>
            </g>
        </g>
        <g transform="matrix(8.33333,0,0,8.33333,0,0)">
            <g transform="matrix(1,0,0,1,192.074,1654.92)">
                <path d="M0,1.211L0,0C-0.194,0 -0.436,0.024 -0.63,0.072C-0.436,0.654 -0.145,1.017 0,1.211" style="fill:rgb(28,33,64);fill-rule:nonzero;"/>
            </g>
        </g>
        <g transform="matrix(8.33333,0,0,8.33333,0,0)">
            <g transform="matrix(1,0,0,1,192.316,1654.92)">
                <path d="M0,1.211C0.121,1.017 0.436,0.654 0.63,0.072C0.412,0.024 0.194,0 0,0L0,1.211Z" style="fill:rgb(28,33,64);fill-rule:nonzero;"/>
            </g>
        </g>
        <g transform="matrix(8.33333,0,0,8.33333,0,0)">
            <g transform="matrix(-1,0,0,1,192.317,1654.8)">
                <path d="M-0.896,-0.993L0,-0.993L0,-0.097C-0.218,-0.097 -0.484,-0.072 -0.726,0C-0.823,-0.314 -0.872,-0.654 -0.896,-0.993" style="fill:rgb(28,33,64);fill-rule:nonzero;"/>
            </g>
        </g>
        <g transform="matrix(8.33333,0,0,8.33333,0,0)">
            <g transform="matrix(1,0,0,1,192.389,1655.07)">
                <path d="M0,1.236C0.703,1.188 1.309,0.873 1.745,0.388C1.454,0.218 1.139,0.073 0.8,0C0.484,0.752 0,1.236 0,1.236" style="fill:rgb(28,33,64);fill-rule:nonzero;"/>
            </g>
        </g>
        <g transform="matrix(8.33333,0,0,8.33333,0,0)">
            <g transform="matrix(1,0,0,1,193.48,1655.34)">
                <path d="M0,-1.527C-0.024,-1.163 -0.097,-0.8 -0.218,-0.461C0.145,-0.364 0.484,-0.194 0.775,0C1.114,-0.437 1.309,-0.945 1.332,-1.503L0,-1.503L0,-1.527Z" style="fill:rgb(28,33,64);fill-rule:nonzero;"/>
            </g>
        </g>
        <g transform="matrix(8.33333,0,0,8.33333,0,0)">
            <g transform="matrix(1,0,0,1,169.783,1649.66)">
                <path d="M0,4.071C1.26,3.732 3.344,1.769 4.071,0C1.696,0.994 0.533,2.084 0,4.071" style="fill:rgb(28,33,64);fill-rule:nonzero;"/>
            </g>
        </g>
        <g transform="matrix(8.33333,0,0,8.33333,0,0)">
            <g transform="matrix(1,0,0,1,169.153,1653.16)">
                <path d="M0,1.647C0.315,0.944 0.678,-1.648 1.163,-2.593C0.63,-2.399 -0.751,-0.728 -1.09,0.508C-1.43,1.744 -1.139,3.585 -1.187,4.24C-0.727,3.755 0.896,2.81 1.769,1.889C2.593,1.017 3.586,0.024 3.634,-0.824C3.174,-0.51 0.484,1.114 0,1.647" style="fill:rgb(28,33,64);fill-rule:nonzero;"/>
            </g>
        </g>
        <g transform="matrix(8.33333,0,0,8.33333,0,0)">
            <g transform="matrix(1,0,0,1,166.997,1660.91)">
                <path d="M0,2.907C-0.145,2.132 -1.817,-1.575 -2.253,-2.714C-2.689,-2.084 -2.447,0.048 -2.059,1.526C-1.696,2.883 0.097,4.918 0.461,5.621C0.557,3.997 1.332,3.27 1.745,2.059C2.108,0.993 2.617,-0.606 2.205,-1.43C1.817,-1.018 0.242,1.453 0,2.907" style="fill:rgb(28,33,64);fill-rule:nonzero;"/>
            </g>
        </g>
        <g transform="matrix(8.33333,0,0,8.33333,0,0)">
            <g transform="matrix(1,0,0,1,167.554,1657.18)">
                <path d="M0,1.406C0.097,0.631 -0.412,-2.422 0.024,-3.901C-0.678,-3.343 -1.745,-1.065 -1.672,0.922C-1.623,2.181 -1.042,4.677 -0.654,5.307C-0.024,3.272 1.042,2.981 1.648,1.794C2.18,0.727 3.174,-0.532 3.174,-1.453C2.786,-1.09 0.461,0.8 0,1.406" style="fill:rgb(28,33,64);fill-rule:nonzero;"/>
            </g>
        </g>
        <g transform="matrix(8.33333,0,0,8.33333,0,0)">
            <g transform="matrix(1,0,0,1,168.402,1665.71)">
                <path d="M0,3.004C-0.412,2.325 -3.102,-0.533 -3.683,-1.987C-3.901,-1.115 -3.344,1.284 -2.059,2.786C-1.236,3.755 0.63,5.281 1.332,5.548C0.945,4.264 1.405,2.883 1.478,1.574C1.551,0.242 1.284,-1.818 0.703,-2.544C0.17,-1.818 0,2.035 0,3.004" style="fill:rgb(28,33,64);fill-rule:nonzero;"/>
            </g>
        </g>
        <g transform="matrix(8.33333,0,0,8.33333,0,0)">
            <g transform="matrix(1,0,0,1,175.162,1673.02)">
                <path d="M0,3.393C-2.399,2.666 -4.313,2.618 -6.615,1.406C-6.057,2.521 -4.24,4.386 -1.89,4.75C-0.218,5.016 1.89,4.58 2.593,4.193C1.769,3.587 1.26,2.4 0.363,1.164C-0.412,0.098 -1.551,-1.065 -2.35,-1.623C-2.302,0.049 -1.43,1.842 0,3.393" style="fill:rgb(28,33,64);fill-rule:nonzero;"/>
            </g>
        </g>
        <g transform="matrix(8.33333,0,0,8.33333,0,0)">
            <g transform="matrix(1,0,0,1,184.539,1680.58)">
                <path d="M0,-1.866C2.084,-1.405 4.507,1.163 4.507,1.163C4.507,1.163 4.967,1.09 5.064,0.654C4.773,-0.218 1.018,-2.036 1.018,-2.036C2.157,-2.423 5.355,-0.63 7.56,-0.606C9.546,-0.582 11.46,-1.042 12.793,-2.06C11.291,-1.866 9.983,-1.866 7.971,-2.399C6.615,-2.787 5.5,-2.932 4.531,-2.956C2.035,-3.029 1.066,-2.35 0,-2.302C-1.066,-2.375 -2.035,-3.029 -4.531,-2.956C-5.525,-2.932 -6.615,-2.787 -7.996,-2.399C-9.983,-1.866 -11.315,-1.866 -12.817,-2.06C-11.46,-1.042 -9.571,-0.557 -7.584,-0.606C-5.403,-0.63 -2.18,-2.423 -1.042,-2.036C-1.042,-2.036 -4.798,-0.218 -5.088,0.654C-4.991,1.09 -4.531,1.163 -4.531,1.163C-4.531,1.163 -2.108,-1.382 0,-1.866" style="fill:rgb(28,33,64);fill-rule:nonzero;"/>
            </g>
        </g>
        <g transform="matrix(8.33333,0,0,8.33333,0,0)">
            <g transform="matrix(1,0,0,1,171.188,1669.61)">
                <path d="M0,3.78C-0.606,3.296 -3.659,1.478 -5.33,-0.678C-5.33,0.678 -3.973,3.416 -2.253,4.362C-1.139,4.967 0.969,5.452 1.914,5.646C1.575,4.483 1.696,3.416 1.284,2.157C0.872,0.896 -0.145,-1.163 -0.896,-1.866C-1.332,0.582 -0.315,2.98 0,3.78" style="fill:rgb(28,33,64);fill-rule:nonzero;"/>
            </g>
        </g>
        <g transform="matrix(8.33333,0,0,8.33333,0,0)">
            <g transform="matrix(1,0,0,1,199.246,1649.66)">
                <path d="M0,4.071C-1.26,3.732 -3.344,1.769 -4.071,0C-1.696,0.994 -0.533,2.084 0,4.071" style="fill:rgb(28,33,64);fill-rule:nonzero;"/>
            </g>
        </g>
        <g transform="matrix(8.33333,0,0,8.33333,0,0)">
            <g transform="matrix(1,0,0,1,199.876,1653.16)">
                <path d="M0,1.647C-0.315,0.944 -0.678,-1.648 -1.163,-2.593C-0.63,-2.399 0.751,-0.728 1.09,0.508C1.43,1.744 1.139,3.585 1.187,4.24C0.727,3.755 -0.896,2.81 -1.769,1.889C-2.593,1.017 -3.586,0.024 -3.634,-0.824C-3.174,-0.51 -0.484,1.114 0,1.647" style="fill:rgb(28,33,64);fill-rule:nonzero;"/>
            </g>
        </g>
        <g transform="matrix(8.33333,0,0,8.33333,0,0)">
            <g transform="matrix(1,0,0,1,202.033,1660.91)">
                <path d="M0,2.907C0.145,2.132 1.817,-1.575 2.253,-2.714C2.689,-2.084 2.447,0.048 2.059,1.526C1.696,2.883 -0.097,4.918 -0.461,5.621C-0.557,3.997 -1.332,3.27 -1.745,2.059C-2.108,0.993 -2.617,-0.606 -2.205,-1.43C-1.817,-1.018 -0.242,1.453 0,2.907" style="fill:rgb(28,33,64);fill-rule:nonzero;"/>
            </g>
        </g>
        <g transform="matrix(8.33333,0,0,8.33333,0,0)">
            <g transform="matrix(1,0,0,1,201.475,1657.18)">
                <path d="M0,1.406C-0.097,0.631 0.412,-2.422 -0.024,-3.901C0.678,-3.343 1.745,-1.065 1.672,0.922C1.623,2.181 1.042,4.677 0.654,5.307C0.024,3.272 -1.042,2.981 -1.648,1.794C-2.18,0.727 -3.174,-0.532 -3.174,-1.453C-2.786,-1.09 -0.461,0.8 0,1.406" style="fill:rgb(28,33,64);fill-rule:nonzero;"/>
            </g>
        </g>
        <g transform="matrix(8.33333,0,0,8.33333,0,0)">
            <g transform="matrix(1,0,0,1,200.627,1665.71)">
                <path d="M0,3.004C0.412,2.325 3.102,-0.533 3.683,-1.987C3.901,-1.115 3.344,1.284 2.059,2.786C1.236,3.755 -0.63,5.281 -1.332,5.548C-0.945,4.264 -1.405,2.883 -1.478,1.574C-1.551,0.242 -1.284,-1.818 -0.703,-2.544C-0.17,-1.818 0,2.035 0,3.004" style="fill:rgb(28,33,64);fill-rule:nonzero;"/>
            </g>
        </g>
        <g transform="matrix(8.33333,0,0,8.33333,0,0)">
            <g transform="matrix(1,0,0,1,193.867,1673.02)">
                <path d="M0,3.393C2.399,2.666 4.313,2.618 6.615,1.406C6.057,2.521 4.24,4.386 1.89,4.75C0.218,5.016 -1.89,4.58 -2.593,4.193C-1.769,3.587 -1.26,2.4 -0.363,1.164C0.412,0.098 1.551,-1.065 2.35,-1.623C2.302,0.049 1.43,1.842 0,3.393" style="fill:rgb(28,33,64);fill-rule:nonzero;"/>
            </g>
        </g>
        <g transform="matrix(8.33333,0,0,8.33333,0,0)">
            <g transform="matrix(1,0,0,1,197.841,1669.61)">
                <path d="M0,3.78C0.606,3.296 3.659,1.478 5.33,-0.678C5.33,0.678 3.974,3.416 2.253,4.362C1.139,4.967 -0.969,5.452 -1.914,5.646C-1.575,4.483 -1.696,3.416 -1.284,2.157C-0.872,0.896 0.145,-1.163 0.896,-1.866C1.332,0.582 0.315,2.98 0,3.78" style="fill:rgb(28,33,64);fill-rule:nonzero;"/>
            </g>
        </g>
        <g transform="matrix(8.33333,0,0,8.33333,0,0)">
            <g transform="matrix(1,0,0,1,215.238,1660.64)">
                <path d="M0,0.509L0,2.908C0,3.416 0.048,3.755 0.17,3.877C0.315,4.046 0.557,4.143 0.872,4.143L1.187,4.143L1.187,4.361L-2.326,4.361L-2.326,4.143L-2.011,4.143C-1.672,4.143 -1.405,4.022 -1.26,3.804C-1.187,3.683 -1.139,3.393 -1.139,2.908L-1.139,-2.398C-1.139,-2.907 -1.187,-3.246 -1.309,-3.368C-1.454,-3.537 -1.696,-3.634 -2.011,-3.634L-2.326,-3.634L-2.326,-3.852L0.678,-3.852C1.405,-3.852 1.987,-3.78 2.423,-3.634C2.835,-3.489 3.198,-3.223 3.489,-2.859C3.78,-2.496 3.925,-2.084 3.925,-1.575C3.925,-0.896 3.707,-0.363 3.271,0.048C2.835,0.461 2.205,0.679 1.405,0.679C1.211,0.679 0.993,0.654 0.775,0.63C0.509,0.606 0.266,0.557 0,0.509M0,0.17C0.218,0.218 0.412,0.243 0.557,0.266C0.727,0.291 0.872,0.291 0.969,0.291C1.381,0.291 1.745,0.121 2.059,-0.194C2.375,-0.509 2.52,-0.945 2.52,-1.453C2.52,-1.817 2.447,-2.132 2.302,-2.447C2.157,-2.762 1.962,-2.98 1.696,-3.125C1.43,-3.271 1.139,-3.344 0.8,-3.344C0.606,-3.344 0.339,-3.295 0,-3.223L0,0.17Z" style="fill:rgb(28,33,64);fill-rule:nonzero;"/>
            </g>
        </g>
        <g transform="matrix(8.33333,0,0,8.33333,0,0)">
            <g transform="matrix(1,0,0,1,220.907,1662.94)">
                <path d="M0,-1.405C0,-0.581 0.194,0.073 0.606,0.533C1.018,0.994 1.478,1.236 2.035,1.236C2.399,1.236 2.714,1.139 2.98,0.945C3.247,0.751 3.465,0.412 3.659,-0.073L3.853,0.049C3.78,0.606 3.513,1.115 3.126,1.551C2.714,2.011 2.205,2.229 1.599,2.229C0.945,2.229 0.363,1.963 -0.097,1.454C-0.582,0.945 -0.8,0.243 -0.8,-0.63C-0.8,-1.575 -0.557,-2.326 -0.073,-2.835C0.412,-3.368 1.018,-3.634 1.769,-3.634C2.399,-3.634 2.907,-3.441 3.295,-3.028C3.683,-2.617 3.901,-2.084 3.901,-1.381L0,-1.381L0,-1.405ZM0,-1.744L2.568,-1.744C2.544,-2.108 2.496,-2.35 2.447,-2.495C2.35,-2.714 2.205,-2.907 1.987,-3.028C1.793,-3.15 1.575,-3.223 1.357,-3.223C1.018,-3.223 0.727,-3.101 0.461,-2.835C0.194,-2.592 0.048,-2.229 0,-1.744" style="fill:rgb(28,33,64);fill-rule:nonzero;"/>
            </g>
        </g>
        <g transform="matrix(8.33333,0,0,8.33333,0,0)">
            <g transform="matrix(1,0,0,1,228.612,1660.16)">
                <path d="M0,4.047C-0.557,4.483 -0.921,4.75 -1.066,4.798C-1.284,4.895 -1.527,4.943 -1.769,4.943C-2.157,4.943 -2.471,4.822 -2.714,4.556C-2.956,4.29 -3.077,3.95 -3.077,3.514C-3.077,3.247 -3.029,3.005 -2.907,2.811C-2.738,2.545 -2.447,2.278 -2.035,2.036C-1.623,1.794 -0.945,1.503 0,1.163L0,0.945C0,0.388 -0.097,0.025 -0.266,-0.193C-0.436,-0.387 -0.703,-0.508 -1.042,-0.508C-1.284,-0.508 -1.502,-0.435 -1.648,-0.314C-1.793,-0.169 -1.866,-0.024 -1.866,0.146L-1.866,0.485C-1.866,0.679 -1.914,0.824 -2.011,0.922C-2.108,1.018 -2.229,1.067 -2.375,1.067C-2.52,1.067 -2.641,1.018 -2.738,0.922C-2.835,0.824 -2.884,0.679 -2.884,0.485C-2.884,0.146 -2.714,-0.169 -2.35,-0.46C-1.987,-0.75 -1.502,-0.896 -0.848,-0.896C-0.363,-0.896 0.048,-0.823 0.363,-0.653C0.606,-0.532 0.775,-0.339 0.896,-0.072C0.969,0.097 0.993,0.461 0.993,0.994L0.993,2.884C0.993,3.417 0.993,3.732 1.018,3.853C1.042,3.974 1.066,4.047 1.114,4.095C1.163,4.144 1.211,4.144 1.284,4.144C1.357,4.144 1.405,4.12 1.454,4.095C1.527,4.047 1.696,3.902 1.938,3.659L1.938,3.999C1.478,4.604 1.066,4.895 0.654,4.895C0.461,4.895 0.291,4.822 0.194,4.701C0.073,4.604 0,4.362 0,4.047M0,3.635L0,1.527C-0.606,1.77 -0.993,1.939 -1.187,2.036C-1.502,2.206 -1.745,2.399 -1.866,2.593C-2.011,2.787 -2.059,3.005 -2.059,3.223C-2.059,3.514 -1.962,3.756 -1.793,3.95C-1.623,4.144 -1.43,4.241 -1.187,4.241C-0.896,4.241 -0.509,4.047 0,3.635" style="fill:rgb(28,33,64);fill-rule:nonzero;"/>
            </g>
        </g>
        <g transform="matrix(8.33333,0,0,8.33333,0,0)">
            <g transform="matrix(1,0,0,1,235.663,1661.51)">
                <path d="M0,1.381C-0.145,2.108 -0.436,2.665 -0.872,3.053C-1.309,3.44 -1.793,3.634 -2.326,3.634C-2.956,3.634 -3.513,3.368 -3.974,2.835C-4.434,2.302 -4.676,1.599 -4.676,0.703C-4.676,-0.17 -4.41,-0.872 -3.901,-1.43C-3.392,-1.963 -2.762,-2.253 -2.035,-2.253C-1.502,-2.253 -1.042,-2.108 -0.703,-1.817C-0.363,-1.526 -0.17,-1.236 -0.17,-0.921C-0.17,-0.775 -0.218,-0.654 -0.315,-0.557C-0.412,-0.46 -0.557,-0.412 -0.727,-0.412C-0.969,-0.412 -1.139,-0.485 -1.26,-0.63C-1.332,-0.703 -1.381,-0.872 -1.405,-1.115C-1.43,-1.357 -1.502,-1.526 -1.648,-1.648C-1.793,-1.769 -1.987,-1.817 -2.229,-1.817C-2.641,-1.817 -2.956,-1.672 -3.198,-1.381C-3.513,-0.994 -3.683,-0.46 -3.683,0.194C-3.683,0.848 -3.513,1.429 -3.198,1.938C-2.884,2.447 -2.423,2.69 -1.89,2.69C-1.502,2.69 -1.139,2.544 -0.824,2.277C-0.606,2.084 -0.388,1.745 -0.17,1.26L0,1.381Z" style="fill:rgb(28,33,64);fill-rule:nonzero;"/>
            </g>
        </g>
        <g transform="matrix(8.33333,0,0,8.33333,0,0)">
            <g transform="matrix(1,0,0,1,237.408,1662.94)">
                <path d="M0,-1.405C0,-0.581 0.194,0.073 0.606,0.533C1.018,0.994 1.478,1.236 2.035,1.236C2.399,1.236 2.714,1.139 2.98,0.945C3.247,0.751 3.465,0.412 3.659,-0.073L3.852,0.049C3.78,0.606 3.513,1.115 3.126,1.551C2.714,2.011 2.205,2.229 1.599,2.229C0.945,2.229 0.363,1.963 -0.097,1.454C-0.582,0.945 -0.8,0.243 -0.8,-0.63C-0.8,-1.575 -0.557,-2.326 -0.073,-2.835C0.412,-3.368 1.018,-3.634 1.769,-3.634C2.399,-3.634 2.907,-3.441 3.295,-3.028C3.683,-2.617 3.901,-2.084 3.901,-1.381L0,-1.381L0,-1.405ZM0,-1.744L2.568,-1.744C2.544,-2.108 2.496,-2.35 2.447,-2.495C2.35,-2.714 2.205,-2.907 1.987,-3.028C1.793,-3.15 1.575,-3.223 1.357,-3.223C1.018,-3.223 0.727,-3.101 0.461,-2.835C0.194,-2.592 0.024,-2.229 0,-1.744" style="fill:rgb(28,33,64);fill-rule:nonzero;"/>
            </g>
        </g>
        <g transform="matrix(8.33333,0,0,8.33333,0,0)">
            <g transform="matrix(1,0,0,1,252.115,1665.2)">
                <path d="M0,-8.601L0.194,-5.815L0,-5.815C-0.242,-6.639 -0.606,-7.244 -1.066,-7.608C-1.527,-7.971 -2.084,-8.165 -2.738,-8.165C-3.271,-8.165 -3.78,-8.019 -4.216,-7.753C-4.652,-7.487 -4.991,-7.026 -5.258,-6.421C-5.5,-5.815 -5.646,-5.064 -5.646,-4.167C-5.646,-3.416 -5.525,-2.786 -5.282,-2.228C-5.04,-1.696 -4.676,-1.259 -4.216,-0.969C-3.732,-0.678 -3.198,-0.533 -2.568,-0.533C-2.035,-0.533 -1.575,-0.653 -1.163,-0.872C-0.751,-1.09 -0.315,-1.55 0.17,-2.228L0.363,-2.107C-0.048,-1.381 -0.533,-0.848 -1.066,-0.508C-1.623,-0.169 -2.253,0 -3.029,0C-4.386,0 -5.427,-0.508 -6.178,-1.502C-6.736,-2.253 -7.002,-3.125 -7.002,-4.143C-7.002,-4.967 -6.809,-5.717 -6.445,-6.396C-6.082,-7.074 -5.573,-7.608 -4.919,-7.995C-4.264,-8.383 -3.562,-8.553 -2.811,-8.553C-2.229,-8.553 -1.623,-8.407 -1.066,-8.117C-0.896,-8.019 -0.775,-7.995 -0.703,-7.995C-0.606,-7.995 -0.509,-8.044 -0.412,-8.117C-0.315,-8.213 -0.242,-8.383 -0.194,-8.577L0,-8.577L0,-8.601Z" style="fill:rgb(28,33,64);fill-rule:nonzero;"/>
            </g>
        </g>
        <g transform="matrix(8.33333,0,0,8.33333,0,0)">
            <g transform="matrix(1,0,0,1,254.95,1664.98)">
                <path d="M0,-8.577L0,-4.531C0.436,-5.015 0.8,-5.33 1.066,-5.475C1.332,-5.621 1.599,-5.693 1.841,-5.693C2.157,-5.693 2.423,-5.597 2.641,-5.427C2.859,-5.258 3.029,-4.991 3.15,-4.603C3.223,-4.337 3.271,-3.876 3.271,-3.198L3.271,-1.235C3.271,-0.896 3.295,-0.654 3.344,-0.509C3.392,-0.411 3.441,-0.339 3.537,-0.29C3.634,-0.242 3.804,-0.218 4.071,-0.218L4.071,0L1.357,0L1.357,-0.218L1.478,-0.218C1.745,-0.218 1.914,-0.266 2.011,-0.339C2.108,-0.411 2.18,-0.533 2.229,-0.678C2.229,-0.751 2.253,-0.92 2.253,-1.235L2.253,-3.198C2.253,-3.804 2.229,-4.191 2.157,-4.385C2.084,-4.579 1.987,-4.724 1.866,-4.822C1.72,-4.918 1.575,-4.967 1.381,-4.967C1.187,-4.967 0.969,-4.918 0.775,-4.822C0.557,-4.724 0.315,-4.506 0,-4.191L0,-1.26C0,-0.872 0.024,-0.654 0.073,-0.557C0.121,-0.46 0.194,-0.387 0.315,-0.315C0.436,-0.242 0.63,-0.218 0.921,-0.218L0.921,0L-1.817,0L-1.817,-0.218C-1.575,-0.218 -1.381,-0.266 -1.236,-0.339C-1.163,-0.387 -1.09,-0.46 -1.042,-0.557C-0.993,-0.678 -0.969,-0.896 -0.969,-1.235L-0.969,-6.251C-0.969,-6.881 -0.993,-7.268 -1.018,-7.414C-1.042,-7.559 -1.09,-7.656 -1.163,-7.705C-1.236,-7.753 -1.309,-7.777 -1.405,-7.777C-1.478,-7.777 -1.623,-7.753 -1.817,-7.681L-1.89,-7.898L-0.242,-8.577L0,-8.577Z" style="fill:rgb(28,33,64);fill-rule:nonzero;"/>
            </g>
        </g>
        <g transform="matrix(8.33333,0,0,8.33333,0,0)">
            <g transform="matrix(1,0,0,1,261.419,1662.12)">
                <path d="M0,-2.834L0,1.624C0,1.964 0.024,2.206 0.073,2.327C0.121,2.448 0.194,2.521 0.291,2.593C0.388,2.642 0.582,2.666 0.824,2.666L0.824,2.884L-1.866,2.884L-1.866,2.666C-1.599,2.666 -1.405,2.642 -1.332,2.593C-1.236,2.545 -1.163,2.448 -1.114,2.327C-1.066,2.206 -1.042,1.964 -1.042,1.624L-1.042,-0.508C-1.042,-1.114 -1.066,-1.501 -1.09,-1.671C-1.114,-1.792 -1.163,-1.889 -1.211,-1.938C-1.26,-1.986 -1.357,-2.01 -1.454,-2.01C-1.575,-2.01 -1.696,-1.986 -1.866,-1.913L-1.938,-2.131L-0.266,-2.81L0,-2.81L0,-2.834ZM-0.509,-5.718C-0.339,-5.718 -0.194,-5.669 -0.073,-5.548C0.048,-5.427 0.097,-5.281 0.097,-5.111C0.097,-4.942 0.048,-4.796 -0.073,-4.675C-0.194,-4.554 -0.339,-4.506 -0.509,-4.506C-0.678,-4.506 -0.824,-4.554 -0.945,-4.675C-1.066,-4.796 -1.114,-4.942 -1.114,-5.111C-1.114,-5.281 -1.066,-5.427 -0.945,-5.548C-0.824,-5.669 -0.678,-5.718 -0.509,-5.718" style="fill:rgb(28,33,64);fill-rule:nonzero;"/>
            </g>
        </g>
        <g transform="matrix(8.33333,0,0,8.33333,0,0)">
            <g transform="matrix(1,0,0,1,264.86,1665)">
                <path d="M0,-8.601L0,-1.259C0,-0.92 0.024,-0.678 0.073,-0.581C0.121,-0.46 0.194,-0.387 0.315,-0.314C0.436,-0.242 0.605,-0.218 0.896,-0.218L0.896,0L-1.817,0L-1.817,-0.218C-1.575,-0.218 -1.381,-0.242 -1.309,-0.29C-1.211,-0.339 -1.139,-0.435 -1.09,-0.557C-1.042,-0.678 -1.018,-0.92 -1.018,-1.259L-1.018,-6.299C-1.018,-6.929 -1.042,-7.317 -1.066,-7.462C-1.09,-7.608 -1.139,-7.705 -1.211,-7.753C-1.284,-7.801 -1.357,-7.826 -1.454,-7.826C-1.551,-7.826 -1.696,-7.801 -1.841,-7.729L-1.938,-7.922L-0.291,-8.601L0,-8.601Z" style="fill:rgb(28,33,64);fill-rule:nonzero;"/>
            </g>
        </g>
        <g transform="matrix(8.33333,0,0,8.33333,0,0)">
            <g transform="matrix(1,0,0,1,270.311,1657.22)">
                <path d="M0,7.148C-0.266,7.439 -0.533,7.632 -0.8,7.754C-1.066,7.875 -1.332,7.948 -1.623,7.948C-2.229,7.948 -2.762,7.705 -3.198,7.196C-3.659,6.687 -3.877,6.034 -3.877,5.258C-3.877,4.459 -3.634,3.732 -3.126,3.077C-2.617,2.423 -1.987,2.084 -1.187,2.084C-0.703,2.084 -0.291,2.229 0.024,2.545L0.024,1.527C0.024,0.897 0,0.509 -0.024,0.364C-0.048,0.218 -0.097,0.122 -0.17,0.073C-0.242,0.025 -0.315,0 -0.412,0C-0.509,0 -0.654,0.025 -0.824,0.097L-0.896,-0.121L0.751,-0.8L1.018,-0.8L1.018,5.597C1.018,6.252 1.042,6.639 1.066,6.784C1.09,6.93 1.139,7.027 1.211,7.075C1.284,7.124 1.357,7.148 1.454,7.148C1.551,7.148 1.696,7.124 1.89,7.051L1.962,7.269L0.315,7.948L0.048,7.948L0.048,7.148L0,7.148ZM0,6.712L0,3.853C-0.024,3.586 -0.097,3.32 -0.218,3.102C-0.339,2.884 -0.509,2.714 -0.703,2.593C-0.896,2.472 -1.09,2.423 -1.284,2.423C-1.648,2.423 -1.962,2.593 -2.229,2.908C-2.593,3.32 -2.786,3.95 -2.786,4.749C-2.786,5.573 -2.617,6.179 -2.253,6.615C-1.89,7.051 -1.502,7.269 -1.066,7.269C-0.703,7.269 -0.363,7.1 0,6.712" style="fill:rgb(28,33,64);fill-rule:nonzero;"/>
            </g>
        </g>
        <g transform="matrix(8.33333,0,0,8.33333,0,0)">
            <g transform="matrix(1,0,0,1,279.107,1657.01)">
                <path d="M0,7.753L0,7.971L-3.513,7.971L-3.513,7.753L-3.223,7.753C-2.884,7.753 -2.641,7.656 -2.496,7.462C-2.399,7.341 -2.35,7.026 -2.35,6.541L-2.35,1.235C-2.35,0.823 -2.375,0.557 -2.423,0.411C-2.471,0.314 -2.544,0.218 -2.665,0.145C-2.835,0.048 -3.029,0 -3.223,0L-3.513,0L-3.513,-0.218L0,-0.218L0,0L-0.291,0C-0.63,0 -0.872,0.096 -1.018,0.29C-1.114,0.411 -1.163,0.727 -1.163,1.211L-1.163,6.517C-1.163,6.929 -1.139,7.196 -1.09,7.341C-1.042,7.438 -0.969,7.535 -0.848,7.607C-0.678,7.705 -0.484,7.753 -0.291,7.753L0,7.753Z" style="fill:rgb(28,33,64);fill-rule:nonzero;"/>
            </g>
        </g>
        <g transform="matrix(8.33333,0,0,8.33333,0,0)">
            <g transform="matrix(1,0,0,1,281.409,1663.86)">
                <path d="M0,-3.392C0.654,-4.167 1.26,-4.555 1.866,-4.555C2.157,-4.555 2.423,-4.482 2.641,-4.337C2.859,-4.192 3.029,-3.925 3.15,-3.586C3.247,-3.344 3.271,-2.98 3.271,-2.471L3.271,-0.097C3.271,0.243 3.295,0.485 3.344,0.606C3.392,0.703 3.465,0.776 3.562,0.848C3.659,0.897 3.852,0.921 4.119,0.921L4.119,1.139L1.381,1.139L1.381,0.921L1.502,0.921C1.769,0.921 1.938,0.872 2.035,0.8C2.132,0.727 2.205,0.606 2.253,0.461C2.278,0.412 2.278,0.218 2.278,-0.097L2.278,-2.374C2.278,-2.883 2.205,-3.246 2.084,-3.465C1.962,-3.683 1.72,-3.804 1.43,-3.804C0.945,-3.804 0.461,-3.537 0,-3.028L0,-0.097C0,0.267 0.024,0.509 0.073,0.606C0.121,0.727 0.218,0.8 0.315,0.872C0.412,0.921 0.605,0.945 0.921,0.945L0.921,1.163L-1.817,1.163L-1.817,0.945L-1.696,0.945C-1.405,0.945 -1.211,0.872 -1.114,0.727C-1.018,0.582 -0.969,0.315 -0.969,-0.097L-0.969,-2.18C-0.969,-2.835 -0.993,-3.246 -1.018,-3.392C-1.042,-3.537 -1.09,-3.634 -1.163,-3.683C-1.236,-3.731 -1.309,-3.755 -1.405,-3.755C-1.527,-3.755 -1.648,-3.731 -1.817,-3.658L-1.914,-3.876L-0.242,-4.555L0.024,-4.555L0.024,-3.392L0,-3.392Z" style="fill:rgb(28,33,64);fill-rule:nonzero;"/>
            </g>
        </g>
        <g transform="matrix(8.33333,0,0,8.33333,0,0)">
            <g transform="matrix(1,0,0,1,287.611,1665.05)">
                <path d="M0,-7.439L0,-5.597L1.284,-5.597L1.284,-5.186L0,-5.186L0,-1.6C0,-1.237 0.048,-0.994 0.145,-0.873C0.242,-0.752 0.388,-0.679 0.533,-0.679C0.654,-0.679 0.8,-0.728 0.921,-0.8C1.042,-0.873 1.139,-0.994 1.211,-1.164L1.454,-1.164C1.309,-0.776 1.114,-0.461 0.848,-0.267C0.582,-0.073 0.315,0.024 0.048,0.024C-0.145,0.024 -0.315,-0.025 -0.484,-0.122C-0.654,-0.219 -0.8,-0.364 -0.872,-0.558C-0.945,-0.752 -0.993,-1.042 -0.993,-1.455L-0.993,-5.186L-1.866,-5.186L-1.866,-5.38C-1.648,-5.477 -1.405,-5.622 -1.187,-5.84C-0.945,-6.058 -0.751,-6.301 -0.557,-6.591C-0.461,-6.736 -0.339,-7.027 -0.17,-7.439L0,-7.439Z" style="fill:rgb(28,33,64);fill-rule:nonzero;"/>
            </g>
        </g>
        <g transform="matrix(8.33333,0,0,8.33333,0,0)">
            <g transform="matrix(1,0,0,1,290.374,1662.94)">
                <path d="M0,-1.405C0,-0.581 0.194,0.073 0.606,0.533C1.018,0.994 1.478,1.236 2.035,1.236C2.399,1.236 2.714,1.139 2.98,0.945C3.247,0.751 3.465,0.412 3.659,-0.073L3.853,0.049C3.78,0.606 3.513,1.115 3.126,1.551C2.714,2.011 2.205,2.229 1.599,2.229C0.945,2.229 0.363,1.963 -0.097,1.454C-0.582,0.945 -0.8,0.243 -0.8,-0.63C-0.8,-1.575 -0.557,-2.326 -0.073,-2.835C0.412,-3.368 1.018,-3.634 1.769,-3.634C2.399,-3.634 2.907,-3.441 3.295,-3.028C3.683,-2.617 3.901,-2.084 3.901,-1.381L0,-1.381L0,-1.405ZM0,-1.744L2.568,-1.744C2.544,-2.108 2.496,-2.35 2.447,-2.495C2.35,-2.714 2.205,-2.907 1.987,-3.028C1.793,-3.15 1.575,-3.223 1.357,-3.223C1.018,-3.223 0.727,-3.101 0.461,-2.835C0.194,-2.592 0.024,-2.229 0,-1.744" style="fill:rgb(28,33,64);fill-rule:nonzero;"/>
            </g>
        </g>
        <g transform="matrix(8.33333,0,0,8.33333,0,0)">
            <g transform="matrix(1,0,0,1,296.552,1664.93)">
                <path d="M0,-5.67L0,-4.41C0.461,-5.234 0.945,-5.646 1.43,-5.646C1.648,-5.646 1.841,-5.573 1.987,-5.452C2.132,-5.307 2.205,-5.162 2.205,-4.992C2.205,-4.846 2.157,-4.701 2.059,-4.604C1.963,-4.507 1.841,-4.434 1.696,-4.434C1.551,-4.434 1.405,-4.507 1.211,-4.653C1.042,-4.798 0.896,-4.871 0.824,-4.871C0.751,-4.871 0.679,-4.822 0.582,-4.75C0.412,-4.58 0.218,-4.313 0.024,-3.926L0.024,-1.26C0.024,-0.945 0.073,-0.727 0.145,-0.558C0.194,-0.461 0.291,-0.364 0.412,-0.291C0.533,-0.219 0.727,-0.194 0.993,-0.194L0.993,0.024L-1.841,0.024L-1.841,-0.194C-1.551,-0.194 -1.357,-0.243 -1.211,-0.316C-1.114,-0.388 -1.042,-0.485 -0.993,-0.63C-0.969,-0.703 -0.969,-0.897 -0.969,-1.212L-0.969,-3.368C-0.969,-4.023 -0.993,-4.386 -1.018,-4.532C-1.042,-4.653 -1.09,-4.75 -1.163,-4.798C-1.236,-4.846 -1.332,-4.871 -1.43,-4.871C-1.551,-4.871 -1.696,-4.846 -1.841,-4.774L-1.89,-4.992L-0.218,-5.67L0,-5.67Z" style="fill:rgb(28,33,64);fill-rule:nonzero;"/>
            </g>
        </g>
        <g transform="matrix(8.33333,0,0,8.33333,0,0)">
            <g transform="matrix(1,0,0,1,300.671,1663.86)">
                <path d="M0,-3.392C0.654,-4.167 1.26,-4.555 1.866,-4.555C2.157,-4.555 2.423,-4.482 2.641,-4.337C2.859,-4.192 3.029,-3.925 3.15,-3.586C3.247,-3.344 3.271,-2.98 3.271,-2.471L3.271,-0.097C3.271,0.243 3.295,0.485 3.344,0.606C3.392,0.703 3.465,0.776 3.562,0.848C3.659,0.897 3.853,0.921 4.119,0.921L4.119,1.139L1.381,1.139L1.381,0.921L1.502,0.921C1.769,0.921 1.938,0.872 2.035,0.8C2.132,0.727 2.205,0.606 2.253,0.461C2.278,0.412 2.278,0.218 2.278,-0.097L2.278,-2.374C2.278,-2.883 2.205,-3.246 2.084,-3.465C1.962,-3.683 1.72,-3.804 1.43,-3.804C0.945,-3.804 0.461,-3.537 0,-3.028L0,-0.097C0,0.267 0.024,0.509 0.073,0.606C0.121,0.727 0.218,0.8 0.315,0.872C0.412,0.921 0.606,0.945 0.921,0.945L0.921,1.163L-1.817,1.163L-1.817,0.945L-1.696,0.945C-1.405,0.945 -1.211,0.872 -1.114,0.727C-1.018,0.582 -0.969,0.315 -0.969,-0.097L-0.969,-2.18C-0.969,-2.835 -0.993,-3.246 -1.018,-3.392C-1.042,-3.537 -1.09,-3.634 -1.163,-3.683C-1.236,-3.731 -1.309,-3.755 -1.405,-3.755C-1.527,-3.755 -1.648,-3.731 -1.817,-3.658L-1.914,-3.876L-0.242,-4.555L0.024,-4.555L0.024,-3.392L0,-3.392Z" style="fill:rgb(28,33,64);fill-rule:nonzero;"/>
            </g>
        </g>
        <g transform="matrix(8.33333,0,0,8.33333,0,0)">
            <g transform="matrix(1,0,0,1,308.376,1660.16)">
                <path d="M0,4.047C-0.557,4.483 -0.921,4.75 -1.066,4.798C-1.284,4.895 -1.527,4.943 -1.769,4.943C-2.157,4.943 -2.471,4.822 -2.714,4.556C-2.956,4.29 -3.077,3.95 -3.077,3.514C-3.077,3.247 -3.029,3.005 -2.907,2.811C-2.738,2.545 -2.447,2.278 -2.036,2.036C-1.623,1.794 -0.945,1.503 0,1.163L0,0.945C0,0.388 -0.097,0.025 -0.266,-0.193C-0.436,-0.387 -0.703,-0.508 -1.042,-0.508C-1.284,-0.508 -1.502,-0.435 -1.648,-0.314C-1.793,-0.169 -1.866,-0.024 -1.866,0.146L-1.866,0.485C-1.866,0.679 -1.914,0.824 -2.011,0.922C-2.108,1.018 -2.229,1.067 -2.375,1.067C-2.52,1.067 -2.641,1.018 -2.738,0.922C-2.835,0.824 -2.884,0.679 -2.884,0.485C-2.884,0.146 -2.714,-0.169 -2.35,-0.46C-1.987,-0.75 -1.502,-0.896 -0.848,-0.896C-0.363,-0.896 0.048,-0.823 0.363,-0.653C0.605,-0.532 0.775,-0.339 0.896,-0.072C0.969,0.097 0.993,0.461 0.993,0.994L0.993,2.884C0.993,3.417 0.993,3.732 1.018,3.853C1.042,3.974 1.066,4.047 1.114,4.095C1.163,4.144 1.211,4.144 1.284,4.144C1.357,4.144 1.405,4.12 1.454,4.095C1.527,4.047 1.696,3.902 1.938,3.659L1.938,3.999C1.478,4.604 1.066,4.895 0.654,4.895C0.461,4.895 0.291,4.822 0.194,4.701C0.073,4.604 0,4.362 0,4.047M0,3.635L0,1.527C-0.606,1.77 -0.993,1.939 -1.187,2.036C-1.502,2.206 -1.745,2.399 -1.866,2.593C-2.011,2.787 -2.059,3.005 -2.059,3.223C-2.059,3.514 -1.962,3.756 -1.793,3.95C-1.623,4.144 -1.43,4.241 -1.187,4.241C-0.896,4.241 -0.484,4.047 0,3.635" style="fill:rgb(28,33,64);fill-rule:nonzero;"/>
            </g>
        </g>
        <g transform="matrix(8.33333,0,0,8.33333,0,0)">
            <g transform="matrix(1,0,0,1,312.35,1665.05)">
                <path d="M0,-7.439L0,-5.597L1.284,-5.597L1.284,-5.186L0,-5.186L0,-1.6C0,-1.237 0.048,-0.994 0.145,-0.873C0.242,-0.752 0.388,-0.679 0.533,-0.679C0.654,-0.679 0.8,-0.728 0.921,-0.8C1.042,-0.873 1.139,-0.994 1.211,-1.164L1.454,-1.164C1.309,-0.776 1.114,-0.461 0.848,-0.267C0.582,-0.073 0.315,0.024 0.048,0.024C-0.145,0.024 -0.315,-0.025 -0.484,-0.122C-0.654,-0.219 -0.8,-0.364 -0.872,-0.558C-0.945,-0.752 -0.993,-1.042 -0.993,-1.455L-0.993,-5.186L-1.866,-5.186L-1.866,-5.38C-1.648,-5.477 -1.405,-5.622 -1.187,-5.84C-0.945,-6.058 -0.751,-6.301 -0.557,-6.591C-0.461,-6.736 -0.339,-7.027 -0.17,-7.439L0,-7.439Z" style="fill:rgb(28,33,64);fill-rule:nonzero;"/>
            </g>
        </g>
        <g transform="matrix(8.33333,0,0,8.33333,0,0)">
            <g transform="matrix(1,0,0,1,316.105,1662.12)">
                <path d="M0,-2.834L0,1.624C0,1.964 0.024,2.206 0.073,2.327C0.121,2.448 0.194,2.521 0.291,2.593C0.388,2.642 0.582,2.666 0.824,2.666L0.824,2.884L-1.866,2.884L-1.866,2.666C-1.599,2.666 -1.405,2.642 -1.332,2.593C-1.236,2.545 -1.163,2.448 -1.114,2.327C-1.066,2.206 -1.042,1.964 -1.042,1.624L-1.042,-0.508C-1.042,-1.114 -1.066,-1.501 -1.09,-1.671C-1.114,-1.792 -1.163,-1.889 -1.211,-1.938C-1.26,-1.986 -1.357,-2.01 -1.454,-2.01C-1.575,-2.01 -1.696,-1.986 -1.866,-1.913L-1.938,-2.131L-0.266,-2.81L0,-2.81L0,-2.834ZM-0.509,-5.718C-0.339,-5.718 -0.194,-5.669 -0.073,-5.548C0.048,-5.427 0.097,-5.281 0.097,-5.111C0.097,-4.942 0.048,-4.796 -0.073,-4.675C-0.194,-4.554 -0.339,-4.506 -0.509,-4.506C-0.678,-4.506 -0.824,-4.554 -0.945,-4.675C-1.066,-4.796 -1.114,-4.942 -1.114,-5.111C-1.114,-5.281 -1.066,-5.427 -0.945,-5.548C-0.824,-5.669 -0.678,-5.718 -0.509,-5.718" style="fill:rgb(28,33,64);fill-rule:nonzero;"/>
            </g>
        </g>
        <g transform="matrix(8.33333,0,0,8.33333,0,0)">
            <g transform="matrix(1,0,0,1,320.321,1665.12)">
                <path d="M0,-5.839C0.848,-5.839 1.502,-5.524 2.011,-4.894C2.447,-4.361 2.665,-3.731 2.665,-3.028C2.665,-2.544 2.544,-2.035 2.302,-1.526C2.059,-1.017 1.745,-0.63 1.309,-0.387C0.896,-0.121 0.436,0 -0.097,0C-0.921,0 -1.599,-0.339 -2.084,-0.993C-2.496,-1.55 -2.714,-2.18 -2.714,-2.883C-2.714,-3.392 -2.593,-3.901 -2.326,-4.409C-2.084,-4.918 -1.745,-5.282 -1.332,-5.524C-0.872,-5.718 -0.461,-5.839 0,-5.839M-0.17,-5.451C-0.388,-5.451 -0.605,-5.378 -0.824,-5.257C-1.042,-5.136 -1.211,-4.918 -1.357,-4.579C-1.478,-4.264 -1.551,-3.852 -1.551,-3.343C-1.551,-2.544 -1.381,-1.841 -1.066,-1.26C-0.751,-0.678 -0.315,-0.387 0.194,-0.387C0.582,-0.387 0.896,-0.557 1.163,-0.872C1.405,-1.187 1.551,-1.744 1.551,-2.544C1.551,-3.537 1.332,-4.312 0.921,-4.87C0.63,-5.257 0.266,-5.451 -0.17,-5.451" style="fill:rgb(28,33,64);fill-rule:nonzero;"/>
            </g>
        </g>
        <g transform="matrix(8.33333,0,0,8.33333,0,0)">
            <g transform="matrix(1,0,0,1,325.434,1663.86)">
                <path d="M0,-3.392C0.654,-4.167 1.26,-4.555 1.866,-4.555C2.157,-4.555 2.423,-4.482 2.641,-4.337C2.859,-4.192 3.029,-3.925 3.15,-3.586C3.247,-3.344 3.271,-2.98 3.271,-2.471L3.271,-0.097C3.271,0.243 3.295,0.485 3.344,0.606C3.392,0.703 3.465,0.776 3.562,0.848C3.659,0.897 3.853,0.921 4.119,0.921L4.119,1.139L1.381,1.139L1.381,0.921L1.502,0.921C1.769,0.921 1.938,0.872 2.035,0.8C2.132,0.727 2.205,0.606 2.253,0.461C2.278,0.412 2.278,0.218 2.278,-0.097L2.278,-2.374C2.278,-2.883 2.205,-3.246 2.084,-3.465C1.962,-3.683 1.72,-3.804 1.43,-3.804C0.945,-3.804 0.461,-3.537 0,-3.028L0,-0.097C0,0.267 0.024,0.509 0.073,0.606C0.121,0.727 0.218,0.8 0.315,0.872C0.412,0.921 0.606,0.945 0.921,0.945L0.921,1.163L-1.817,1.163L-1.817,0.945L-1.696,0.945C-1.405,0.945 -1.211,0.872 -1.114,0.727C-1.018,0.582 -0.969,0.315 -0.969,-0.097L-0.969,-2.18C-0.969,-2.835 -0.993,-3.246 -1.018,-3.392C-1.042,-3.537 -1.09,-3.634 -1.163,-3.683C-1.236,-3.731 -1.309,-3.755 -1.405,-3.755C-1.527,-3.755 -1.648,-3.731 -1.817,-3.658L-1.914,-3.876L-0.242,-4.555L0.024,-4.555L0.024,-3.392L0,-3.392Z" style="fill:rgb(28,33,64);fill-rule:nonzero;"/>
            </g>
        </g>
        <g transform="matrix(8.33333,0,0,8.33333,0,0)">
            <g transform="matrix(1,0,0,1,333.139,1660.16)">
                <path d="M0,4.047C-0.557,4.483 -0.921,4.75 -1.066,4.798C-1.284,4.895 -1.527,4.943 -1.769,4.943C-2.157,4.943 -2.471,4.822 -2.714,4.556C-2.956,4.29 -3.077,3.95 -3.077,3.514C-3.077,3.247 -3.029,3.005 -2.907,2.811C-2.738,2.545 -2.447,2.278 -2.036,2.036C-1.623,1.794 -0.945,1.503 0,1.163L0,0.945C0,0.388 -0.097,0.025 -0.266,-0.193C-0.436,-0.387 -0.703,-0.508 -1.042,-0.508C-1.284,-0.508 -1.502,-0.435 -1.648,-0.314C-1.793,-0.169 -1.866,-0.024 -1.866,0.146L-1.866,0.485C-1.866,0.679 -1.914,0.824 -2.011,0.922C-2.108,1.018 -2.229,1.067 -2.375,1.067C-2.52,1.067 -2.641,1.018 -2.738,0.922C-2.835,0.824 -2.884,0.679 -2.884,0.485C-2.884,0.146 -2.714,-0.169 -2.35,-0.46C-1.987,-0.75 -1.502,-0.896 -0.848,-0.896C-0.363,-0.896 0.048,-0.823 0.363,-0.653C0.606,-0.532 0.775,-0.339 0.896,-0.072C0.969,0.097 0.993,0.461 0.993,0.994L0.993,2.884C0.993,3.417 0.993,3.732 1.018,3.853C1.042,3.974 1.066,4.047 1.114,4.095C1.163,4.144 1.211,4.144 1.284,4.144C1.357,4.144 1.405,4.12 1.454,4.095C1.527,4.047 1.696,3.902 1.938,3.659L1.938,3.999C1.478,4.604 1.066,4.895 0.654,4.895C0.461,4.895 0.291,4.822 0.194,4.701C0.073,4.604 0,4.362 0,4.047M0,3.635L0,1.527C-0.605,1.77 -0.993,1.939 -1.187,2.036C-1.502,2.206 -1.745,2.399 -1.866,2.593C-2.011,2.787 -2.059,3.005 -2.059,3.223C-2.059,3.514 -1.962,3.756 -1.793,3.95C-1.623,4.144 -1.43,4.241 -1.187,4.241C-0.896,4.241 -0.484,4.047 0,3.635" style="fill:rgb(28,33,64);fill-rule:nonzero;"/>
            </g>
        </g>
        <g transform="matrix(8.33333,0,0,8.33333,0,0)">
            <g transform="matrix(1,0,0,1,337.403,1664.98)">
                <path d="M0,-8.601L0,-1.235C0,-0.896 0.024,-0.654 0.073,-0.557C0.121,-0.436 0.194,-0.363 0.315,-0.29C0.436,-0.218 0.606,-0.194 0.896,-0.194L0.896,0.024L-1.817,0.024L-1.817,-0.194C-1.575,-0.194 -1.381,-0.218 -1.309,-0.266C-1.211,-0.315 -1.139,-0.411 -1.09,-0.533C-1.042,-0.654 -1.018,-0.896 -1.018,-1.235L-1.018,-6.275C-1.018,-6.905 -1.042,-7.293 -1.066,-7.438C-1.09,-7.584 -1.139,-7.681 -1.211,-7.729C-1.284,-7.777 -1.357,-7.802 -1.454,-7.802C-1.551,-7.802 -1.696,-7.777 -1.841,-7.705L-1.938,-7.923L-0.291,-8.601L0,-8.601Z" style="fill:rgb(28,33,64);fill-rule:nonzero;"/>
            </g>
        </g>
        <g transform="matrix(8.33333,0,0,8.33333,0,0)">
            <g transform="matrix(1,0,0,1,213.687,1672.25)">
                <path d="M0,0.388C0.024,0.897 0.266,1.139 0.727,1.139C1.042,1.139 1.309,0.945 1.357,0.752L2.059,0.752C1.841,1.454 1.357,1.745 0.678,1.745C-0.242,1.745 -0.824,1.115 -0.824,0.194C-0.824,-0.702 -0.218,-1.357 0.678,-1.357C1.696,-1.357 2.18,-0.508 2.108,0.388L0,0.388ZM1.309,-0.121C1.236,-0.533 1.066,-0.751 0.654,-0.751C0.145,-0.751 0,-0.339 -0.024,-0.121L1.309,-0.121Z" style="fill:rgb(28,33,64);fill-rule:nonzero;"/>
            </g>
        </g>
        <g transform="matrix(8.33333,0,0,8.33333,0,0)">
            <g transform="matrix(1,0,0,1,218.896,1673.9)">
                <path d="M0,-2.932L0.775,-2.932L0.775,-2.52C0.993,-2.811 1.284,-3.005 1.672,-3.005C2.035,-3.005 2.375,-2.859 2.544,-2.52C2.714,-2.787 3.029,-3.005 3.441,-3.005C4.071,-3.005 4.531,-2.714 4.531,-1.939L4.531,0.048L3.731,0.048L3.731,-1.623C3.731,-2.011 3.707,-2.35 3.223,-2.35C2.762,-2.35 2.689,-1.963 2.689,-1.599L2.689,0.048L1.89,0.048L1.89,-1.599C1.89,-1.939 1.914,-2.326 1.405,-2.326C1.236,-2.326 0.848,-2.229 0.848,-1.648L0.848,0.073L0.048,0.073L0.048,-2.932L0,-2.932Z" style="fill:rgb(28,33,64);fill-rule:nonzero;"/>
            </g>
        </g>
        <g transform="matrix(8.33333,0,0,8.33333,0,0)">
            <g transform="matrix(1,0,0,1,226.626,1674.91)">
                <path d="M-0.024,-3.949L0.775,-3.949L0.775,-3.561C0.969,-3.876 1.284,-4.022 1.648,-4.022C2.568,-4.022 2.98,-3.271 2.98,-2.422C2.98,-1.623 2.544,-0.896 1.672,-0.896C1.309,-0.896 0.969,-1.042 0.775,-1.332L0.775,0.073L-0.024,0.073L-0.024,-3.949ZM2.205,-2.471C2.205,-2.931 2.011,-3.416 1.502,-3.416C0.969,-3.416 0.8,-2.931 0.8,-2.471C0.8,-2.011 0.993,-1.526 1.502,-1.526C2.035,-1.526 2.205,-1.987 2.205,-2.471" style="fill:rgb(28,33,64);fill-rule:nonzero;"/>
            </g>
        </g>
        <g transform="matrix(8.33333,0,0,8.33333,0,0)">
            <g transform="matrix(1,0,0,1,234.137,1673.99)">
                <path d="M0,-3.102C0.921,-3.102 1.527,-2.496 1.527,-1.551C1.527,-0.606 0.921,0 0,0C-0.921,0 -1.527,-0.606 -1.527,-1.551C-1.527,-2.496 -0.921,-3.102 0,-3.102M0,-0.606C0.557,-0.606 0.727,-1.091 0.727,-1.551C0.727,-2.036 0.557,-2.496 0,-2.496C-0.557,-2.496 -0.703,-2.012 -0.703,-1.551C-0.703,-1.091 -0.533,-0.606 0,-0.606" style="fill:rgb(28,33,64);fill-rule:nonzero;"/>
            </g>
        </g>
        <g transform="matrix(8.33333,0,0,8.33333,0,0)">
            <g transform="matrix(1,0,0,1,242.157,1670.96)">
                <path d="M0,2.956L-0.824,2.956L-1.357,0.969L-1.866,2.956L-2.714,2.956L-3.659,0L-2.811,0L-2.278,2.011L-1.793,0L-0.993,0L-0.484,2.011L0.048,0L0.872,0L0,2.956Z" style="fill:rgb(28,33,64);fill-rule:nonzero;"/>
            </g>
        </g>
        <g transform="matrix(8.33333,0,0,8.33333,0,0)">
            <g transform="matrix(1,0,0,1,246.688,1672.25)">
                <path d="M0,0.388C0.024,0.897 0.266,1.139 0.727,1.139C1.042,1.139 1.309,0.945 1.357,0.752L2.059,0.752C1.841,1.454 1.357,1.745 0.678,1.745C-0.242,1.745 -0.824,1.115 -0.824,0.194C-0.824,-0.702 -0.218,-1.357 0.678,-1.357C1.696,-1.357 2.18,-0.508 2.108,0.388L0,0.388ZM1.309,-0.121C1.236,-0.533 1.066,-0.751 0.654,-0.751C0.145,-0.751 0,-0.339 -0.024,-0.121L1.309,-0.121Z" style="fill:rgb(28,33,64);fill-rule:nonzero;"/>
            </g>
        </g>
        <g transform="matrix(8.33333,0,0,8.33333,0,0)">
            <g transform="matrix(1,0,0,1,251.873,1673.85)">
                <path d="M0,-2.883L0.775,-2.883L0.775,-2.326C0.921,-2.689 1.332,-2.956 1.72,-2.956C1.769,-2.956 1.841,-2.956 1.89,-2.931L1.89,-2.18C1.817,-2.205 1.696,-2.205 1.599,-2.205C0.993,-2.205 0.8,-1.769 0.8,-1.26L0.8,0.073L0,0.073L0,-2.883Z" style="fill:rgb(28,33,64);fill-rule:nonzero;"/>
            </g>
        </g>
        <g transform="matrix(8.33333,0,0,8.33333,0,0)">
            <g transform="matrix(1,0,0,1,0,-94.457)">
                <path d="M257.518,1764.96L256.718,1764.96L256.718,1764.28L257.518,1764.28L257.518,1764.96ZM256.719,1765.42L257.519,1765.42L257.519,1768.38L256.719,1768.38L256.719,1765.42Z" style="fill:rgb(28,33,64);fill-rule:nonzero;"/>
            </g>
        </g>
        <g transform="matrix(8.33333,0,0,8.33333,0,0)">
            <g transform="matrix(1,0,0,1,260.741,1673.85)">
                <path d="M0,-2.883L0.775,-2.883L0.775,-2.471L0.8,-2.471C0.993,-2.81 1.357,-2.956 1.696,-2.956C2.568,-2.956 2.786,-2.471 2.786,-1.744L2.786,0.073L1.987,0.073L1.987,-1.599C1.987,-2.083 1.841,-2.326 1.478,-2.326C1.042,-2.326 0.848,-2.083 0.848,-1.478L0.848,0.073L0,0.073L0,-2.883Z" style="fill:rgb(28,33,64);fill-rule:nonzero;"/>
            </g>
        </g>
        <g transform="matrix(8.33333,0,0,8.33333,0,0)">
            <g transform="matrix(1,0,0,1,269.56,1672.22)">
                <path d="M0,1.503C0,1.987 -0.17,2.811 -1.527,2.811C-2.108,2.811 -2.786,2.545 -2.835,1.866L-2.035,1.866C-1.962,2.181 -1.72,2.278 -1.43,2.278C-0.969,2.278 -0.775,1.964 -0.775,1.551L-0.775,1.164C-0.945,1.479 -1.309,1.624 -1.672,1.624C-2.568,1.624 -2.932,0.946 -2.932,0.146C-2.932,-0.629 -2.496,-1.308 -1.672,-1.308C-1.284,-1.308 -0.993,-1.186 -0.8,-0.823L-0.8,-1.211L-0.024,-1.211L-0.024,1.503L0,1.503ZM-0.775,0.17C-0.775,-0.315 -0.945,-0.75 -1.478,-0.75C-1.938,-0.75 -2.132,-0.338 -2.132,0.098C-2.132,0.51 -1.962,0.994 -1.478,0.994C-0.993,0.994 -0.775,0.607 -0.775,0.17" style="fill:rgb(28,33,64);fill-rule:nonzero;"/>
            </g>
        </g>
        <g transform="matrix(8.33333,0,0,8.33333,0,0)">
            <g transform="matrix(1,0,0,1,276.829,1671.64)">
                <path d="M0,2.641C-0.17,3.125 -0.461,3.319 -1.018,3.319C-1.187,3.319 -1.357,3.319 -1.527,3.295L-1.527,2.617C-1.381,2.617 -1.211,2.641 -1.042,2.641C-0.751,2.617 -0.679,2.326 -0.751,2.084L-1.793,-0.678L-0.921,-0.678L-0.242,1.332L0.412,-0.678L1.26,-0.678L0,2.641Z" style="fill:rgb(28,33,64);fill-rule:nonzero;"/>
            </g>
        </g>
        <g transform="matrix(8.33333,0,0,8.33333,0,0)">
            <g transform="matrix(1,0,0,1,282.354,1673.99)">
                <path d="M0,-3.102C0.921,-3.102 1.527,-2.496 1.527,-1.551C1.527,-0.606 0.921,0 0,0C-0.921,0 -1.527,-0.606 -1.527,-1.551C-1.527,-2.496 -0.921,-3.102 0,-3.102M0,-0.606C0.557,-0.606 0.727,-1.091 0.727,-1.551C0.727,-2.036 0.557,-2.496 0,-2.496C-0.557,-2.496 -0.703,-2.012 -0.703,-1.551C-0.703,-1.091 -0.557,-0.606 0,-0.606" style="fill:rgb(28,33,64);fill-rule:nonzero;"/>
            </g>
        </g>
        <g transform="matrix(8.33333,0,0,8.33333,0,0)">
            <g transform="matrix(1,0,0,1,289.768,1671.04)">
                <path d="M0,2.883L-0.775,2.883L-0.775,2.471L-0.8,2.471C-0.993,2.81 -1.357,2.956 -1.696,2.956C-2.568,2.956 -2.786,2.471 -2.786,1.744L-2.786,-0.073L-1.987,-0.073L-1.987,1.599C-1.987,2.083 -1.841,2.326 -1.478,2.326C-1.042,2.326 -0.848,2.083 -0.848,1.478L-0.848,-0.073L-0.048,-0.073L-0.048,2.883L0,2.883Z" style="fill:rgb(28,33,64);fill-rule:nonzero;"/>
            </g>
        </g>
        <g transform="matrix(8.33333,0,0,8.33333,0,0)">
            <g transform="matrix(1,0,0,1,292.966,1673.85)">
                <path d="M0,-2.883L0.775,-2.883L0.775,-2.471L0.8,-2.471C0.993,-2.81 1.357,-2.956 1.696,-2.956C2.568,-2.956 2.786,-2.471 2.786,-1.744L2.786,0.073L1.987,0.073L1.987,-1.599C1.987,-2.083 1.841,-2.326 1.478,-2.326C1.042,-2.326 0.848,-2.083 0.848,-1.478L0.848,0.073L0,0.073L0,-2.883Z" style="fill:rgb(28,33,64);fill-rule:nonzero;"/>
            </g>
        </g>
        <g transform="matrix(8.33333,0,0,8.33333,0,0)">
            <g transform="matrix(1,0,0,1,301.786,1672.22)">
                <path d="M0,1.503C0,1.987 -0.17,2.811 -1.527,2.811C-2.108,2.811 -2.786,2.545 -2.835,1.866L-2.035,1.866C-1.962,2.181 -1.72,2.278 -1.43,2.278C-0.969,2.278 -0.775,1.964 -0.775,1.551L-0.775,1.164C-0.945,1.479 -1.309,1.624 -1.672,1.624C-2.568,1.624 -2.932,0.946 -2.932,0.146C-2.932,-0.629 -2.496,-1.308 -1.672,-1.308C-1.284,-1.308 -0.993,-1.186 -0.8,-0.823L-0.8,-1.211L-0.024,-1.211L-0.024,1.503L0,1.503ZM-0.775,0.17C-0.775,-0.315 -0.945,-0.75 -1.478,-0.75C-1.938,-0.75 -2.132,-0.338 -2.132,0.098C-2.132,0.51 -1.962,0.994 -1.478,0.994C-1.018,0.994 -0.775,0.607 -0.775,0.17" style="fill:rgb(28,33,64);fill-rule:nonzero;"/>
            </g>
        </g>
        <g transform="matrix(8.33333,0,0,8.33333,0,0)">
            <g transform="matrix(1,0,0,1,307.601,1674.91)">
                <path d="M-0.024,-3.949L0.775,-3.949L0.775,-3.561C0.969,-3.876 1.284,-4.022 1.648,-4.022C2.568,-4.022 2.98,-3.271 2.98,-2.422C2.98,-1.623 2.544,-0.896 1.672,-0.896C1.309,-0.896 0.969,-1.042 0.775,-1.332L0.775,0.073L-0.024,0.073L-0.024,-3.949ZM2.18,-2.471C2.18,-2.931 1.987,-3.416 1.478,-3.416C0.945,-3.416 0.775,-2.931 0.775,-2.471C0.775,-2.011 0.969,-1.526 1.478,-1.526C2.011,-1.526 2.18,-1.987 2.18,-2.471" style="fill:rgb(28,33,64);fill-rule:nonzero;"/>
            </g>
        </g>
        <g transform="matrix(8.33333,0,0,8.33333,0,0)">
            <g transform="matrix(1,0,0,1,314.337,1672.25)">
                <path d="M0,0.388C0.024,0.897 0.266,1.139 0.727,1.139C1.042,1.139 1.309,0.945 1.357,0.752L2.059,0.752C1.841,1.454 1.357,1.745 0.678,1.745C-0.242,1.745 -0.824,1.115 -0.824,0.194C-0.824,-0.702 -0.218,-1.357 0.678,-1.357C1.696,-1.357 2.18,-0.508 2.108,0.388L0,0.388ZM1.332,-0.121C1.26,-0.533 1.09,-0.751 0.678,-0.751C0.17,-0.751 0.024,-0.339 0,-0.121L1.332,-0.121Z" style="fill:rgb(28,33,64);fill-rule:nonzero;"/>
            </g>
        </g>
        <g transform="matrix(8.33333,0,0,8.33333,0,0)">
            <g transform="matrix(1,0,0,1,320.975,1673.99)">
                <path d="M0,-3.102C0.921,-3.102 1.527,-2.496 1.527,-1.551C1.527,-0.606 0.921,0 0,0C-0.921,0 -1.527,-0.606 -1.527,-1.551C-1.527,-2.496 -0.921,-3.102 0,-3.102M0,-0.606C0.557,-0.606 0.727,-1.091 0.727,-1.551C0.727,-2.036 0.557,-2.496 0,-2.496C-0.557,-2.496 -0.703,-2.012 -0.703,-1.551C-0.727,-1.091 -0.557,-0.606 0,-0.606" style="fill:rgb(28,33,64);fill-rule:nonzero;"/>
            </g>
        </g>
        <g transform="matrix(8.33333,0,0,8.33333,0,0)">
            <g transform="matrix(1,0,0,1,325.603,1674.91)">
                <path d="M-0.024,-3.949L0.775,-3.949L0.775,-3.561C0.969,-3.876 1.284,-4.022 1.648,-4.022C2.568,-4.022 2.98,-3.271 2.98,-2.422C2.98,-1.623 2.544,-0.896 1.672,-0.896C1.309,-0.896 0.969,-1.042 0.775,-1.332L0.775,0.073L-0.024,0.073L-0.024,-3.949ZM2.205,-2.471C2.205,-2.931 2.011,-3.416 1.502,-3.416C0.969,-3.416 0.8,-2.931 0.8,-2.471C0.8,-2.011 0.993,-1.526 1.502,-1.526C2.035,-1.526 2.205,-1.987 2.205,-2.471" style="fill:rgb(28,33,64);fill-rule:nonzero;"/>
            </g>
        </g>
        <g transform="matrix(8.33333,0,0,8.33333,0,0)">
            <g transform="matrix(1,0,0,1,0,-94.431)">
                <rect x="331.709" y="1764.28" width="0.8" height="4.071" style="fill:rgb(28,33,64);"/>
            </g>
        </g>
        <g transform="matrix(8.33333,0,0,8.33333,0,0)">
            <g transform="matrix(1,0,0,1,336.41,1672.25)">
                <path d="M0,0.388C0.024,0.897 0.266,1.139 0.727,1.139C1.042,1.139 1.309,0.945 1.357,0.752L2.059,0.752C1.841,1.454 1.357,1.745 0.678,1.745C-0.242,1.745 -0.824,1.115 -0.824,0.194C-0.824,-0.702 -0.218,-1.357 0.678,-1.357C1.696,-1.357 2.18,-0.508 2.108,0.388L0,0.388ZM1.309,-0.121C1.236,-0.533 1.066,-0.751 0.654,-0.751C0.145,-0.751 0,-0.339 -0.024,-0.121L1.309,-0.121Z" style="fill:rgb(28,33,64);fill-rule:nonzero;"/>
            </g>
        </g>
    </g>
</svg>
