<?xml version="1.0" encoding="UTF-8" standalone="no"?>
<!DOCTYPE svg PUBLIC "-//W3C//DTD SVG 1.1//EN" "http://www.w3.org/Graphics/SVG/1.1/DTD/svg11.dtd">
<svg width="100%" height="100%" viewBox="0 0 660 140" version="1.1" xmlns="http://www.w3.org/2000/svg" xmlns:xlink="http://www.w3.org/1999/xlink" xml:space="preserve" xmlns:serif="http://www.serif.com/" style="fill-rule:evenodd;clip-rule:evenodd;stroke-linejoin:round;stroke-miterlimit:2;">
    <g transform="matrix(1,0,0,1,-4984.92,-13798.4)">
        <g transform="matrix(8.33333,0,0,8.33333,0,0)">
            <g transform="matrix(1,0,0,1,643.234,1661.03)">
                <path d="M0,5.907C0,6.726 -0.218,7.466 -0.654,8.127C-1.077,8.788 -1.692,9.31 -2.498,9.693C-3.304,10.076 -4.282,10.268 -5.431,10.268C-6.581,10.268 -7.572,10.076 -8.405,9.693C-9.224,9.297 -9.865,8.741 -10.327,8.028C-10.79,7.314 -11.054,6.488 -11.12,5.55L-8.9,5.55C-8.847,6.449 -8.537,7.169 -7.969,7.711C-7.387,8.253 -6.555,8.524 -5.471,8.524C-4.863,8.524 -4.321,8.431 -3.846,8.246C-3.37,8.061 -3,7.797 -2.735,7.453C-2.458,7.11 -2.319,6.693 -2.319,6.204C-2.319,5.61 -2.517,5.147 -2.914,4.817C-3.31,4.486 -3.918,4.235 -4.737,4.063L-6.799,3.667C-7.301,3.561 -7.784,3.416 -8.246,3.231C-8.695,3.046 -9.105,2.808 -9.475,2.517C-9.832,2.213 -10.116,1.843 -10.327,1.407C-10.526,0.958 -10.625,0.436 -10.625,-0.159C-10.625,-0.965 -10.413,-1.685 -9.991,-2.319C-9.554,-2.954 -8.96,-3.449 -8.206,-3.806C-7.44,-4.176 -6.561,-4.361 -5.57,-4.361C-4.579,-4.361 -3.694,-4.169 -2.914,-3.786C-2.121,-3.403 -1.487,-2.868 -1.011,-2.181C-0.522,-1.493 -0.251,-0.674 -0.198,0.277L-2.418,0.277C-2.458,-0.291 -2.617,-0.793 -2.894,-1.229C-3.158,-1.665 -3.515,-2.002 -3.965,-2.24C-4.414,-2.491 -4.942,-2.617 -5.55,-2.617C-6.158,-2.617 -6.674,-2.504 -7.096,-2.28C-7.519,-2.068 -7.843,-1.784 -8.068,-1.427C-8.292,-1.084 -8.405,-0.707 -8.405,-0.297C-8.405,0.152 -8.292,0.515 -8.068,0.793C-7.83,1.057 -7.519,1.268 -7.136,1.427C-6.753,1.586 -6.343,1.711 -5.907,1.804L-3.806,2.22C-2.577,2.471 -1.639,2.881 -0.991,3.449C-0.33,4.017 0,4.837 0,5.907" style="fill:rgb(28,33,64);fill-rule:nonzero;"/>
            </g>
        </g>
        <g transform="matrix(8.33333,0,0,8.33333,0,0)">
            <g transform="matrix(1,0,0,1,652.26,1656.87)">
                <path d="M0,14.232L-4.5,3.35L-4.5,14.232L-6.502,14.232L-6.502,0L-3.826,0L0.952,11.556L5.709,0L8.405,0L8.405,14.232L6.383,14.232L6.383,3.33L1.863,14.232L0,14.232Z" style="fill:rgb(28,33,64);fill-rule:nonzero;"/>
            </g>
        </g>
        <g transform="matrix(8.33333,0,0,8.33333,0,0)">
            <g transform="matrix(1,0,0,1,670.144,1658.53)">
                <path d="M0,10.903C0.753,10.903 1.434,10.764 2.042,10.487C2.65,10.209 3.172,9.819 3.608,9.317C4.057,8.815 4.394,8.234 4.619,7.573C4.856,6.899 4.975,6.185 4.975,5.432C4.975,4.679 4.856,3.972 4.619,3.311C4.394,2.65 4.057,2.075 3.608,1.586C3.172,1.084 2.65,0.695 2.042,0.417C1.434,0.139 0.753,0.001 0,0.001C-0.753,0.001 -1.434,0.139 -2.042,0.417C-2.65,0.695 -3.178,1.084 -3.628,1.586C-4.064,2.075 -4.401,2.65 -4.638,3.311C-4.863,3.972 -4.976,4.679 -4.976,5.432C-4.976,6.185 -4.863,6.899 -4.638,7.573C-4.401,8.234 -4.064,8.815 -3.628,9.317C-3.178,9.819 -2.65,10.209 -2.042,10.487C-1.434,10.764 -0.753,10.903 0,10.903M0,12.865C-1.031,12.865 -1.989,12.68 -2.874,12.31C-3.746,11.927 -4.513,11.399 -5.174,10.725C-5.821,10.051 -6.33,9.264 -6.7,8.366C-7.057,7.454 -7.235,6.476 -7.235,5.432C-7.235,4.388 -7.057,3.417 -6.7,2.518C-6.33,1.62 -5.821,0.84 -5.174,0.179C-4.513,-0.495 -3.746,-1.017 -2.874,-1.387C-1.989,-1.77 -1.031,-1.962 0,-1.962C1.031,-1.962 1.982,-1.77 2.854,-1.387C3.74,-1.017 4.506,-0.495 5.154,0.179C5.815,0.84 6.323,1.62 6.68,2.518C7.05,3.417 7.235,4.388 7.235,5.432C7.235,6.476 7.05,7.454 6.68,8.366C6.323,9.264 5.815,10.051 5.154,10.725C4.506,11.399 3.74,11.927 2.854,12.31C1.982,12.68 1.031,12.865 0,12.865" style="fill:rgb(28,33,64);fill-rule:nonzero;"/>
            </g>
        </g>
        <g transform="matrix(8.33333,0,0,8.33333,0,0)">
            <g transform="matrix(1,0,0,1,598.19,1668.32)">
                <path d="M0,-4.161C0,-5.796 0.173,-7.192 0.517,-8.35L2.374,-7.799C2.098,-6.869 1.937,-5.669 1.937,-4.161C1.937,-1.66 2.379,-0.037 3.025,0.933C3.631,1.843 4.461,2.252 5.543,2.252C6.415,2.252 7.003,2.119 7.629,1.74C8.307,1.329 9.083,0.601 10.246,-0.732L11.705,0.542C10.528,1.892 9.586,2.82 8.632,3.397C7.627,4.005 6.668,4.189 5.543,4.189C3.86,4.189 2.403,3.495 1.413,2.007C0.463,0.58 0,-1.488 0,-4.161" style="fill:rgb(28,33,64);"/>
            </g>
        </g>
        <g transform="matrix(8.33333,0,0,8.33333,0,0)">
            <g transform="matrix(1,0,0,1,618.236,1667.56)">
                <path d="M0,-10.956C1.005,-11.564 1.964,-11.748 3.089,-11.748C4.772,-11.748 6.229,-11.053 7.219,-9.566C8.169,-8.139 8.632,-6.071 8.632,-3.398C8.632,-1.763 8.459,-0.367 8.115,0.792L6.258,0.24C6.534,-0.69 6.694,-1.89 6.694,-3.398C6.694,-5.899 6.252,-7.522 5.606,-8.492C5.001,-9.402 4.171,-9.81 3.089,-9.81C2.217,-9.81 1.629,-9.677 1.003,-9.298C0.325,-8.888 -0.451,-8.159 -1.614,-6.827L-3.073,-8.101C-1.896,-9.451 -0.954,-10.379 0,-10.956" style="fill:rgb(28,33,64);"/>
            </g>
        </g>
        <g transform="matrix(8.33333,0,0,8.33333,0,0)">
            <g transform="matrix(1,0,0,1,600.65,1671.48)">
                <path d="M0,-14.648C0.886,-15.357 1.946,-15.674 3.083,-15.674C3.847,-15.674 4.554,-15.59 5.259,-15.327C5.964,-15.065 6.607,-14.646 7.281,-14.057C8.588,-12.914 10.159,-10.985 12.632,-7.934C15.158,-4.816 16.602,-3.055 17.752,-2.049C18.307,-1.564 18.752,-1.294 19.175,-1.136C19.597,-0.979 20.056,-0.911 20.675,-0.911C21.438,-0.911 22.054,-1.118 22.547,-1.512L23.758,-0C22.872,0.71 21.81,1.026 20.675,1.026C19.911,1.026 19.205,0.942 18.499,0.679C17.795,0.417 17.151,-0.002 16.477,-0.591C15.17,-1.734 13.599,-3.663 11.126,-6.714C8.6,-9.832 7.156,-11.593 6.006,-12.599C5.451,-13.084 5.006,-13.354 4.583,-13.512C4.161,-13.669 3.702,-13.737 3.083,-13.737C2.318,-13.737 1.704,-13.53 1.211,-13.136L0,-14.648Z" style="fill:rgb(28,33,64);"/>
            </g>
        </g>
    </g>
</svg>
