<?xml version="1.0" encoding="UTF-8" standalone="no"?>
<!DOCTYPE svg PUBLIC "-//W3C//DTD SVG 1.1//EN" "http://www.w3.org/Graphics/SVG/1.1/DTD/svg11.dtd">
<svg width="100%" height="100%" viewBox="0 0 478 280" version="1.1" xmlns="http://www.w3.org/2000/svg" xmlns:xlink="http://www.w3.org/1999/xlink" xml:space="preserve" xmlns:serif="http://www.serif.com/" style="fill-rule:evenodd;clip-rule:evenodd;stroke-linejoin:round;stroke-miterlimit:2;">
    <g transform="matrix(1,0,0,1,-4226.44,-13741.1)">
        <g transform="matrix(8.33333,0,0,8.33333,0,0)">
            <g transform="matrix(1,0,0,1,519.329,1648.94)">
                <path d="M0,24.29C-6.696,24.29 -12.156,18.841 -12.156,12.134C-12.156,5.427 -6.707,-0.011 0,-0.011C6.707,-0.011 12.156,5.438 12.156,12.145C12.156,18.852 6.707,24.301 0,24.301M0,0.678C-6.324,0.678 -11.467,5.821 -11.467,12.145C-11.467,18.469 -6.324,23.612 0,23.612C6.324,23.612 11.467,18.469 11.467,12.145C11.467,5.821 6.313,0.678 0,0.678" style="fill:rgb(28,33,64);fill-rule:nonzero;"/>
            </g>
        </g>
        <g transform="matrix(8.33333,0,0,8.33333,0,0)">
            <g transform="matrix(1,0,0,1,522.316,1654.65)">
                <path d="M0,2.856C0,1.28 -1.346,0 -2.998,0C-4.65,0 -5.996,1.28 -5.996,2.856L-5.307,2.856C-5.307,1.663 -4.267,0.689 -2.998,0.689C-1.729,0.689 -0.689,1.663 -0.689,2.856L0,2.856Z" style="fill:rgb(28,33,64);fill-rule:nonzero;"/>
            </g>
        </g>
        <g transform="matrix(8.33333,0,0,8.33333,0,0)">
            <g transform="matrix(1,0,0,1,516.757,1664.31)">
                <path d="M0,2.473C0.646,1.937 1.018,1.149 1.018,0.339C1.018,0.153 0.864,0 0.678,0C0.492,0 0.339,0.153 0.339,0.339C0.339,0.952 0.055,1.543 -0.427,1.948L0.011,2.473L0,2.473Z" style="fill:rgb(28,33,64);fill-rule:nonzero;"/>
            </g>
        </g>
        <g transform="matrix(8.33333,0,0,8.33333,0,0)">
            <g transform="matrix(1,0,0,1,522.327,1664.84)">
                <path d="M0,1.423C-0.492,1.007 -0.766,0.427 -0.766,-0.185C-0.766,-0.371 -0.919,-0.525 -1.105,-0.525C-1.291,-0.525 -1.444,-0.371 -1.444,-0.185C-1.444,0.635 -1.072,1.412 -0.427,1.948L0.011,1.423L0,1.423Z" style="fill:rgb(28,33,64);fill-rule:nonzero;"/>
            </g>
        </g>
        <g transform="matrix(8.33333,0,0,8.33333,0,0)">
            <g transform="matrix(1,0,0,1,521.212,1659.94)">
                <path d="M0,5.044C-0.186,5.044 -0.339,4.891 -0.339,4.705C-0.339,3.282 -0.142,2.155 0.055,1.072C0.12,0.722 0.175,0.372 0.23,0L0.908,0.109C0.853,0.481 0.788,0.831 0.722,1.193C0.525,2.298 0.339,3.348 0.339,4.705C0.339,4.891 0.186,5.044 0,5.044" style="fill:rgb(28,33,64);fill-rule:nonzero;"/>
            </g>
        </g>
        <g transform="matrix(8.33333,0,0,8.33333,0,0)">
            <g transform="matrix(1,0,0,1,517.425,1659.96)">
                <path d="M0,5.033C-0.186,5.033 -0.339,4.88 -0.339,4.694C-0.339,3.337 -0.525,2.287 -0.711,1.182C-0.777,0.82 -0.843,0.459 -0.897,0.098L-0.219,0C-0.164,0.361 -0.099,0.722 -0.044,1.072C0.142,2.155 0.339,3.282 0.339,4.694C0.339,4.88 0.186,5.033 0,5.033" style="fill:rgb(28,33,64);fill-rule:nonzero;"/>
            </g>
        </g>
        <g transform="matrix(8.33333,0,0,8.33333,0,0)">
            <g transform="matrix(1,0,0,1,519.329,1663.76)">
                <path d="M0,0.722C-0.219,0.722 -0.449,0.711 -0.667,0.689L-0.591,0C-0.208,0.044 0.197,0.044 0.591,0L0.667,0.689C0.449,0.711 0.219,0.722 0,0.722" style="fill:rgb(28,33,64);fill-rule:nonzero;"/>
            </g>
        </g>
        <g transform="matrix(8.33333,0,0,8.33333,0,0)">
            <g transform="matrix(1,0,0,1,522.644,1652.83)">
                <path d="M0,10.602C1.565,9.508 2.495,7.724 2.495,5.821C2.495,2.615 -0.12,0 -3.326,0C-6.532,0 -9.147,2.615 -9.147,5.821C-9.147,7.724 -8.217,9.519 -6.642,10.602L-6.248,10.033C-7.626,9.07 -8.458,7.495 -8.458,5.821C-8.458,2.987 -6.149,0.689 -3.326,0.689C-0.503,0.689 1.805,2.987 1.805,5.821C1.805,7.495 0.985,9.081 -0.394,10.033L0,10.602Z" style="fill:rgb(28,33,64);fill-rule:nonzero;"/>
            </g>
        </g>
        <g transform="matrix(8.33333,0,0,8.33333,0,0)">
            <g transform="matrix(1,0,0,1,519.329,1662.08)">
                <path d="M0,7.243C3.206,7.243 5.821,4.628 5.821,1.422C5.821,1.05 5.788,0.678 5.712,0.306C5.679,0.12 5.493,0 5.307,0.032C5.121,0.065 5,0.251 5.033,0.437C5.099,0.754 5.132,1.094 5.132,1.422C5.132,4.256 2.823,6.554 0,6.554C-2.823,6.554 -5.132,4.245 -5.132,1.422C-5.132,1.105 -5.099,0.787 -5.044,0.47L-5.722,0.339C-5.788,0.7 -5.821,1.061 -5.821,1.422C-5.821,4.628 -3.206,7.243 0,7.243" style="fill:rgb(28,33,64);fill-rule:nonzero;"/>
            </g>
        </g>
        <g transform="matrix(8.33333,0,0,8.33333,0,0)">
            <g transform="matrix(1,0,0,1,523.684,1658.13)">
                <path d="M0,1.509C-1.105,0.262 -2.692,-0.46 -4.366,-0.46C-6.04,-0.46 -7.626,0.262 -8.731,1.509L-8.217,1.969C-7.243,0.863 -5.843,0.229 -4.366,0.229C-2.889,0.229 -1.488,0.863 -0.514,1.969L0,1.509Z" style="fill:rgb(28,33,64);fill-rule:nonzero;"/>
            </g>
        </g>
        <g transform="matrix(8.33333,0,0,8.33333,0,0)">
            <g transform="matrix(1,0,0,1,526.769,1651.41)">
                <path d="M0,2.791C-1.915,0.723 -4.628,-0.47 -7.451,-0.47C-10.274,-0.47 -12.988,0.723 -14.902,2.791L-14.399,3.261C-12.616,1.336 -10.088,0.22 -7.462,0.22C-4.836,0.22 -2.309,1.325 -0.525,3.261L-0.022,2.791L0,2.791Z" style="fill:rgb(28,33,64);fill-rule:nonzero;"/>
            </g>
        </g>
        <g transform="matrix(8.33333,0,0,8.33333,0,0)">
            <g transform="matrix(1,0,0,1,519.329,1656.63)">
                <path d="M0,14.585C5.591,14.585 10.143,10.033 10.143,4.442C10.143,2.877 9.793,1.389 9.114,0L8.491,0.306C9.125,1.597 9.443,2.998 9.443,4.453C9.443,9.661 5.197,13.907 -0.011,13.907C-5.219,13.907 -9.464,9.672 -9.464,4.453C-9.464,2.998 -9.147,1.608 -8.513,0.306L-9.136,0C-9.815,1.389 -10.165,2.888 -10.165,4.442C-10.165,10.033 -5.613,14.585 -0.022,14.585" style="fill:rgb(28,33,64);fill-rule:nonzero;"/>
            </g>
        </g>
        <g transform="matrix(8.33333,0,0,8.33333,0,0)">
            <g transform="matrix(1,0,0,1,513.585,1655.6)">
                <path d="M0,10.942C-2.703,8.655 -1.029,3.677 -0.832,3.119C-0.492,2.178 -0.492,1.335 -0.81,0.679C-1.072,0.132 -1.554,-0.262 -2.177,-0.481C-2.352,-0.536 -2.549,-0.448 -2.615,-0.262C-2.681,-0.087 -2.582,0.11 -2.396,0.175C-1.937,0.329 -1.608,0.602 -1.422,0.985C-1.182,1.478 -1.204,2.134 -1.466,2.9C-1.685,3.502 -3.49,8.896 -0.427,11.478L0.022,10.953L0,10.942Z" style="fill:rgb(28,33,64);fill-rule:nonzero;"/>
            </g>
        </g>
        <g transform="matrix(8.33333,0,0,8.33333,0,0)">
            <g transform="matrix(1,0,0,1,508.387,1655)">
                <path d="M0,2.013C0,2.013 -0.098,2.013 -0.142,1.98C-0.317,1.904 -0.394,1.696 -0.317,1.521C0.088,0.623 1.116,0 2.199,0C2.473,0 2.746,0.044 3.009,0.12C3.195,0.175 3.293,0.372 3.239,0.547C3.184,0.733 2.987,0.831 2.812,0.777C2.615,0.722 2.418,0.689 2.21,0.689C1.401,0.689 0.624,1.148 0.328,1.805C0.274,1.936 0.142,2.013 0.011,2.013" style="fill:rgb(28,33,64);fill-rule:nonzero;"/>
            </g>
        </g>
        <g transform="matrix(8.33333,0,0,8.33333,0,0)">
            <g transform="matrix(1,0,0,1,525.073,1655.6)">
                <path d="M0,10.942C2.703,8.655 1.029,3.677 0.832,3.119C0.492,2.178 0.492,1.335 0.81,0.679C1.072,0.132 1.554,-0.262 2.177,-0.481C2.363,-0.536 2.549,-0.448 2.615,-0.262C2.681,-0.087 2.582,0.11 2.396,0.175C1.937,0.329 1.608,0.602 1.422,0.985C1.182,1.478 1.204,2.134 1.466,2.9C1.685,3.502 3.49,8.896 0.427,11.478L-0.022,10.953L0,10.942Z" style="fill:rgb(28,33,64);fill-rule:nonzero;"/>
            </g>
        </g>
        <g transform="matrix(8.33333,0,0,8.33333,0,0)">
            <g transform="matrix(1,0,0,1,530.281,1655)">
                <path d="M0,2.013C-0.131,2.013 -0.252,1.936 -0.317,1.805C-0.613,1.148 -1.389,0.689 -2.199,0.689C-2.407,0.689 -2.615,0.722 -2.801,0.777C-2.987,0.831 -3.173,0.733 -3.228,0.547C-3.282,0.361 -3.184,0.175 -2.998,0.12C-2.735,0.044 -2.473,0 -2.188,0C-1.116,0 -0.077,0.623 0.328,1.521C0.405,1.696 0.328,1.893 0.153,1.98C0.109,2.002 0.055,2.013 0.011,2.013" style="fill:rgb(28,33,64);fill-rule:nonzero;"/>
            </g>
        </g>
        <g transform="matrix(8.33333,0,0,8.33333,0,0)">
            <g transform="matrix(1,0,0,1,536.262,1651.79)">
                <path d="M-0.011,18.677L1.685,18.677C4.344,18.677 4.902,17.08 4.902,14.038L4.902,12.944C4.902,9.814 3.709,8.917 1.729,8.917L-0.011,8.917L-0.011,18.677ZM1.849,8.173C3.84,8.173 4.497,7.298 4.497,4.311L4.497,3.599C4.497,1.214 3.797,0.011 1.641,0.011L0.011,0.011L0.011,8.184L1.86,8.184L1.849,8.173ZM-0.821,-0.744L1.707,-0.744C4.311,-0.744 5.307,0.634 5.307,3.589L5.307,4.278C5.307,7.221 4.585,8.14 3.436,8.523C4.617,8.884 5.744,9.847 5.744,12.977L5.744,14.027C5.744,17.2 5.121,19.421 1.707,19.421L-0.821,19.421L-0.821,-0.744Z" style="fill:rgb(28,33,64);fill-rule:nonzero;"/>
            </g>
        </g>
        <g transform="matrix(8.33333,0,0,8.33333,0,0)">
            <g transform="matrix(1,0,0,1,544.02,1656.14)">
                <path d="M0,9.979L0,10.92C0,13.283 0.777,14.574 2.549,14.574C4.42,14.574 5.099,13.327 5.099,10.252C5.099,7.517 4.552,6.291 2.495,4.661C0.448,3.042 -0.438,2.002 -0.438,-1.006C-0.438,-3.468 0.317,-5.35 2.637,-5.339C4.738,-5.328 5.624,-4.037 5.624,-1.225L5.624,-0.438L4.803,-0.438L4.803,-1.203C4.803,-3.381 4.289,-4.584 2.615,-4.584C0.941,-4.584 0.394,-3.151 0.394,-1.105C0.394,1.39 0.853,2.276 2.779,3.819C5.23,5.766 5.93,6.981 5.93,10.198C5.93,12.846 5.493,15.329 2.549,15.329C-0.394,15.329 -0.832,13.108 -0.832,10.821L-0.832,9.99L-0.011,9.99L0,9.979Z" style="fill:rgb(28,33,64);fill-rule:nonzero;"/>
            </g>
        </g>
        <g transform="matrix(8.33333,0,0,8.33333,0,0)">
            <g transform="matrix(1,0,0,1,556.569,1659.66)">
                <path d="M0,2.943C-1.105,-3.48 -1.586,-6.489 -1.74,-7.889L-1.783,-7.889C-1.893,-6.39 -2.659,-1.948 -3.425,2.943L0,2.943ZM-3.567,3.687L-4.847,11.554L-5.668,11.554L-2.309,-8.611L-1.149,-8.611L2.331,11.554L1.477,11.554L0.142,3.687L-3.567,3.687Z" style="fill:rgb(28,33,64);fill-rule:nonzero;"/>
            </g>
        </g>
        <g transform="matrix(8.33333,0,0,8.33333,0,0)">
            <g transform="matrix(1,0,0,1,537.209,1673.89)">
                <path d="M0,3.373C-0.225,3.373 -0.437,3.331 -0.636,3.247C-0.834,3.159 -1.007,3.039 -1.154,2.886C-1.302,2.73 -1.418,2.549 -1.502,2.345C-1.583,2.14 -1.623,1.919 -1.623,1.682C-1.623,1.444 -1.583,1.225 -1.502,1.024C-1.418,0.819 -1.302,0.64 -1.154,0.487C-1.007,0.334 -0.834,0.215 -0.636,0.131C-0.437,0.044 -0.225,0 0,0C0.286,0 0.544,0.059 0.776,0.176C1.01,0.293 1.202,0.457 1.353,0.667C1.503,0.878 1.596,1.121 1.632,1.398L0.906,1.398C0.882,1.242 0.827,1.105 0.74,0.988C0.655,0.87 0.55,0.779 0.424,0.712C0.301,0.646 0.162,0.613 0.009,0.613C-0.132,0.613 -0.26,0.639 -0.374,0.69C-0.486,0.741 -0.583,0.815 -0.667,0.911C-0.749,1.007 -0.812,1.121 -0.857,1.254C-0.899,1.383 -0.92,1.526 -0.92,1.682C-0.92,1.841 -0.899,1.987 -0.857,2.119C-0.812,2.248 -0.749,2.361 -0.667,2.458C-0.583,2.554 -0.486,2.629 -0.374,2.683C-0.26,2.734 -0.132,2.76 0.009,2.76C0.162,2.76 0.302,2.727 0.428,2.66C0.555,2.591 0.658,2.498 0.74,2.381C0.824,2.261 0.879,2.124 0.906,1.971L1.632,1.971C1.593,2.25 1.499,2.495 1.348,2.706C1.198,2.916 1.007,3.08 0.776,3.197C0.544,3.314 0.286,3.373 0,3.373" style="fill:rgb(28,33,64);fill-rule:nonzero;"/>
            </g>
        </g>
        <g transform="matrix(8.33333,0,0,8.33333,0,0)">
            <g transform="matrix(1,0,0,1,541.976,1677.26)">
                <path d="M0,-3.305L0,-1.298C0,-1.043 -0.053,-0.817 -0.158,-0.622C-0.26,-0.426 -0.41,-0.273 -0.609,-0.162C-0.807,-0.054 -1.048,0 -1.33,0C-1.616,0 -1.858,-0.054 -2.056,-0.162C-2.255,-0.273 -2.406,-0.426 -2.512,-0.622C-2.614,-0.817 -2.665,-1.043 -2.665,-1.298L-2.665,-3.305L-1.979,-3.305L-1.979,-1.285C-1.979,-1.153 -1.957,-1.035 -1.912,-0.933C-1.867,-0.831 -1.798,-0.751 -1.705,-0.694C-1.608,-0.64 -1.484,-0.613 -1.33,-0.613C-1.18,-0.613 -1.058,-0.64 -0.965,-0.694C-0.869,-0.751 -0.798,-0.831 -0.753,-0.933C-0.708,-1.035 -0.685,-1.153 -0.685,-1.285L-0.685,-3.305L0,-3.305Z" style="fill:rgb(28,33,64);fill-rule:nonzero;"/>
            </g>
        </g>
        <g transform="matrix(8.33333,0,0,8.33333,0,0)">
            <g transform="matrix(1,0,0,1,544.724,1673.96)">
                <path d="M0,3.238L-2.092,3.238L-2.092,0L-1.407,0L-1.407,2.62L0,2.62L0,3.238Z" style="fill:rgb(28,33,64);fill-rule:nonzero;"/>
            </g>
        </g>
        <g transform="matrix(8.33333,0,0,8.33333,0,0)">
            <g transform="matrix(1,0,0,1,546.259,1673.96)">
                <path d="M0,3.238L-0.685,3.238L-0.685,0.618L-1.705,0.618L-1.705,0L1.024,0L1.024,0.618L0,0.618L0,3.238Z" style="fill:rgb(28,33,64);fill-rule:nonzero;"/>
            </g>
        </g>
        <g transform="matrix(8.33333,0,0,8.33333,0,0)">
            <g transform="matrix(1,0,0,1,550.347,1677.26)">
                <path d="M0,-3.305L0,-1.298C0,-1.043 -0.053,-0.817 -0.158,-0.622C-0.26,-0.426 -0.41,-0.273 -0.609,-0.162C-0.807,-0.054 -1.048,0 -1.33,0C-1.616,0 -1.858,-0.054 -2.056,-0.162C-2.255,-0.273 -2.407,-0.426 -2.512,-0.622C-2.614,-0.817 -2.665,-1.043 -2.665,-1.298L-2.665,-3.305L-1.98,-3.305L-1.98,-1.285C-1.98,-1.153 -1.957,-1.035 -1.912,-0.933C-1.867,-0.831 -1.798,-0.751 -1.705,-0.694C-1.608,-0.64 -1.484,-0.613 -1.33,-0.613C-1.18,-0.613 -1.058,-0.64 -0.965,-0.694C-0.869,-0.751 -0.798,-0.831 -0.753,-0.933C-0.708,-1.035 -0.685,-1.153 -0.685,-1.285L-0.685,-3.305L0,-3.305Z" style="fill:rgb(28,33,64);fill-rule:nonzero;"/>
            </g>
        </g>
        <g transform="matrix(8.33333,0,0,8.33333,0,0)">
            <g transform="matrix(1,0,0,1,551.688,1676.63)">
                <path d="M0,-2.101L0,-1.141L0.55,-1.141C0.758,-1.141 0.915,-1.18 1.024,-1.258C1.132,-1.339 1.186,-1.459 1.186,-1.618C1.186,-1.781 1.132,-1.901 1.024,-1.979C0.915,-2.06 0.758,-2.101 0.55,-2.101L0,-2.101ZM0,0.568L-0.685,0.568L-0.685,-2.669L0.582,-2.669C0.991,-2.669 1.308,-2.578 1.533,-2.394C1.759,-2.214 1.871,-1.955 1.871,-1.618C1.871,-1.402 1.807,-1.21 1.678,-1.041C1.551,-0.876 1.372,-0.756 1.141,-0.681L1.975,0.568L1.159,0.568L0.428,-0.577L0,-0.577L0,0.568Z" style="fill:rgb(28,33,64);fill-rule:nonzero;"/>
            </g>
        </g>
        <g transform="matrix(8.33333,0,0,8.33333,0,0)">
            <g transform="matrix(1,0,0,1,556.232,1673.96)">
                <path d="M0,3.238L-0.866,0.749L-1.75,3.238L-2.44,3.238L-1.222,0L-0.473,0L0.735,3.238L0,3.238ZM-1.583,1.998L-0.149,1.998L0.032,2.544L-1.781,2.544L-1.583,1.998Z" style="fill:rgb(28,33,64);fill-rule:nonzero;"/>
            </g>
        </g>
        <g transform="matrix(8.33333,0,0,8.33333,0,0)">
            <g transform="matrix(1,0,0,1,559.454,1673.96)">
                <path d="M0,3.238L-2.092,3.238L-2.092,0L-1.407,0L-1.407,2.62L0,2.62L0,3.238Z" style="fill:rgb(28,33,64);fill-rule:nonzero;"/>
            </g>
        </g>
        <g transform="matrix(8.33333,0,0,8.33333,0,0)">
            <g transform="matrix(-1,0,0,1,1072.23,-76.604)">
                <rect x="535.775" y="1755.78" width="0.685" height="3.238" style="fill:rgb(28,33,64);"/>
            </g>
        </g>
        <g transform="matrix(8.33333,0,0,8.33333,0,0)">
            <g transform="matrix(1,0,0,1,539.233,1679.18)">
                <path d="M0,3.238L-1.483,0.979L-1.483,3.238L-2.11,3.238L-2.11,0L-1.371,0L0.041,2.147L0.041,0L0.672,0L0.672,3.238L0,3.238Z" style="fill:rgb(28,33,64);fill-rule:nonzero;"/>
            </g>
        </g>
        <g transform="matrix(8.33333,0,0,8.33333,0,0)">
            <g transform="matrix(1,0,0,1,543.055,1680.19)">
                <path d="M0,1.222C0,1.427 -0.053,1.608 -0.158,1.768C-0.263,1.924 -0.413,2.047 -0.609,2.137C-0.801,2.228 -1.034,2.273 -1.308,2.273C-1.578,2.273 -1.814,2.228 -2.016,2.137C-2.214,2.044 -2.37,1.913 -2.485,1.745C-2.599,1.577 -2.665,1.378 -2.683,1.15L-1.989,1.15C-1.98,1.33 -1.919,1.473 -1.808,1.578C-1.694,1.684 -1.532,1.736 -1.321,1.736C-1.204,1.736 -1.102,1.72 -1.015,1.687C-0.924,1.653 -0.854,1.605 -0.803,1.542C-0.752,1.479 -0.726,1.405 -0.726,1.321C-0.726,1.219 -0.764,1.138 -0.839,1.078C-0.914,1.015 -1.021,0.97 -1.159,0.942L-1.691,0.839C-1.814,0.818 -1.928,0.783 -2.034,0.735C-2.139,0.687 -2.231,0.627 -2.309,0.555C-2.387,0.483 -2.449,0.395 -2.494,0.293C-2.539,0.191 -2.561,0.074 -2.561,-0.059C-2.561,-0.251 -2.51,-0.422 -2.408,-0.573C-2.303,-0.723 -2.16,-0.84 -1.98,-0.924C-1.796,-1.008 -1.587,-1.051 -1.353,-1.051C-1.109,-1.051 -0.893,-1.006 -0.703,-0.915C-0.514,-0.825 -0.361,-0.697 -0.243,-0.532C-0.126,-0.37 -0.062,-0.176 -0.05,0.05L-0.744,0.05C-0.75,-0.065 -0.78,-0.164 -0.834,-0.248C-0.885,-0.335 -0.954,-0.401 -1.042,-0.446C-1.129,-0.494 -1.23,-0.518 -1.344,-0.518C-1.455,-0.518 -1.55,-0.499 -1.628,-0.46C-1.703,-0.424 -1.762,-0.374 -1.804,-0.311C-1.846,-0.251 -1.867,-0.182 -1.867,-0.104C-1.867,-0.032 -1.847,0.029 -1.808,0.077C-1.766,0.125 -1.712,0.164 -1.646,0.194C-1.58,0.221 -1.508,0.242 -1.429,0.257L-0.875,0.37C-0.589,0.427 -0.373,0.525 -0.225,0.663C-0.075,0.798 0,0.985 0,1.222" style="fill:rgb(28,33,64);fill-rule:nonzero;"/>
            </g>
        </g>
        <g transform="matrix(8.33333,0,0,8.33333,0,0)">
            <g transform="matrix(1,0,0,1,544.911,1679.18)">
                <path d="M0,3.238L-0.685,3.238L-0.685,0.618L-1.705,0.618L-1.705,0L1.024,0L1.024,0.618L0,0.618L0,3.238Z" style="fill:rgb(28,33,64);fill-rule:nonzero;"/>
            </g>
        </g>
        <g transform="matrix(8.33333,0,0,8.33333,0,0)">
            <g transform="matrix(-1,0,0,1,1093.37,-76.604)">
                <rect x="546.344" y="1755.78" width="0.685" height="3.238" style="fill:rgb(28,33,64);"/>
            </g>
        </g>
        <g transform="matrix(8.33333,0,0,8.33333,0,0)">
            <g transform="matrix(1,0,0,1,549.139,1679.18)">
                <path d="M0,3.238L-0.685,3.238L-0.685,0.618L-1.705,0.618L-1.705,0L1.024,0L1.024,0.618L0,0.618L0,3.238Z" style="fill:rgb(28,33,64);fill-rule:nonzero;"/>
            </g>
        </g>
        <g transform="matrix(8.33333,0,0,8.33333,0,0)">
            <g transform="matrix(1,0,0,1,553.227,1682.48)">
                <path d="M0,-3.305L0,-1.298C0,-1.043 -0.053,-0.817 -0.158,-0.622C-0.26,-0.426 -0.41,-0.273 -0.609,-0.162C-0.807,-0.054 -1.048,0 -1.33,0C-1.616,0 -1.858,-0.054 -2.056,-0.162C-2.255,-0.273 -2.407,-0.426 -2.512,-0.622C-2.614,-0.817 -2.665,-1.043 -2.665,-1.298L-2.665,-3.305L-1.98,-3.305L-1.98,-1.285C-1.98,-1.153 -1.957,-1.035 -1.912,-0.933C-1.867,-0.831 -1.798,-0.751 -1.705,-0.694C-1.608,-0.64 -1.484,-0.613 -1.33,-0.613C-1.18,-0.613 -1.058,-0.64 -0.965,-0.694C-0.869,-0.751 -0.798,-0.831 -0.753,-0.933C-0.708,-1.035 -0.685,-1.153 -0.685,-1.285L-0.685,-3.305L0,-3.305Z" style="fill:rgb(28,33,64);fill-rule:nonzero;"/>
            </g>
        </g>
        <g transform="matrix(8.33333,0,0,8.33333,0,0)">
            <g transform="matrix(1,0,0,1,555.33,1679.18)">
                <path d="M0,3.238L-0.685,3.238L-0.685,0.618L-1.705,0.618L-1.705,0L1.024,0L1.024,0.618L0,0.618L0,3.238Z" style="fill:rgb(28,33,64);fill-rule:nonzero;"/>
            </g>
        </g>
        <g transform="matrix(8.33333,0,0,8.33333,0,0)">
            <g transform="matrix(-1,0,0,1,1114.21,-76.604)">
                <rect x="556.763" y="1755.78" width="0.685" height="3.238" style="fill:rgb(28,33,64);"/>
            </g>
        </g>
        <g transform="matrix(8.33333,0,0,8.33333,0,0)">
            <g transform="matrix(1,0,0,1,559.576,1679.72)">
                <path d="M0,2.147C0.147,2.147 0.28,2.12 0.397,2.066C0.517,2.009 0.618,1.931 0.699,1.831C0.783,1.732 0.846,1.618 0.888,1.489C0.933,1.356 0.956,1.216 0.956,1.069C0.956,0.922 0.933,0.784 0.888,0.654C0.846,0.525 0.783,0.412 0.699,0.316C0.618,0.217 0.517,0.14 0.397,0.086C0.28,0.029 0.147,0.001 0,0.001C-0.147,0.001 -0.279,0.029 -0.397,0.086C-0.514,0.14 -0.615,0.217 -0.699,0.316C-0.78,0.412 -0.843,0.525 -0.888,0.654C-0.93,0.784 -0.951,0.922 -0.951,1.069C-0.951,1.216 -0.93,1.356 -0.888,1.489C-0.843,1.618 -0.78,1.732 -0.699,1.831C-0.615,1.931 -0.514,2.009 -0.397,2.066C-0.279,2.12 -0.147,2.147 0,2.147M0,2.76C-0.234,2.76 -0.453,2.718 -0.654,2.634C-0.852,2.55 -1.027,2.433 -1.177,2.282C-1.327,2.129 -1.444,1.95 -1.529,1.746C-1.613,1.538 -1.655,1.313 -1.655,1.069C-1.655,0.826 -1.613,0.602 -1.529,0.397C-1.444,0.193 -1.327,0.016 -1.177,-0.135C-1.027,-0.285 -0.852,-0.402 -0.654,-0.486C-0.453,-0.571 -0.234,-0.613 0,-0.613C0.235,-0.613 0.452,-0.571 0.654,-0.486C0.855,-0.402 1.031,-0.285 1.182,-0.135C1.335,0.016 1.454,0.193 1.538,0.397C1.622,0.602 1.664,0.826 1.664,1.069C1.664,1.313 1.622,1.538 1.538,1.746C1.454,1.95 1.335,2.129 1.182,2.282C1.031,2.433 0.855,2.55 0.654,2.634C0.452,2.718 0.235,2.76 0,2.76" style="fill:rgb(28,33,64);fill-rule:nonzero;"/>
            </g>
        </g>
        <g transform="matrix(8.33333,0,0,8.33333,0,0)">
            <g transform="matrix(1,0,0,1,563.823,1679.18)">
                <path d="M0,3.238L-1.484,0.979L-1.484,3.238L-2.11,3.238L-2.11,0L-1.371,0L0.041,2.147L0.041,0L0.672,0L0.672,3.238L0,3.238Z" style="fill:rgb(28,33,64);fill-rule:nonzero;"/>
            </g>
        </g>
    </g>
</svg>
