<?xml version="1.0" encoding="UTF-8" standalone="no"?>
<!DOCTYPE svg PUBLIC "-//W3C//DTD SVG 1.1//EN" "http://www.w3.org/Graphics/SVG/1.1/DTD/svg11.dtd">
<svg width="100%" height="100%" viewBox="0 0 1010 226" version="1.1" xmlns="http://www.w3.org/2000/svg" xmlns:xlink="http://www.w3.org/1999/xlink" xml:space="preserve" xmlns:serif="http://www.serif.com/" style="fill-rule:evenodd;clip-rule:evenodd;stroke-linejoin:round;stroke-miterlimit:2;">
    <g transform="matrix(1,0,0,1,-2998.85,-13768.3)">
        <g transform="matrix(8.33333,0,0,8.33333,0,0)">
            <g transform="matrix(1,0,0,1,375.166,1669.57)">
                <path d="M0,-15.52C-2.531,-16.797 -5.061,-17.376 -7.64,-17.376C-10.484,-17.376 -12.821,-16.725 -15.304,-15.52L-14.774,-6.965C-14.509,-2.699 -11.568,0.747 -7.64,1.856C-3.567,0.675 -0.795,-2.843 -0.53,-6.965L0,-15.52ZM-7.64,-10.676L-6.097,-7.567L-5.013,-9.013L-2.41,-5.567C-2.531,-4.748 -3.061,-4.241 -4.121,-4.241C-4.892,-4.241 -4.989,-4.699 -5.905,-4.699C-6.796,-4.699 -6.893,-4.241 -7.64,-4.241C-8.459,-4.241 -8.507,-4.699 -9.423,-4.699C-10.291,-4.699 -10.436,-4.241 -11.183,-4.241C-12.267,-4.241 -12.701,-4.651 -12.894,-5.543L-10.291,-9.013L-9.206,-7.567L-7.64,-10.676ZM-5.905,-3.494C-6.724,-3.494 -6.796,-3.013 -7.664,-3.013C-8.483,-3.013 -8.604,-3.494 -9.423,-3.494C-10.291,-3.494 -10.267,-3.036 -11.183,-3.036C-11.4,-3.036 -11.616,-3.085 -11.833,-3.157C-11.978,-3.373 -12.098,-3.615 -12.219,-3.831C-11.93,-3.711 -11.641,-3.543 -11.183,-3.543C-10.363,-3.543 -10.267,-4.001 -9.423,-4.001C-8.556,-4.001 -8.532,-3.543 -7.664,-3.543C-6.796,-3.543 -6.724,-4.001 -5.905,-4.001C-5.037,-4.001 -4.989,-3.543 -4.121,-3.543C-3.736,-3.543 -3.398,-3.663 -3.085,-3.808C-3.229,-3.566 -3.326,-3.398 -3.47,-3.157C-3.663,-3.085 -3.88,-3.013 -4.121,-3.013C-4.989,-3.013 -5.061,-3.494 -5.905,-3.494M-4.073,-2.338C-5.061,-1.18 -6.266,-0.361 -7.64,0.121C-9.086,-0.386 -10.291,-1.253 -11.231,-2.338C-10.219,-2.338 -10.195,-2.796 -9.423,-2.796C-8.676,-2.796 -8.532,-2.338 -7.64,-2.338C-6.724,-2.338 -6.7,-2.796 -5.905,-2.796C-5.085,-2.796 -5.061,-2.338 -4.073,-2.338M-0.603,-15.183L-1.109,-7.013C-1.35,-3.085 -4.049,0.169 -7.64,1.254C-11.327,0.169 -13.954,-3.157 -14.195,-7.013L-14.701,-15.183C-14.581,-15.255 -14.364,-15.327 -14.219,-15.4L-13.689,-7.037C-13.448,-3.35 -10.99,-0.361 -7.64,0.724C-4.097,-0.458 -1.832,-3.543 -1.615,-7.037L-1.085,-15.4C-0.892,-15.327 -0.747,-15.255 -0.603,-15.183M-7.64,-13.713L-7.375,-13.11L-6.724,-13.182L-7.11,-12.652L-6.724,-12.122L-7.375,-12.194L-7.64,-11.568L-7.905,-12.194L-8.604,-12.122L-8.17,-12.652L-8.58,-13.182L-7.905,-13.11L-7.64,-13.713ZM-9.52,-16.195L-9.255,-15.592L-8.604,-15.665L-8.989,-15.134L-8.604,-14.604L-9.255,-14.676L-9.52,-14.05L-9.785,-14.676L-10.484,-14.604L-10.05,-15.134L-10.46,-15.665L-9.785,-15.592L-9.52,-16.195ZM-5.808,-16.195L-5.543,-15.592L-4.892,-15.665L-5.278,-15.134L-4.892,-14.604L-5.543,-14.676L-5.808,-14.05L-6.073,-14.676L-6.772,-14.604L-6.338,-15.134L-6.748,-15.665L-6.073,-15.592L-5.808,-16.195Z" style="fill:rgb(28,33,64);fill-rule:nonzero;"/>
            </g>
        </g>
        <g transform="matrix(8.33333,0,0,8.33333,0,0)">
            <g transform="matrix(1,0,0,1,391.336,1654.09)">
                <path d="M0,5.752L-0.611,5.752L-0.611,0L1.229,0C1.556,0 1.84,0.027 2.081,0.08C2.322,0.134 2.521,0.222 2.679,0.345C2.837,0.468 2.954,0.632 3.029,0.835C3.103,1.039 3.141,1.288 3.141,1.583C3.141,2.07 3.042,2.441 2.844,2.695C2.645,2.95 2.338,3.115 1.92,3.189L3.262,5.752L2.563,5.752L1.277,3.254L0,3.254L0,5.752ZM0,2.739L1.181,2.739C1.4,2.739 1.593,2.726 1.759,2.699C1.925,2.673 2.065,2.619 2.177,2.538C2.29,2.457 2.376,2.343 2.434,2.195C2.494,2.048 2.523,1.855 2.523,1.619C2.523,1.387 2.494,1.201 2.438,1.059C2.382,0.916 2.298,0.804 2.189,0.724C2.079,0.643 1.94,0.588 1.771,0.558C1.603,0.529 1.406,0.514 1.181,0.514L0,0.514L0,2.739Z" style="fill:rgb(28,33,64);fill-rule:nonzero;"/>
            </g>
        </g>
        <g transform="matrix(8.33333,0,0,8.33333,0,0)">
            <g transform="matrix(1,0,0,1,395.738,1654.09)">
                <path d="M0,5.752L0,0L3.446,0L3.446,0.514L0.611,0.514L0.611,2.595L3.069,2.595L3.069,3.109L0.611,3.109L0.611,5.238L3.446,5.238L3.446,5.752L0,5.752Z" style="fill:rgb(28,33,64);fill-rule:nonzero;"/>
            </g>
        </g>
        <g transform="matrix(8.33333,0,0,8.33333,0,0)">
            <g transform="matrix(1,0,0,1,401.016,1654.09)">
                <path d="M0,5.752L-0.611,5.752L-0.611,0L1.189,0C1.516,0 1.799,0.028 2.04,0.084C2.281,0.141 2.481,0.233 2.639,0.361C2.796,0.49 2.913,0.659 2.988,0.868C3.063,1.076 3.101,1.336 3.101,1.647C3.101,2.273 2.947,2.719 2.639,2.984C2.331,3.25 1.848,3.382 1.189,3.382L0,3.382L0,5.752ZM0,2.868L1.141,2.868C1.36,2.868 1.553,2.853 1.719,2.824C1.885,2.794 2.024,2.738 2.137,2.654C2.249,2.571 2.335,2.453 2.394,2.299C2.453,2.147 2.482,1.943 2.482,1.691C2.482,1.449 2.454,1.253 2.398,1.102C2.342,0.952 2.259,0.834 2.149,0.748C2.039,0.662 1.9,0.604 1.731,0.574C1.562,0.545 1.366,0.53 1.141,0.53L0,0.53L0,2.868Z" style="fill:rgb(28,33,64);fill-rule:nonzero;"/>
            </g>
        </g>
        <g transform="matrix(8.33333,0,0,8.33333,0,0)">
            <g transform="matrix(1,0,0,1,408.929,1656.18)">
                <path d="M0,1.655C0,2.025 -0.046,2.342 -0.137,2.607C-0.228,2.872 -0.362,3.089 -0.538,3.258C-0.715,3.426 -0.929,3.551 -1.181,3.631C-1.433,3.712 -1.719,3.752 -2.04,3.752C-2.661,3.752 -3.143,3.593 -3.483,3.274C-3.822,2.956 -3.993,2.445 -3.993,1.743L-3.993,-2.097L-3.382,-2.097L-3.382,1.679C-3.382,2.231 -3.268,2.625 -3.041,2.864C-2.813,3.103 -2.466,3.222 -2,3.222C-1.54,3.222 -1.193,3.101 -0.96,2.86C-0.727,2.619 -0.611,2.225 -0.611,1.679L-0.611,-2.097L0,-2.097L0,1.655Z" style="fill:rgb(28,33,64);fill-rule:nonzero;"/>
            </g>
        </g>
        <g transform="matrix(8.33333,0,0,8.33333,0,0)">
            <g transform="matrix(1,0,0,1,414.143,1655.66)">
                <path d="M0,2.614C0,3.156 -0.151,3.553 -0.454,3.805C-0.756,4.057 -1.248,4.183 -1.928,4.183L-3.76,4.183L-3.76,-1.569L-1.928,-1.569C-1.28,-1.569 -0.814,-1.444 -0.53,-1.196C-0.247,-0.947 -0.104,-0.574 -0.104,-0.077C-0.104,0.581 -0.34,1.008 -0.811,1.207L-0.811,1.239C-0.533,1.346 -0.328,1.505 -0.197,1.718C-0.066,1.929 0,2.228 0,2.614M-0.723,-0.027C-0.723,-0.423 -0.823,-0.693 -1.024,-0.838C-1.225,-0.983 -1.505,-1.055 -1.864,-1.055L-3.149,-1.055L-3.149,0.994L-1.864,0.994C-1.51,0.994 -1.232,0.921 -1.028,0.773C-0.825,0.626 -0.723,0.359 -0.723,-0.027M-0.619,2.58C-0.619,2.21 -0.715,1.938 -0.908,1.766C-1.101,1.594 -1.395,1.508 -1.791,1.508L-3.149,1.508L-3.149,3.669L-1.791,3.669C-1.395,3.669 -1.101,3.582 -0.908,3.407C-0.715,3.233 -0.619,2.957 -0.619,2.58" style="fill:rgb(28,33,64);fill-rule:nonzero;"/>
            </g>
        </g>
        <g transform="matrix(8.33333,0,0,8.33333,0,0)">
            <g transform="matrix(1,0,0,1,415.38,1654.09)">
                <path d="M0,5.752L0,0L0.611,0L0.611,5.238L3.294,5.238L3.294,5.752L0,5.752Z" style="fill:rgb(28,33,64);fill-rule:nonzero;"/>
            </g>
        </g>
        <g transform="matrix(8.33333,0,0,8.33333,0,0)">
            <g transform="matrix(1,0,0,1,0,-124.274)">
                <rect x="419.67" y="1778.36" width="0.611" height="5.752" style="fill:rgb(28,33,64);"/>
            </g>
        </g>
        <g transform="matrix(8.33333,0,0,8.33333,0,0)">
            <g transform="matrix(1,0,0,1,425.1,1659.17)">
                <path d="M0,-4.419C-0.171,-4.488 -0.356,-4.544 -0.554,-4.584C-0.753,-4.624 -0.972,-4.644 -1.213,-4.644C-1.497,-4.644 -1.746,-4.605 -1.96,-4.528C-2.175,-4.45 -2.351,-4.317 -2.49,-4.13C-2.629,-3.942 -2.734,-3.694 -2.804,-3.383C-2.874,-3.072 -2.908,-2.681 -2.908,-2.21C-2.908,-1.738 -2.872,-1.347 -2.8,-1.037C-2.727,-0.726 -2.617,-0.479 -2.47,-0.294C-2.323,-0.109 -2.135,0.022 -1.908,0.1C-1.68,0.178 -1.408,0.216 -1.093,0.216C-0.888,0.216 -0.691,0.2 -0.498,0.168C-0.305,0.136 -0.123,0.083 0.048,0.007L0.169,0.498C-0.018,0.578 -0.233,0.642 -0.474,0.69C-0.715,0.738 -0.98,0.763 -1.269,0.763C-1.66,0.763 -1.999,0.708 -2.286,0.598C-2.572,0.488 -2.809,0.314 -2.995,0.076C-3.18,-0.163 -3.32,-0.468 -3.413,-0.84C-3.504,-1.212 -3.551,-1.664 -3.551,-2.194C-3.551,-2.724 -3.506,-3.178 -3.417,-3.555C-3.327,-3.933 -3.189,-4.242 -3.003,-4.483C-2.817,-4.724 -2.581,-4.901 -2.298,-5.013C-2.013,-5.126 -1.676,-5.182 -1.285,-5.182C-1.012,-5.182 -0.754,-5.161 -0.51,-5.118C-0.267,-5.075 -0.062,-5.013 0.104,-4.933L0,-4.419Z" style="fill:rgb(28,33,64);fill-rule:nonzero;"/>
            </g>
        </g>
        <g transform="matrix(8.33333,0,0,8.33333,0,0)">
            <g transform="matrix(1,0,0,1,430.298,1653.99)">
                <path d="M0,5.945C-0.375,5.945 -0.702,5.895 -0.98,5.796C-1.259,5.697 -1.489,5.533 -1.671,5.302C-1.853,5.072 -1.99,4.768 -2.081,4.39C-2.171,4.013 -2.217,3.545 -2.217,2.989C-2.217,2.431 -2.171,1.961 -2.081,1.579C-1.99,1.195 -1.853,0.888 -1.671,0.655C-1.489,0.422 -1.259,0.254 -0.98,0.153C-0.702,0.051 -0.375,0 0,0C0.37,0 0.693,0.051 0.968,0.153C1.244,0.254 1.473,0.42 1.655,0.651C1.836,0.881 1.973,1.187 2.065,1.567C2.155,1.947 2.201,2.413 2.201,2.965C2.201,3.527 2.157,3.998 2.069,4.378C1.98,4.758 1.846,5.065 1.667,5.298C1.487,5.531 1.259,5.697 0.98,5.796C0.701,5.895 0.375,5.945 0,5.945M-0.008,5.407C0.292,5.407 0.542,5.362 0.743,5.274C0.944,5.186 1.105,5.044 1.225,4.848C1.346,4.653 1.432,4.4 1.482,4.089C1.533,3.778 1.559,3.401 1.559,2.956C1.559,2.507 1.533,2.127 1.482,1.82C1.432,1.511 1.346,1.262 1.225,1.073C1.105,0.882 0.944,0.746 0.743,0.663C0.542,0.58 0.292,0.538 -0.008,0.538C-0.308,0.538 -0.558,0.58 -0.759,0.663C-0.96,0.746 -1.121,0.882 -1.241,1.073C-1.362,1.262 -1.448,1.511 -1.498,1.82C-1.549,2.127 -1.575,2.507 -1.575,2.956C-1.575,3.401 -1.549,3.778 -1.498,4.089C-1.448,4.4 -1.362,4.653 -1.241,4.848C-1.121,5.044 -0.96,5.186 -0.759,5.274C-0.558,5.362 -0.308,5.407 -0.008,5.407" style="fill:rgb(28,33,64);fill-rule:nonzero;"/>
            </g>
        </g>
        <g transform="matrix(8.33333,0,0,8.33333,0,0)">
            <g transform="matrix(1,0,0,1,434.387,1659.32)">
                <path d="M0,-4.724L0,-2.571L2.386,-2.571L2.386,-2.057L0,-2.057L0,0.514L-0.611,0.514L-0.611,-5.238L2.764,-5.238L2.764,-4.724L0,-4.724Z" style="fill:rgb(28,33,64);fill-rule:nonzero;"/>
            </g>
        </g>
        <g transform="matrix(8.33333,0,0,8.33333,0,0)">
            <g transform="matrix(1,0,0,1,443.184,1655.61)">
                <path d="M0,2.715C0,3.004 -0.034,3.252 -0.1,3.458C-0.168,3.665 -0.278,3.832 -0.43,3.96C-0.583,4.089 -0.78,4.183 -1.021,4.241C-1.261,4.301 -1.554,4.33 -1.896,4.33C-2.201,4.33 -2.48,4.308 -2.731,4.265C-2.984,4.223 -3.23,4.155 -3.47,4.065L-3.342,3.542C-3.118,3.623 -2.874,3.685 -2.616,3.731C-2.355,3.777 -2.092,3.799 -1.824,3.799C-1.615,3.799 -1.436,3.785 -1.286,3.755C-1.136,3.726 -1.011,3.673 -0.912,3.595C-0.813,3.517 -0.739,3.412 -0.691,3.277C-0.643,3.144 -0.619,2.975 -0.619,2.771C-0.619,2.606 -0.636,2.462 -0.672,2.341C-0.706,2.221 -0.77,2.116 -0.864,2.028C-0.957,1.94 -1.084,1.861 -1.241,1.791C-1.399,1.722 -1.599,1.652 -1.84,1.582C-2.108,1.507 -2.343,1.426 -2.543,1.337C-2.744,1.249 -2.91,1.14 -3.041,1.012C-3.172,0.883 -3.27,0.732 -3.334,0.558C-3.398,0.384 -3.431,0.176 -3.431,-0.065C-3.431,-0.579 -3.286,-0.966 -2.996,-1.225C-2.708,-1.485 -2.258,-1.615 -1.648,-1.615C-1.395,-1.615 -1.146,-1.592 -0.896,-1.547C-0.647,-1.501 -0.413,-1.436 -0.193,-1.35L-0.298,-0.836C-0.518,-0.91 -0.731,-0.969 -0.94,-1.013C-1.149,-1.055 -1.377,-1.077 -1.624,-1.077C-2.052,-1.077 -2.355,-1.001 -2.535,-0.852C-2.715,-0.702 -2.804,-0.453 -2.804,-0.105C-2.804,0.072 -2.781,0.22 -2.735,0.337C-2.69,0.455 -2.622,0.554 -2.531,0.634C-2.44,0.715 -2.326,0.785 -2.186,0.843C-2.046,0.903 -1.883,0.958 -1.695,1.012C-1.358,1.12 -1.08,1.222 -0.86,1.321C-0.64,1.421 -0.468,1.533 -0.342,1.659C-0.217,1.785 -0.127,1.932 -0.077,2.1C-0.026,2.269 0,2.474 0,2.715" style="fill:rgb(28,33,64);fill-rule:nonzero;"/>
            </g>
        </g>
        <g transform="matrix(8.33333,0,0,8.33333,0,0)">
            <g transform="matrix(1,0,0,1,444.316,1654.09)">
                <path d="M0,5.752L0,0L0.611,0L0.611,5.238L3.294,5.238L3.294,5.752L0,5.752Z" style="fill:rgb(28,33,64);fill-rule:nonzero;"/>
            </g>
        </g>
        <g transform="matrix(8.33333,0,0,8.33333,0,0)">
            <g transform="matrix(1,0,0,1,450.51,1653.99)">
                <path d="M0,5.945C-0.375,5.945 -0.701,5.895 -0.979,5.796C-1.259,5.697 -1.489,5.533 -1.671,5.302C-1.853,5.072 -1.99,4.768 -2.081,4.39C-2.171,4.013 -2.217,3.545 -2.217,2.989C-2.217,2.431 -2.171,1.961 -2.081,1.579C-1.99,1.195 -1.853,0.888 -1.671,0.655C-1.489,0.422 -1.259,0.254 -0.979,0.153C-0.701,0.051 -0.375,0 0,0C0.37,0 0.692,0.051 0.968,0.153C1.244,0.254 1.473,0.42 1.655,0.651C1.837,0.881 1.974,1.187 2.065,1.567C2.155,1.947 2.201,2.413 2.201,2.965C2.201,3.527 2.157,3.998 2.069,4.378C1.981,4.758 1.847,5.065 1.668,5.298C1.487,5.531 1.259,5.697 0.98,5.796C0.702,5.895 0.375,5.945 0,5.945M-0.008,5.407C0.292,5.407 0.543,5.362 0.744,5.274C0.945,5.186 1.105,5.044 1.225,4.848C1.346,4.653 1.432,4.4 1.482,4.089C1.533,3.778 1.559,3.401 1.559,2.956C1.559,2.507 1.533,2.127 1.482,1.82C1.432,1.511 1.346,1.262 1.225,1.073C1.105,0.882 0.945,0.746 0.744,0.663C0.543,0.58 0.292,0.538 -0.008,0.538C-0.308,0.538 -0.558,0.58 -0.759,0.663C-0.96,0.746 -1.121,0.882 -1.241,1.073C-1.362,1.262 -1.447,1.511 -1.497,1.82C-1.549,2.127 -1.574,2.507 -1.574,2.956C-1.574,3.401 -1.549,3.778 -1.497,4.089C-1.447,4.4 -1.362,4.653 -1.241,4.848C-1.121,5.044 -0.96,5.186 -0.759,5.274C-0.558,5.362 -0.308,5.407 -0.008,5.407" style="fill:rgb(28,33,64);fill-rule:nonzero;"/>
            </g>
        </g>
        <g transform="matrix(8.33333,0,0,8.33333,0,0)">
            <g transform="matrix(1,0,0,1,453.273,1659.84)">
                <path d="M0,-5.752L0.627,-5.752L2.169,-0.595L2.2,-0.595L3.728,-5.752L4.322,-5.752L2.594,0L1.734,0L0,-5.752Z" style="fill:rgb(28,33,64);fill-rule:nonzero;"/>
            </g>
        </g>
        <g transform="matrix(8.33333,0,0,8.33333,0,0)">
            <g transform="matrix(1,0,0,1,458.471,1654.09)">
                <path d="M0,5.752L0,0L3.446,0L3.446,0.514L0.611,0.514L0.611,2.595L3.069,2.595L3.069,3.109L0.611,3.109L0.611,5.238L3.446,5.238L3.446,5.752L0,5.752Z" style="fill:rgb(28,33,64);fill-rule:nonzero;"/>
            </g>
        </g>
        <g transform="matrix(8.33333,0,0,8.33333,0,0)">
            <g transform="matrix(1,0,0,1,463.733,1659.19)">
                <path d="M0,-4.45L-0.033,-4.45L-0.033,0.651L-0.594,0.651L-0.594,-5.101L0.304,-5.101L2.884,-0.007L2.915,-0.007L2.915,-5.101L3.479,-5.101L3.479,0.651L2.587,0.651L0,-4.45Z" style="fill:rgb(28,33,64);fill-rule:nonzero;"/>
            </g>
        </g>
        <g transform="matrix(8.33333,0,0,8.33333,0,0)">
            <g transform="matrix(1,0,0,1,0,-124.274)">
                <rect x="468.802" y="1778.36" width="0.611" height="5.752" style="fill:rgb(28,33,64);"/>
            </g>
        </g>
        <g transform="matrix(8.33333,0,0,8.33333,0,0)">
            <g transform="matrix(1,0,0,1,473.815,1655.49)">
                <path d="M0,2.94L-2.441,2.94L-2.884,4.346L-3.51,4.346L-1.623,-1.406L-0.803,-1.406L1.093,4.346L0.45,4.346L0,2.94ZM-2.281,2.426L-0.16,2.426L-1.205,-0.86L-1.236,-0.86L-2.281,2.426Z" style="fill:rgb(28,33,64);fill-rule:nonzero;"/>
            </g>
        </g>
        <g transform="matrix(8.33333,0,0,8.33333,0,0)">
            <g transform="matrix(1,0,0,1,391.858,1669.48)">
                <path d="M0,-5.752L1.165,-3.141L1.205,-3.141L2.362,-5.752L3.655,-5.752L3.655,0L2.643,0L2.643,-4.258L2.603,-4.258L1.623,-2.016L0.675,-2.016L-0.313,-4.25L-0.353,-4.25L-0.353,0L-1.334,0L-1.334,-5.752L0,-5.752Z" style="fill:rgb(28,33,64);fill-rule:nonzero;"/>
            </g>
        </g>
        <g transform="matrix(8.33333,0,0,8.33333,0,0)">
            <g transform="matrix(1,0,0,1,0,-104.994)">
                <rect x="396.718" y="1768.72" width="1.117" height="5.752" style="fill:rgb(28,33,64);"/>
            </g>
        </g>
        <g transform="matrix(8.33333,0,0,8.33333,0,0)">
            <g transform="matrix(1,0,0,1,400.092,1668.04)">
                <path d="M0,-2.876L-0.04,-2.876L-0.04,1.438L-1.036,1.438L-1.036,-4.314L0.442,-4.314L2.386,0.129L2.426,0.129L2.426,-4.314L3.422,-4.314L3.422,1.438L1.936,1.438L0,-2.876Z" style="fill:rgb(28,33,64);fill-rule:nonzero;"/>
            </g>
        </g>
        <g transform="matrix(8.33333,0,0,8.33333,0,0)">
            <g transform="matrix(1,0,0,1,0,-104.994)">
                <rect x="404.735" y="1768.72" width="1.117" height="5.752" style="fill:rgb(28,33,64);"/>
            </g>
        </g>
        <g transform="matrix(8.33333,0,0,8.33333,0,0)">
            <g transform="matrix(1,0,0,1,410.624,1665.39)">
                <path d="M0,2.417C0,2.737 -0.039,3.008 -0.116,3.232C-0.194,3.453 -0.32,3.635 -0.494,3.776C-0.668,3.918 -0.89,4.021 -1.161,4.085C-1.432,4.149 -1.759,4.181 -2.145,4.181C-2.477,4.181 -2.778,4.16 -3.049,4.117C-3.319,4.074 -3.572,4.016 -3.808,3.94L-3.607,2.976C-3.388,3.051 -3.141,3.113 -2.868,3.161C-2.595,3.209 -2.333,3.233 -2.081,3.233C-1.947,3.233 -1.824,3.223 -1.711,3.202C-1.599,3.179 -1.502,3.142 -1.422,3.089C-1.342,3.036 -1.279,2.96 -1.233,2.865C-1.188,2.767 -1.165,2.647 -1.165,2.501C-1.165,2.391 -1.181,2.293 -1.213,2.213C-1.245,2.133 -1.299,2.063 -1.374,1.999C-1.449,1.938 -1.548,1.882 -1.671,1.831C-1.794,1.781 -1.95,1.729 -2.137,1.675C-2.4,1.599 -2.633,1.518 -2.836,1.43C-3.04,1.341 -3.209,1.23 -3.346,1.095C-3.483,0.962 -3.587,0.801 -3.659,0.61C-3.732,0.421 -3.768,0.186 -3.768,-0.093C-3.768,-0.703 -3.601,-1.134 -3.27,-1.386C-2.938,-1.637 -2.445,-1.764 -1.791,-1.764C-1.514,-1.764 -1.253,-1.739 -1.012,-1.691C-0.771,-1.641 -0.522,-1.566 -0.265,-1.464L-0.402,-0.534C-0.6,-0.615 -0.817,-0.677 -1.052,-0.723C-1.289,-0.768 -1.526,-0.791 -1.767,-0.791C-1.891,-0.791 -2.004,-0.784 -2.105,-0.771C-2.207,-0.758 -2.295,-0.729 -2.37,-0.683C-2.445,-0.637 -2.504,-0.575 -2.547,-0.495C-2.59,-0.414 -2.611,-0.307 -2.611,-0.174C-2.611,-0.04 -2.59,0.072 -2.547,0.163C-2.504,0.254 -2.44,0.332 -2.354,0.396C-2.269,0.459 -2.163,0.516 -2.036,0.564C-1.91,0.612 -1.763,0.66 -1.591,0.708C-1.297,0.794 -1.048,0.883 -0.844,0.973C-0.64,1.064 -0.477,1.174 -0.353,1.302C-0.231,1.43 -0.141,1.582 -0.084,1.76C-0.028,1.935 0,2.155 0,2.417" style="fill:rgb(28,33,64);fill-rule:nonzero;"/>
            </g>
        </g>
        <g transform="matrix(8.33333,0,0,8.33333,0,0)">
            <g transform="matrix(1,0,0,1,413.644,1668.51)">
                <path d="M0,-3.808L0,0.972L-1.117,0.972L-1.117,-3.808L-2.619,-3.808L-2.619,-4.78L1.502,-4.78L1.502,-3.808L0,-3.808Z" style="fill:rgb(28,33,64);fill-rule:nonzero;"/>
            </g>
        </g>
        <g transform="matrix(8.33333,0,0,8.33333,0,0)">
            <g transform="matrix(1,0,0,1,419.943,1667.77)">
                <path d="M0,-2.33C0,-1.928 -0.072,-1.591 -0.217,-1.317C-0.362,-1.044 -0.598,-0.843 -0.924,-0.714L0.345,1.711L-0.94,1.711L-2.057,-0.547L-2.908,-0.547L-2.908,1.711L-4.025,1.711L-4.025,-4.041L-2.041,-4.041C-1.649,-4.041 -1.323,-4.005 -1.06,-3.933C-0.799,-3.86 -0.589,-3.752 -0.434,-3.607C-0.279,-3.463 -0.168,-3.284 -0.1,-3.069C-0.034,-2.855 0,-2.608 0,-2.33M-1.141,-2.298C-1.141,-2.608 -1.213,-2.817 -1.358,-2.924C-1.502,-3.031 -1.755,-3.085 -2.113,-3.085L-2.908,-3.085L-2.908,-1.462L-2.113,-1.462C-1.92,-1.462 -1.761,-1.478 -1.635,-1.507C-1.509,-1.535 -1.41,-1.583 -1.338,-1.647C-1.265,-1.711 -1.215,-1.797 -1.185,-1.904C-1.156,-2.011 -1.141,-2.142 -1.141,-2.298" style="fill:rgb(28,33,64);fill-rule:nonzero;"/>
            </g>
        </g>
        <g transform="matrix(8.33333,0,0,8.33333,0,0)">
            <g transform="matrix(1,0,0,1,423.325,1665.61)">
                <path d="M0,1.992L0,3.872L-1.117,3.872L-1.117,2.008L-2.852,-1.88L-1.663,-1.88L-0.55,0.867L-0.509,0.867L0.603,-1.88L1.735,-1.88L0,1.992Z" style="fill:rgb(28,33,64);fill-rule:nonzero;"/>
            </g>
        </g>
        <g transform="matrix(8.33333,0,0,8.33333,0,0)">
            <g transform="matrix(1,0,0,1,429.574,1663.63)">
                <path d="M0,5.945C-0.396,5.945 -0.742,5.899 -1.036,5.808C-1.33,5.718 -1.576,5.559 -1.771,5.334C-1.967,5.11 -2.113,4.807 -2.209,4.427C-2.306,4.047 -2.354,3.567 -2.354,2.988C-2.354,2.41 -2.306,1.929 -2.209,1.547C-2.113,1.164 -1.967,0.857 -1.771,0.627C-1.576,0.396 -1.33,0.235 -1.036,0.141C-0.742,0.047 -0.396,0 0,0C0.391,0 0.733,0.047 1.024,0.141C1.316,0.235 1.56,0.395 1.755,0.623C1.951,0.85 2.097,1.155 2.193,1.535C2.29,1.915 2.338,2.392 2.338,2.965C2.338,3.549 2.291,4.031 2.197,4.415C2.103,4.797 1.96,5.103 1.767,5.33C1.575,5.559 1.331,5.718 1.036,5.808C0.742,5.899 0.396,5.945 0,5.945M-0.008,4.973C0.227,4.973 0.422,4.94 0.574,4.873C0.727,4.805 0.848,4.694 0.936,4.539C1.024,4.384 1.086,4.176 1.121,3.917C1.155,3.656 1.173,3.337 1.173,2.957C1.173,2.571 1.155,2.25 1.121,1.997C1.086,1.743 1.024,1.539 0.936,1.386C0.848,1.233 0.727,1.126 0.574,1.065C0.422,1.003 0.227,0.972 -0.008,0.972C-0.243,0.972 -0.438,1.003 -0.59,1.065C-0.743,1.126 -0.864,1.233 -0.952,1.386C-1.04,1.539 -1.102,1.743 -1.137,1.997C-1.171,2.25 -1.189,2.571 -1.189,2.957C-1.189,3.337 -1.171,3.656 -1.137,3.917C-1.102,4.176 -1.04,4.384 -0.952,4.539C-0.864,4.694 -0.743,4.805 -0.59,4.873C-0.438,4.94 -0.243,4.973 -0.008,4.973" style="fill:rgb(28,33,64);fill-rule:nonzero;"/>
            </g>
        </g>
        <g transform="matrix(8.33333,0,0,8.33333,0,0)">
            <g transform="matrix(1,0,0,1,434.025,1668.51)">
                <path d="M0,-3.808L0,-2.346L2.129,-2.346L2.129,-1.389L0,-1.389L0,0.972L-1.117,0.972L-1.117,-4.78L2.49,-4.78L2.49,-3.808L0,-3.808Z" style="fill:rgb(28,33,64);fill-rule:nonzero;"/>
            </g>
        </g>
        <g transform="matrix(8.33333,0,0,8.33333,0,0)">
            <g transform="matrix(1,0,0,1,440.089,1668.51)">
                <path d="M0,-3.808L0,-2.346L2.129,-2.346L2.129,-1.389L0,-1.389L0,0.972L-1.117,0.972L-1.117,-4.78L2.491,-4.78L2.491,-3.808L0,-3.808Z" style="fill:rgb(28,33,64);fill-rule:nonzero;"/>
            </g>
        </g>
        <g transform="matrix(8.33333,0,0,8.33333,0,0)">
            <g transform="matrix(1,0,0,1,445.416,1663.63)">
                <path d="M0,5.945C-0.397,5.945 -0.742,5.899 -1.036,5.808C-1.33,5.718 -1.576,5.559 -1.771,5.334C-1.967,5.11 -2.114,4.807 -2.209,4.427C-2.306,4.047 -2.354,3.567 -2.354,2.988C-2.354,2.41 -2.306,1.929 -2.209,1.547C-2.114,1.164 -1.967,0.857 -1.771,0.627C-1.576,0.396 -1.33,0.235 -1.036,0.141C-0.742,0.047 -0.397,0 0,0C0.39,0 0.733,0.047 1.024,0.141C1.316,0.235 1.559,0.395 1.755,0.623C1.951,0.85 2.096,1.155 2.193,1.535C2.289,1.915 2.338,2.392 2.338,2.965C2.338,3.549 2.29,4.031 2.196,4.415C2.103,4.797 1.959,5.103 1.767,5.33C1.575,5.559 1.33,5.718 1.036,5.808C0.742,5.899 0.396,5.945 0,5.945M-0.008,4.973C0.227,4.973 0.422,4.94 0.574,4.873C0.726,4.805 0.847,4.694 0.936,4.539C1.024,4.384 1.085,4.176 1.12,3.917C1.154,3.656 1.173,3.337 1.173,2.957C1.173,2.571 1.154,2.25 1.12,1.997C1.085,1.743 1.024,1.539 0.936,1.386C0.847,1.233 0.726,1.126 0.574,1.065C0.422,1.003 0.227,0.972 -0.008,0.972C-0.244,0.972 -0.438,1.003 -0.591,1.065C-0.744,1.126 -0.864,1.233 -0.953,1.386C-1.04,1.539 -1.102,1.743 -1.137,1.997C-1.172,2.25 -1.19,2.571 -1.19,2.957C-1.19,3.337 -1.172,3.656 -1.137,3.917C-1.102,4.176 -1.04,4.384 -0.953,4.539C-0.864,4.694 -0.744,4.805 -0.591,4.873C-0.438,4.94 -0.244,4.973 -0.008,4.973" style="fill:rgb(28,33,64);fill-rule:nonzero;"/>
            </g>
        </g>
        <g transform="matrix(8.33333,0,0,8.33333,0,0)">
            <g transform="matrix(1,0,0,1,452.775,1667.77)">
                <path d="M0,-2.33C0,-1.928 -0.072,-1.591 -0.218,-1.317C-0.362,-1.044 -0.598,-0.843 -0.924,-0.714L0.345,1.711L-0.94,1.711L-2.057,-0.547L-2.909,-0.547L-2.909,1.711L-4.026,1.711L-4.026,-4.041L-2.041,-4.041C-1.65,-4.041 -1.324,-4.005 -1.06,-3.933C-0.799,-3.86 -0.59,-3.752 -0.435,-3.607C-0.28,-3.463 -0.168,-3.284 -0.1,-3.069C-0.034,-2.855 0,-2.608 0,-2.33M-1.141,-2.298C-1.141,-2.608 -1.214,-2.817 -1.358,-2.924C-1.503,-3.031 -1.755,-3.085 -2.114,-3.085L-2.909,-3.085L-2.909,-1.462L-2.114,-1.462C-1.921,-1.462 -1.761,-1.478 -1.635,-1.507C-1.509,-1.535 -1.411,-1.583 -1.338,-1.647C-1.266,-1.711 -1.215,-1.797 -1.186,-1.904C-1.157,-2.011 -1.141,-2.142 -1.141,-2.298" style="fill:rgb(28,33,64);fill-rule:nonzero;"/>
            </g>
        </g>
        <g transform="matrix(8.33333,0,0,8.33333,0,0)">
            <g transform="matrix(1,0,0,1,453.883,1663.73)">
                <path d="M0,5.752L0,0L3.679,0L3.679,0.972L1.117,0.972L1.117,2.378L3.351,2.378L3.351,3.334L1.117,3.334L1.117,4.78L3.679,4.78L3.679,5.752L0,5.752Z" style="fill:rgb(28,33,64);fill-rule:nonzero;"/>
            </g>
        </g>
        <g transform="matrix(8.33333,0,0,8.33333,0,0)">
            <g transform="matrix(1,0,0,1,0,-104.994)">
                <rect x="458.559" y="1768.72" width="1.117" height="5.752" style="fill:rgb(28,33,64);"/>
            </g>
        </g>
        <g transform="matrix(8.33333,0,0,8.33333,0,0)">
            <g transform="matrix(1,0,0,1,464.14,1663.76)">
                <path d="M0,5.683C-0.296,5.77 -0.656,5.814 -1.079,5.814C-1.49,5.814 -1.847,5.762 -2.15,5.657C-2.451,5.553 -2.701,5.386 -2.899,5.155C-3.097,4.925 -3.244,4.624 -3.34,4.251C-3.436,3.879 -3.485,3.428 -3.485,2.898C-3.485,2.384 -3.438,1.936 -3.344,1.556C-3.25,1.176 -3.1,0.861 -2.894,0.612C-2.688,0.363 -2.42,0.177 -2.091,0.054C-1.761,-0.069 -1.36,-0.131 -0.889,-0.131C-0.59,-0.131 -0.319,-0.107 -0.079,-0.059C0.163,-0.01 0.395,0.057 0.62,0.142L0.46,1.066C0.273,0.991 0.082,0.935 -0.115,0.897C-0.31,0.86 -0.528,0.841 -0.769,0.841C-1.068,0.841 -1.318,0.872 -1.516,0.934C-1.715,0.996 -1.873,1.101 -1.994,1.252C-2.115,1.402 -2.199,1.606 -2.247,1.864C-2.295,2.121 -2.319,2.443 -2.319,2.829C-2.319,3.248 -2.293,3.588 -2.239,3.847C-2.186,4.108 -2.102,4.312 -1.991,4.459C-1.878,4.606 -1.732,4.708 -1.552,4.762C-1.373,4.815 -1.158,4.842 -0.905,4.842C-0.799,4.842 -0.687,4.836 -0.573,4.827C-0.456,4.815 -0.346,4.794 -0.239,4.762L-0.239,2.713L0.805,2.713L0.805,5.399C0.565,5.501 0.296,5.595 0,5.683" style="fill:rgb(28,33,64);fill-rule:nonzero;"/>
            </g>
        </g>
        <g transform="matrix(8.33333,0,0,8.33333,0,0)">
            <g transform="matrix(1,0,0,1,467.114,1668.04)">
                <path d="M0,-2.876L-0.04,-2.876L-0.04,1.438L-1.036,1.438L-1.036,-4.314L0.442,-4.314L2.386,0.129L2.427,0.129L2.427,-4.314L3.423,-4.314L3.423,1.438L1.936,1.438L0,-2.876Z" style="fill:rgb(28,33,64);fill-rule:nonzero;"/>
            </g>
        </g>
        <g transform="matrix(8.33333,0,0,8.33333,0,0)">
            <g transform="matrix(1,0,0,1,393.448,1674.58)">
                <path d="M0,3.326L-1.96,3.326L-2.282,4.539L-3.454,4.539L-1.711,-1.213L-0.209,-1.213L1.542,4.539L0.337,4.539L0,3.326ZM-1.703,2.386L-0.257,2.386L-0.964,-0.201L-1.004,-0.201L-1.703,2.386Z" style="fill:rgb(28,33,64);fill-rule:nonzero;"/>
            </g>
        </g>
        <g transform="matrix(8.33333,0,0,8.33333,0,0)">
            <g transform="matrix(1,0,0,1,396.702,1677.68)">
                <path d="M0,-2.876L-0.04,-2.876L-0.04,1.438L-1.036,1.438L-1.036,-4.314L0.442,-4.314L2.386,0.129L2.426,0.129L2.426,-4.314L3.422,-4.314L3.422,1.438L1.936,1.438L0,-2.876Z" style="fill:rgb(28,33,64);fill-rule:nonzero;"/>
            </g>
        </g>
        <g transform="matrix(8.33333,0,0,8.33333,0,0)">
            <g transform="matrix(1,0,0,1,405.683,1676.27)">
                <path d="M0,-0.048C0,0.477 -0.043,0.923 -0.129,1.29C-0.215,1.657 -0.355,1.956 -0.55,2.189C-0.746,2.422 -1.002,2.591 -1.318,2.695C-1.634,2.799 -2.019,2.852 -2.474,2.852L-4.338,2.852L-4.338,-2.9L-2.49,-2.9C-1.998,-2.9 -1.591,-2.849 -1.269,-2.747C-0.948,-2.646 -0.694,-2.482 -0.506,-2.257C-0.319,-2.032 -0.187,-1.737 -0.112,-1.374C-0.038,-1.01 0,-0.568 0,-0.048M-1.149,-0.064C-1.149,-0.439 -1.173,-0.749 -1.221,-0.992C-1.269,-1.235 -1.345,-1.426 -1.446,-1.562C-1.548,-1.699 -1.679,-1.794 -1.84,-1.848C-2,-1.901 -2.193,-1.928 -2.418,-1.928L-3.221,-1.928L-3.221,1.88L-2.41,1.88C-2.18,1.88 -1.986,1.856 -1.828,1.808C-1.669,1.759 -1.54,1.664 -1.438,1.522C-1.336,1.38 -1.263,1.184 -1.217,0.932C-1.171,0.681 -1.149,0.349 -1.149,-0.064" style="fill:rgb(28,33,64);fill-rule:nonzero;"/>
            </g>
        </g>
        <g transform="matrix(8.33333,0,0,8.33333,0,0)">
            <g transform="matrix(1,0,0,1,408.358,1673.37)">
                <path d="M0,5.752L0,0L3.679,0L3.679,0.972L1.117,0.972L1.117,2.378L3.35,2.378L3.35,3.334L1.117,3.334L1.117,4.78L3.679,4.78L3.679,5.752L0,5.752Z" style="fill:rgb(28,33,64);fill-rule:nonzero;"/>
            </g>
        </g>
        <g transform="matrix(8.33333,0,0,8.33333,0,0)">
            <g transform="matrix(1,0,0,1,417.332,1679.22)">
                <path d="M0,-5.848L0,-2.152C0,-1.392 -0.193,-0.843 -0.579,-0.506C-0.966,-0.168 -1.51,0 -2.213,0C-2.551,0 -2.854,-0.039 -3.123,-0.116C-3.391,-0.193 -3.616,-0.317 -3.799,-0.486C-3.981,-0.654 -4.12,-0.873 -4.218,-1.14C-4.314,-1.408 -4.362,-1.735 -4.362,-2.12L-4.362,-5.848L-3.246,-5.848L-3.246,-2.241C-3.246,-1.983 -3.223,-1.773 -3.177,-1.61C-3.131,-1.447 -3.065,-1.318 -2.976,-1.225C-2.888,-1.131 -2.778,-1.066 -2.647,-1.028C-2.515,-0.99 -2.362,-0.972 -2.185,-0.972C-2.003,-0.972 -1.845,-0.99 -1.711,-1.028C-1.577,-1.066 -1.466,-1.131 -1.378,-1.225C-1.289,-1.318 -1.224,-1.443 -1.181,-1.598C-1.138,-1.753 -1.117,-1.949 -1.117,-2.184L-1.117,-5.848L0,-5.848Z" style="fill:rgb(28,33,64);fill-rule:nonzero;"/>
            </g>
        </g>
        <g transform="matrix(8.33333,0,0,8.33333,0,0)">
            <g transform="matrix(1,0,0,1,422.505,1677.41)">
                <path d="M0,-2.33C0,-1.928 -0.072,-1.591 -0.217,-1.317C-0.362,-1.044 -0.598,-0.843 -0.924,-0.715L0.345,1.711L-0.94,1.711L-2.057,-0.546L-2.908,-0.546L-2.908,1.711L-4.025,1.711L-4.025,-4.041L-2.041,-4.041C-1.649,-4.041 -1.323,-4.005 -1.06,-3.933C-0.799,-3.86 -0.589,-3.752 -0.434,-3.607C-0.279,-3.463 -0.168,-3.284 -0.1,-3.069C-0.034,-2.855 0,-2.609 0,-2.33M-1.141,-2.298C-1.141,-2.609 -1.213,-2.817 -1.358,-2.924C-1.502,-3.031 -1.755,-3.084 -2.113,-3.084L-2.908,-3.084L-2.908,-1.462L-2.113,-1.462C-1.92,-1.462 -1.761,-1.478 -1.635,-1.507C-1.509,-1.536 -1.41,-1.582 -1.338,-1.646C-1.265,-1.711 -1.215,-1.797 -1.185,-1.904C-1.156,-2.011 -1.141,-2.143 -1.141,-2.298" style="fill:rgb(28,33,64);fill-rule:nonzero;"/>
            </g>
        </g>
        <g transform="matrix(8.33333,0,0,8.33333,0,0)">
            <g transform="matrix(1,0,0,1,425.743,1673.27)">
                <path d="M0,5.945C-0.396,5.945 -0.742,5.899 -1.036,5.808C-1.33,5.718 -1.576,5.559 -1.771,5.334C-1.967,5.11 -2.113,4.807 -2.209,4.427C-2.306,4.047 -2.354,3.567 -2.354,2.989C-2.354,2.41 -2.306,1.93 -2.209,1.546C-2.113,1.163 -1.967,0.857 -1.771,0.627C-1.576,0.397 -1.33,0.235 -1.036,0.14C-0.742,0.047 -0.396,0 0,0C0.391,0 0.733,0.047 1.024,0.14C1.316,0.235 1.56,0.395 1.755,0.623C1.951,0.85 2.097,1.154 2.193,1.535C2.29,1.915 2.338,2.391 2.338,2.965C2.338,3.549 2.291,4.031 2.197,4.415C2.103,4.797 1.96,5.102 1.767,5.33C1.575,5.559 1.331,5.718 1.036,5.808C0.742,5.899 0.396,5.945 0,5.945M-0.008,4.973C0.227,4.973 0.422,4.939 0.574,4.872C0.727,4.806 0.848,4.694 0.936,4.539C1.024,4.384 1.086,4.176 1.121,3.917C1.155,3.656 1.173,3.336 1.173,2.956C1.173,2.571 1.155,2.25 1.121,1.997C1.086,1.743 1.024,1.539 0.936,1.386C0.848,1.233 0.727,1.127 0.574,1.065C0.422,1.004 0.227,0.972 -0.008,0.972C-0.243,0.972 -0.438,1.004 -0.59,1.065C-0.743,1.127 -0.864,1.233 -0.952,1.386C-1.04,1.539 -1.102,1.743 -1.137,1.997C-1.171,2.25 -1.189,2.571 -1.189,2.956C-1.189,3.336 -1.171,3.656 -1.137,3.917C-1.102,4.176 -1.04,4.384 -0.952,4.539C-0.864,4.694 -0.743,4.806 -0.59,4.872C-0.438,4.939 -0.243,4.973 -0.008,4.973" style="fill:rgb(28,33,64);fill-rule:nonzero;"/>
            </g>
        </g>
        <g transform="matrix(8.33333,0,0,8.33333,0,0)">
            <g transform="matrix(1,0,0,1,433.117,1677.38)">
                <path d="M0,-2.266C0,-1.962 -0.036,-1.693 -0.108,-1.463C-0.181,-1.232 -0.297,-1.039 -0.458,-0.884C-0.619,-0.728 -0.829,-0.611 -1.089,-0.531C-1.349,-0.451 -1.665,-0.41 -2.041,-0.41L-2.924,-0.41L-2.924,1.743L-4.041,1.743L-4.041,-4.009L-2.041,-4.009C-1.655,-4.009 -1.331,-3.972 -1.068,-3.897C-0.806,-3.822 -0.596,-3.71 -0.438,-3.564C-0.28,-3.416 -0.168,-3.235 -0.1,-3.017C-0.034,-2.8 0,-2.55 0,-2.266M-1.141,-2.214C-1.141,-2.374 -1.157,-2.507 -1.189,-2.614C-1.221,-2.72 -1.275,-2.805 -1.35,-2.869C-1.425,-2.934 -1.526,-2.977 -1.651,-3.001C-1.777,-3.025 -1.93,-3.037 -2.113,-3.037L-2.924,-3.037L-2.924,-1.382L-2.113,-1.382C-1.92,-1.382 -1.762,-1.397 -1.639,-1.427C-1.516,-1.456 -1.417,-1.504 -1.342,-1.57C-1.267,-1.637 -1.215,-1.722 -1.185,-1.827C-1.156,-1.929 -1.141,-2.06 -1.141,-2.214" style="fill:rgb(28,33,64);fill-rule:nonzero;"/>
            </g>
        </g>
        <g transform="matrix(8.33333,0,0,8.33333,0,0)">
            <g transform="matrix(1,0,0,1,433.848,1673.37)">
                <path d="M0,5.752L0,0L3.679,0L3.679,0.972L1.117,0.972L1.117,2.378L3.35,2.378L3.35,3.334L1.117,3.334L1.117,4.78L3.679,4.78L3.679,5.752L0,5.752Z" style="fill:rgb(28,33,64);fill-rule:nonzero;"/>
            </g>
        </g>
        <g transform="matrix(8.33333,0,0,8.33333,0,0)">
            <g transform="matrix(1,0,0,1,441.432,1674.58)">
                <path d="M0,3.326L-1.96,3.326L-2.281,4.539L-3.454,4.539L-1.711,-1.213L-0.209,-1.213L1.542,4.539L0.337,4.539L0,3.326ZM-1.703,2.386L-0.256,2.386L-0.964,-0.201L-1.004,-0.201L-1.703,2.386Z" style="fill:rgb(28,33,64);fill-rule:nonzero;"/>
            </g>
        </g>
        <g transform="matrix(8.33333,0,0,8.33333,0,0)">
            <g transform="matrix(1,0,0,1,444.685,1677.68)">
                <path d="M0,-2.876L-0.04,-2.876L-0.04,1.438L-1.036,1.438L-1.036,-4.314L0.443,-4.314L2.387,0.129L2.426,0.129L2.426,-4.314L3.422,-4.314L3.422,1.438L1.936,1.438L0,-2.876Z" style="fill:rgb(28,33,64);fill-rule:nonzero;"/>
            </g>
        </g>
        <g transform="matrix(8.33333,0,0,8.33333,0,0)">
            <g transform="matrix(1,0,0,1,453.988,1674.58)">
                <path d="M0,3.326L-1.96,3.326L-2.282,4.539L-3.455,4.539L-1.712,-1.213L-0.209,-1.213L1.542,4.539L0.337,4.539L0,3.326ZM-1.704,2.386L-0.257,2.386L-0.964,-0.201L-1.004,-0.201L-1.704,2.386Z" style="fill:rgb(28,33,64);fill-rule:nonzero;"/>
            </g>
        </g>
        <g transform="matrix(8.33333,0,0,8.33333,0,0)">
            <g transform="matrix(1,0,0,1,457.321,1678.15)">
                <path d="M0,-3.808L0,-2.346L2.128,-2.346L2.128,-1.39L0,-1.39L0,0.972L-1.117,0.972L-1.117,-4.78L2.491,-4.78L2.491,-3.808L0,-3.808Z" style="fill:rgb(28,33,64);fill-rule:nonzero;"/>
            </g>
        </g>
        <g transform="matrix(8.33333,0,0,8.33333,0,0)">
            <g transform="matrix(1,0,0,1,461.636,1678.15)">
                <path d="M0,-3.808L0,-2.346L2.129,-2.346L2.129,-1.39L0,-1.39L0,0.972L-1.117,0.972L-1.117,-4.78L2.49,-4.78L2.49,-3.808L0,-3.808Z" style="fill:rgb(28,33,64);fill-rule:nonzero;"/>
            </g>
        </g>
        <g transform="matrix(8.33333,0,0,8.33333,0,0)">
            <g transform="matrix(1,0,0,1,467.741,1674.58)">
                <path d="M0,3.326L-1.959,3.326L-2.282,4.539L-3.454,4.539L-1.711,-1.213L-0.209,-1.213L1.542,4.539L0.337,4.539L0,3.326ZM-1.703,2.386L-0.257,2.386L-0.963,-0.201L-1.004,-0.201L-1.703,2.386Z" style="fill:rgb(28,33,64);fill-rule:nonzero;"/>
            </g>
        </g>
        <g transform="matrix(8.33333,0,0,8.33333,0,0)">
            <g transform="matrix(1,0,0,1,0,-85.714)">
                <rect x="469.957" y="1759.08" width="1.117" height="5.752" style="fill:rgb(28,33,64);"/>
            </g>
        </g>
        <g transform="matrix(8.33333,0,0,8.33333,0,0)">
            <g transform="matrix(1,0,0,1,476.32,1677.41)">
                <path d="M0,-2.33C0,-1.928 -0.072,-1.591 -0.217,-1.317C-0.361,-1.044 -0.597,-0.843 -0.923,-0.715L0.346,1.711L-0.94,1.711L-2.057,-0.546L-2.907,-0.546L-2.907,1.711L-4.025,1.711L-4.025,-4.041L-2.04,-4.041C-1.649,-4.041 -1.323,-4.005 -1.06,-3.933C-0.798,-3.86 -0.588,-3.752 -0.433,-3.607C-0.278,-3.463 -0.167,-3.284 -0.1,-3.069C-0.033,-2.855 0,-2.609 0,-2.33M-1.141,-2.298C-1.141,-2.609 -1.213,-2.817 -1.358,-2.924C-1.501,-3.031 -1.755,-3.084 -2.112,-3.084L-2.907,-3.084L-2.907,-1.462L-2.112,-1.462C-1.92,-1.462 -1.76,-1.478 -1.635,-1.507C-1.509,-1.536 -1.409,-1.582 -1.337,-1.646C-1.264,-1.711 -1.215,-1.797 -1.185,-1.904C-1.155,-2.011 -1.141,-2.143 -1.141,-2.298" style="fill:rgb(28,33,64);fill-rule:nonzero;"/>
            </g>
        </g>
        <g transform="matrix(8.33333,0,0,8.33333,0,0)">
            <g transform="matrix(1,0,0,1,480.98,1675.03)">
                <path d="M0,2.417C0,2.738 -0.039,3.009 -0.117,3.232C-0.194,3.453 -0.32,3.635 -0.494,3.776C-0.668,3.918 -0.891,4.021 -1.161,4.085C-1.432,4.149 -1.759,4.181 -2.146,4.181C-2.478,4.181 -2.779,4.16 -3.049,4.117C-3.32,4.074 -3.572,4.015 -3.808,3.94L-3.607,2.976C-3.388,3.052 -3.141,3.113 -2.868,3.161C-2.595,3.209 -2.333,3.234 -2.081,3.234C-1.947,3.234 -1.824,3.223 -1.712,3.202C-1.599,3.179 -1.503,3.142 -1.423,3.089C-1.342,3.036 -1.279,2.96 -1.233,2.865C-1.188,2.768 -1.166,2.647 -1.166,2.502C-1.166,2.39 -1.182,2.293 -1.214,2.213C-1.246,2.133 -1.299,2.062 -1.375,2C-1.45,1.938 -1.549,1.883 -1.671,1.831C-1.795,1.781 -1.951,1.729 -2.137,1.675C-2.4,1.599 -2.633,1.518 -2.837,1.43C-3.04,1.341 -3.21,1.23 -3.347,1.096C-3.483,0.962 -3.588,0.801 -3.66,0.61C-3.732,0.421 -3.768,0.186 -3.768,-0.093C-3.768,-0.703 -3.602,-1.134 -3.27,-1.385C-2.938,-1.638 -2.445,-1.764 -1.791,-1.764C-1.514,-1.764 -1.254,-1.739 -1.013,-1.691C-0.772,-1.642 -0.522,-1.566 -0.265,-1.464L-0.402,-0.535C-0.601,-0.614 -0.818,-0.678 -1.053,-0.723C-1.289,-0.769 -1.526,-0.792 -1.768,-0.792C-1.891,-0.792 -2.004,-0.784 -2.106,-0.771C-2.208,-0.758 -2.295,-0.729 -2.371,-0.683C-2.445,-0.638 -2.504,-0.576 -2.547,-0.494C-2.591,-0.414 -2.611,-0.308 -2.611,-0.174C-2.611,-0.041 -2.591,0.072 -2.547,0.163C-2.504,0.254 -2.44,0.331 -2.355,0.395C-2.269,0.459 -2.163,0.516 -2.036,0.564C-1.911,0.613 -1.763,0.66 -1.591,0.708C-1.297,0.793 -1.048,0.883 -0.844,0.973C-0.64,1.063 -0.477,1.173 -0.353,1.302C-0.231,1.43 -0.141,1.583 -0.084,1.76C-0.028,1.935 0,2.155 0,2.417" style="fill:rgb(28,33,64);fill-rule:nonzero;"/>
            </g>
        </g>
    </g>
</svg>
