<?xml version="1.0" encoding="UTF-8" standalone="no"?>
<!DOCTYPE svg PUBLIC "-//W3C//DTD SVG 1.1//EN" "http://www.w3.org/Graphics/SVG/1.1/DTD/svg11.dtd">
<svg width="100%" height="100%" viewBox="0 0 195 151" version="1.1" xmlns="http://www.w3.org/2000/svg" xmlns:xlink="http://www.w3.org/1999/xlink" xml:space="preserve" xmlns:serif="http://www.serif.com/" style="fill-rule:evenodd;clip-rule:evenodd;stroke-linejoin:round;stroke-miterlimit:2;">
    <g transform="matrix(1,0,0,1,-3275.61,-7667.32)">
        <g transform="matrix(8.33333,0,0,8.33333,0,0)">
            <g transform="matrix(1,0,0,1,405.459,936.191)">
                <path d="M0,-14.145C-0.013,-12.962 -0.005,-11.779 -0.006,-10.596C-0.006,-10.308 -0.24,-10.075 -0.528,-10.075L-10.472,-10.075C-11.529,-10.075 -12.386,-9.218 -12.386,-8.161L-12.386,-6.029C-12.386,-4.972 -11.529,-4.115 -10.472,-4.115L-0.527,-4.115C-0.239,-4.115 -0.006,-3.881 -0.006,-3.593L-0.006,-3.592C-0.006,-2.471 0.006,-1.349 -0.009,-0.228C-0.022,0.694 0.337,1.383 1.188,1.768C1.982,2.126 2.776,1.928 3.487,1.218C5.738,-1.029 7.987,-3.277 10.233,-5.528C11.246,-6.543 11.236,-7.641 10.211,-8.667C7.986,-10.895 5.758,-13.122 3.532,-15.349C3.466,-15.414 3.403,-15.481 3.335,-15.543C2.707,-16.113 1.982,-16.271 1.203,-15.946C0.422,-15.62 0.009,-14.998 0,-14.145" style="fill:rgb(41,171,227);fill-rule:nonzero;"/>
            </g>
        </g>
    </g>
</svg>
