<?xml version="1.0" encoding="UTF-8" standalone="no"?>
<!DOCTYPE svg PUBLIC "-//W3C//DTD SVG 1.1//EN" "http://www.w3.org/Graphics/SVG/1.1/DTD/svg11.dtd">
<svg width="100%" height="100%" viewBox="0 0 98 98" version="1.1" xmlns="http://www.w3.org/2000/svg" xmlns:xlink="http://www.w3.org/1999/xlink" xml:space="preserve" xmlns:serif="http://www.serif.com/" style="fill-rule:evenodd;clip-rule:evenodd;stroke-linejoin:round;stroke-miterlimit:2;">
    <g transform="matrix(1,0,0,1,-3000.92,-646.043)">
        <g transform="matrix(4.16667,0,0,4.16667,0,0)">
            <g transform="matrix(1,0,0,1,731.963,156.556)">
                <path d="M0,20.484C5.64,20.49 10.24,15.898 10.251,10.252C10.262,4.602 5.665,0 0.005,-0.004C-5.624,-0.009 -10.227,4.584 -10.236,10.215C-10.245,15.87 -5.653,20.478 0,20.484M0.01,-1.506C6.483,-1.506 11.764,3.764 11.759,10.22C11.753,16.742 6.492,21.99 -0.036,21.984C-6.473,21.979 -11.743,16.699 -11.742,10.258C-11.742,3.757 -6.484,-1.506 0.01,-1.506" style="fill:white;fill-rule:nonzero;"/>
            </g>
        </g>
        <g transform="matrix(4.16667,0,0,4.16667,0,0)">
            <g transform="matrix(1,0,0,1,730.424,168.876)">
                <path d="M0,-4.186C0,-4.652 0.002,-5.088 -0.001,-5.523C-0.004,-5.947 -0.001,-6.369 0.192,-6.763C0.584,-7.566 1.229,-7.993 2.116,-8.023C2.763,-8.046 3.412,-8.024 4.06,-8.031C4.246,-8.033 4.309,-7.957 4.307,-7.778C4.301,-7.257 4.299,-6.736 4.307,-6.214C4.309,-6.018 4.225,-5.955 4.039,-5.959C3.68,-5.967 3.32,-5.966 2.961,-5.959C2.678,-5.953 2.459,-5.773 2.447,-5.498C2.428,-5.071 2.442,-4.642 2.442,-4.186L3.085,-4.186C3.409,-4.186 3.733,-4.183 4.057,-4.187C4.219,-4.189 4.29,-4.124 4.275,-3.957C4.228,-3.431 4.18,-2.905 4.146,-2.378C4.134,-2.184 4.05,-2.127 3.866,-2.131C3.472,-2.141 3.077,-2.134 2.682,-2.134L2.437,-2.134L2.437,3.512C2.437,3.86 2.437,3.86 2.08,3.86L0.346,3.86C0.006,3.86 0,3.855 0,3.522C0,1.725 -0.004,-0.071 0.004,-1.868C0.005,-2.077 -0.041,-2.158 -0.262,-2.139C-0.5,-2.118 -0.741,-2.138 -0.98,-2.133C-1.137,-2.129 -1.215,-2.185 -1.213,-2.353C-1.209,-2.888 -1.209,-3.423 -1.213,-3.959C-1.214,-4.119 -1.149,-4.19 -0.987,-4.187C-0.671,-4.182 -0.355,-4.186 0,-4.186" style="fill:white;fill-rule:nonzero;"/>
            </g>
        </g>
    </g>
</svg>
