<?xml version="1.0" encoding="UTF-8" standalone="no"?>
<!DOCTYPE svg PUBLIC "-//W3C//DTD SVG 1.1//EN" "http://www.w3.org/Graphics/SVG/1.1/DTD/svg11.dtd">
<svg width="100%" height="100%" viewBox="0 0 339 338" version="1.1" xmlns="http://www.w3.org/2000/svg" xmlns:xlink="http://www.w3.org/1999/xlink" xml:space="preserve" xmlns:serif="http://www.serif.com/" style="fill-rule:evenodd;clip-rule:evenodd;stroke-linejoin:round;stroke-miterlimit:2;">
    <g transform="matrix(1,0,0,1,-3297.56,-8680)">
        <g transform="matrix(8.33333,0,0,8.33333,0,0)">
            <g transform="matrix(1,0,0,1,402.457,1066.46)">
                <path d="M0,-8.739C0.173,-8.903 0.286,-9.004 0.394,-9.111C5.356,-14.063 10.32,-19.014 15.279,-23.971C15.826,-24.518 16.444,-24.877 17.235,-24.861C18.3,-24.84 19.089,-24.345 19.527,-23.383C19.964,-22.423 19.818,-21.503 19.148,-20.68C19.007,-20.507 18.839,-20.355 18.68,-20.196C12.757,-14.281 6.831,-8.368 0.912,-2.449C-1.059,-0.479 -1.31,2.466 0.292,4.665C0.486,4.931 0.709,5.177 0.941,5.411C1.898,6.378 2.859,7.339 3.825,8.297C6.96,11.403 11.737,11.418 14.874,8.308C19.712,3.511 24.536,-1.3 29.358,-6.113C30.08,-6.834 30.915,-7.154 31.91,-6.91C33.771,-6.453 34.465,-4.171 33.165,-2.761C32.468,-2.004 31.716,-1.297 30.987,-0.571C26.87,3.529 22.746,7.62 18.64,11.73C16.691,13.682 14.417,15.037 11.682,15.469C7.445,16.138 3.656,15.142 0.515,12.134C-1.058,10.628 -2.612,9.094 -4.064,7.473C-5.836,5.495 -6.701,3.098 -6.727,0.446C-6.766,-3.475 -6.744,-7.396 -6.736,-11.318C-6.733,-13.104 -5.412,-14.573 -3.716,-14.709C-1.923,-14.854 -0.381,-13.688 -0.091,-11.888C0.026,-11.165 -0.023,-10.416 -0.001,-9.678C0.007,-9.393 0,-9.108 0,-8.739" style="fill:rgb(41,171,227);fill-rule:nonzero;"/>
            </g>
        </g>
        <g transform="matrix(8.33333,0,0,8.33333,0,0)">
            <g transform="matrix(1,0,0,1,414.407,1045.31)">
                <path d="M0,12.283C0.009,11.412 0.33,10.805 0.86,10.279C3.286,7.868 5.704,5.45 8.125,3.035C9.583,1.581 11.031,0.116 12.501,-1.326C13.931,-2.729 16.253,-2.123 16.759,-0.219C17.019,0.757 16.745,1.604 16.033,2.314C14.818,3.526 13.603,4.738 12.388,5.95C9.733,8.598 7.079,11.247 4.422,13.892C3.447,14.862 2.111,15.012 1.076,14.267C0.364,13.754 0.008,13.048 0,12.283" style="fill:rgb(41,171,227);fill-rule:nonzero;"/>
            </g>
        </g>
        <g transform="matrix(8.33333,0,0,8.33333,0,0)">
            <g transform="matrix(1,0,0,1,436.292,1062.75)">
                <path d="M0,-11.26C-0.054,-10.488 -0.362,-9.873 -0.893,-9.345C-3.289,-6.961 -5.68,-4.571 -8.073,-2.184C-9.391,-0.869 -10.698,0.457 -12.03,1.757C-13.325,3.021 -15.358,2.686 -16.132,1.105C-16.624,0.099 -16.421,-1.02 -15.572,-1.871C-13.463,-3.981 -11.347,-6.086 -9.234,-8.193C-7.626,-9.797 -6.028,-11.41 -4.407,-13C-3.1,-14.281 -1.037,-13.933 -0.299,-12.313C-0.15,-11.985 -0.097,-11.612 0,-11.26" style="fill:rgb(41,171,227);fill-rule:nonzero;"/>
            </g>
        </g>
        <g transform="matrix(8.33333,0,0,8.33333,0,0)">
            <g transform="matrix(1,0,0,1,411.765,1070.55)">
                <path d="M0,-4.545C0.067,-4.783 0.105,-4.948 0.16,-5.107C0.509,-6.134 1.237,-6.751 2.28,-6.974C3.387,-7.211 4.363,-6.919 5.105,-6.055C6.037,-4.968 6.155,-3.731 5.611,-2.428C5.008,-0.985 3.98,0.149 2.873,1.215C2.37,1.7 1.844,2.163 1.304,2.606C0.565,3.213 -0.428,3.271 -1.149,2.699C-2.664,1.498 -4.07,0.182 -5.1,-1.479C-5.689,-2.429 -6.072,-3.432 -5.827,-4.59C-5.35,-6.848 -2.735,-7.816 -0.984,-6.371C-0.433,-5.916 -0.14,-5.315 0,-4.545" style="fill:rgb(242,143,43);fill-rule:nonzero;"/>
            </g>
        </g>
    </g>
</svg>
