<?xml version="1.0" encoding="UTF-8" standalone="no"?>
<!DOCTYPE svg PUBLIC "-//W3C//DTD SVG 1.1//EN" "http://www.w3.org/Graphics/SVG/1.1/DTD/svg11.dtd">
<svg width="100%" height="100%" viewBox="0 0 335 335" version="1.1" xmlns="http://www.w3.org/2000/svg" xmlns:xlink="http://www.w3.org/1999/xlink" xml:space="preserve" xmlns:serif="http://www.serif.com/" style="fill-rule:evenodd;clip-rule:evenodd;stroke-linejoin:round;stroke-miterlimit:2;">
    <g transform="matrix(1,0,0,1,-4786.48,-8699.53)">
        <g transform="matrix(8.33333,0,0,8.33333,0,0)">
            <g transform="matrix(1,0,0,1,598.865,1080.09)">
                <path d="M0,-32.192C0.105,-32.031 0.148,-31.953 0.202,-31.885C1.95,-29.687 3.398,-27.306 4.528,-24.734C4.627,-24.508 4.752,-24.433 4.997,-24.434C6.565,-24.445 8.133,-24.44 9.701,-24.441C9.797,-24.442 9.892,-24.46 10.038,-24.476C7.683,-28.348 4.384,-30.889 0,-32.192M0.064,-0.042C4.393,-1.25 7.689,-3.793 10.046,-7.669C9.855,-7.679 9.73,-7.69 9.605,-7.69C8.089,-7.692 6.573,-7.684 5.057,-7.698C4.769,-7.701 4.624,-7.619 4.504,-7.346C3.663,-5.427 2.635,-3.611 1.431,-1.898C0.989,-1.27 0.521,-0.66 0.064,-0.042M-8.863,-0.032C-8.898,-0.085 -8.929,-0.141 -8.968,-0.19C-10.748,-2.412 -12.22,-4.822 -13.362,-7.43C-13.461,-7.656 -13.599,-7.695 -13.814,-7.694C-15.381,-7.688 -16.948,-7.692 -18.516,-7.69C-18.612,-7.69 -18.708,-7.675 -18.863,-7.661C-16.506,-3.788 -13.205,-1.248 -8.863,-0.032M-18.882,-24.44L-18.449,-24.44C-16.921,-24.44 -15.393,-24.449 -13.865,-24.432C-13.567,-24.429 -13.436,-24.536 -13.32,-24.799C-12.195,-27.342 -10.758,-29.697 -9.025,-31.872C-8.967,-31.946 -8.92,-32.029 -8.811,-32.194C-13.198,-30.887 -16.502,-28.35 -18.882,-24.44M-4.427,-0.049C-2.837,-1.49 0.707,-6.589 0.88,-7.666L-9.775,-7.666C-8.347,-4.849 -6.572,-2.337 -4.427,-0.049M-9.775,-24.466L0.954,-24.466C-0.483,-27.291 -2.256,-29.812 -4.413,-32.097C-6.572,-29.794 -8.346,-27.282 -9.775,-24.466M11.558,-11.063C12.544,-14.332 12.578,-17.58 11.624,-20.84C11.552,-21.088 11.412,-21.086 11.222,-21.085C9.524,-21.083 7.826,-21.084 6.128,-21.083C6.03,-21.083 5.932,-21.068 5.805,-21.057C6.681,-17.715 6.676,-14.398 5.803,-11.063L11.558,-11.063ZM-14.624,-11.064C-15.503,-14.415 -15.499,-17.733 -14.627,-21.063L-20.383,-21.063C-21.393,-17.72 -21.396,-14.399 -20.378,-11.064L-14.624,-11.064ZM-11.141,-11.058L2.315,-11.058C3.371,-14.397 3.371,-17.727 2.317,-21.069L-11.142,-21.069C-12.195,-17.734 -12.196,-14.411 -11.141,-11.058M15.668,-15.647C15.414,-4.642 6.412,4.185 -4.74,4.004C-15.846,3.824 -24.721,-5.285 -24.483,-16.502C-24.248,-27.586 -15.119,-36.377 -3.947,-36.137C7.039,-35.9 15.883,-26.778 15.668,-15.647" style="fill:rgb(41,171,227);fill-rule:nonzero;"/>
            </g>
        </g>
    </g>
</svg>
