<?xml version="1.0" encoding="UTF-8" standalone="no"?>
<!DOCTYPE svg PUBLIC "-//W3C//DTD SVG 1.1//EN" "http://www.w3.org/Graphics/SVG/1.1/DTD/svg11.dtd">
<svg width="100%" height="100%" viewBox="0 0 367 367" version="1.1" xmlns="http://www.w3.org/2000/svg" xmlns:xlink="http://www.w3.org/1999/xlink" xml:space="preserve" xmlns:serif="http://www.serif.com/" style="fill-rule:evenodd;clip-rule:evenodd;stroke-linejoin:round;stroke-miterlimit:2;">
    <g transform="matrix(1,0,0,1,-1765.15,-8673.87)">
        <g transform="matrix(8.33333,0,0,8.33333,0,0)">
            <g transform="matrix(-0.999997,-0.00231796,-0.00231796,0.999997,233.798,1073.88)">
                <path d="M0.008,-22.014C-6.07,-22.021 -11.008,-17.092 -11.009,-11.013C-11.01,-4.938 -6.073,-0.007 0.008,-0.012C6.066,-0.016 10.99,-4.933 11.001,-10.992C11.013,-17.069 6.088,-22.007 0.008,-22.014" style="fill:rgb(242,143,43);fill-rule:nonzero;"/>
            </g>
        </g>
        <g transform="matrix(8.33333,0,0,8.33333,0,0)">
            <g transform="matrix(0.284358,0.958718,0.958718,-0.284358,238.879,1068.22)">
                <path d="M8.112,-3.563C7.637,2.572 6.301,5.037 1.256,9.109C3.512,10.377 5.815,10.558 8.112,9.424C10.804,8.095 12.211,5.841 12.177,2.835C12.144,-0.067 10.682,-2.156 8.112,-3.563" style="fill:rgb(41,171,227);fill-rule:nonzero;"/>
            </g>
        </g>
        <g transform="matrix(8.33333,0,0,8.33333,0,0)">
            <g transform="matrix(-0.968551,0.248816,0.248816,0.968551,228.635,1078.69)">
                <path d="M5.721,-13.719C5.404,-8.31 2.972,-4.206 -1.616,-1.324C0.799,0.122 3.268,0.329 5.721,-0.991C8.396,-2.43 9.706,-4.775 9.534,-7.812C9.385,-10.448 8.032,-12.394 5.721,-13.719" style="fill:rgb(41,171,227);fill-rule:nonzero;"/>
            </g>
        </g>
        <g transform="matrix(8.33333,0,0,8.33333,0,0)">
            <g transform="matrix(-0.252333,-0.967641,-0.967641,0.252333,218.144,1047.09)">
                <path d="M-4.542,-10.933C-4.841,-5.516 -7.253,-1.399 -11.831,1.497C-9.435,2.929 -6.983,3.127 -4.542,1.827C-1.909,0.426 -0.596,-1.867 -0.706,-4.854C-0.806,-7.568 -2.179,-9.556 -4.542,-10.933" style="fill:rgb(41,171,227);fill-rule:nonzero;"/>
            </g>
        </g>
        <g transform="matrix(8.33333,0,0,8.33333,0,0)">
            <g transform="matrix(-0.258928,0.965897,0.965897,0.258928,249.528,1047.13)">
                <path d="M4.579,-10.921C2.173,-9.552 0.786,-7.536 0.7,-4.786C0.606,-1.805 1.934,0.48 4.579,1.87C6.999,3.143 9.419,2.942 11.79,1.551C7.228,-1.377 4.848,-5.512 4.579,-10.921" style="fill:rgb(41,171,227);fill-rule:nonzero;"/>
            </g>
        </g>
        <g transform="matrix(8.33333,0,0,8.33333,0,0)">
            <g transform="matrix(0.00900741,-0.999959,-0.999959,-0.00900741,215.54,1040.86)">
                <path d="M-3.662,-3.64C-5.694,-3.647 -7.322,-2.034 -7.333,-0.002C-7.344,2.043 -5.708,3.688 -3.662,3.688C-1.652,3.688 -0.012,2.042 -0.007,0.019C-0.002,-2.001 -1.631,-3.632 -3.662,-3.64" style="fill:rgb(41,171,227);fill-rule:nonzero;"/>
            </g>
        </g>
        <g transform="matrix(8.33333,0,0,8.33333,0,0)">
            <g transform="matrix(-0.999997,0.002457,0.002457,0.999997,215.485,1084.87)">
                <path d="M-0.022,-7.333C-2.055,-7.328 -3.672,-5.707 -3.671,-3.674C-3.67,-1.645 -2.042,-0.01 -0.022,-0.007C2.014,-0.005 3.667,-1.662 3.657,-3.696C3.647,-5.716 2.006,-7.338 -0.022,-7.333" style="fill:rgb(41,171,227);fill-rule:nonzero;"/>
            </g>
        </g>
        <g transform="matrix(8.33333,0,0,8.33333,0,0)">
            <g transform="matrix(-0.0073698,0.999973,0.999973,0.0073698,252.22,1040.86)">
                <path d="M3.677,-3.685C1.65,-3.691 0.012,-2.07 0,-0.046C-0.012,1.988 1.639,3.644 3.677,3.642C5.696,3.641 7.323,2.006 7.325,-0.025C7.327,-2.056 5.71,-3.679 3.677,-3.685" style="fill:rgb(41,171,227);fill-rule:nonzero;"/>
            </g>
        </g>
        <g transform="matrix(8.33333,0,0,8.33333,0,0)">
            <g transform="matrix(-0.00750627,0.999972,0.999972,0.00750627,252.228,1077.54)">
                <path d="M3.673,-3.692C1.642,-3.699 0.013,-2.085 0.003,-0.054C-0.007,1.993 1.627,3.637 3.673,3.635C5.685,3.634 7.324,1.988 7.328,-0.033C7.332,-2.051 5.701,-3.684 3.673,-3.692" style="fill:rgb(41,171,227);fill-rule:nonzero;"/>
            </g>
        </g>
    </g>
</svg>
