<?xml version="1.0" encoding="UTF-8" standalone="no"?>
<!DOCTYPE svg PUBLIC "-//W3C//DTD SVG 1.1//EN" "http://www.w3.org/Graphics/SVG/1.1/DTD/svg11.dtd">
<svg width="100%" height="100%" viewBox="0 0 98 98" version="1.1" xmlns="http://www.w3.org/2000/svg" xmlns:xlink="http://www.w3.org/1999/xlink" xml:space="preserve" xmlns:serif="http://www.serif.com/" style="fill-rule:evenodd;clip-rule:evenodd;stroke-linejoin:round;stroke-miterlimit:2;">
    <g transform="matrix(1,0,0,1,-2837.54,-646.06)">
        <g transform="matrix(4.16667,0,0,4.16667,0,0)">
            <g transform="matrix(1,0,0,1,682.504,166.782)">
                <path d="M0,0.029C0.006,5.633 4.54,10.184 10.098,10.257C15.845,10.334 20.49,5.684 20.492,0.003C20.493,-5.626 15.889,-10.22 10.242,-10.227C4.601,-10.234 -0.004,-5.622 0,0.029M10.242,-11.727C16.737,-11.708 22.006,-6.438 21.988,0.021C21.969,6.503 16.698,11.775 10.255,11.755C3.728,11.735 -1.518,6.479 -1.494,-0.019C-1.47,-6.486 3.802,-11.746 10.242,-11.727" style="fill:white;fill-rule:nonzero;"/>
            </g>
        </g>
        <g transform="matrix(4.16667,0,0,4.16667,0,0)">
            <g transform="matrix(1,0,0,1,692.739,162.118)">
                <path d="M0,9.344L0,9.345C0.747,9.345 1.495,9.346 2.242,9.345C3.646,9.341 4.681,8.312 4.684,6.911C4.687,5.43 4.687,3.949 4.683,2.468C4.68,1.038 3.65,0.013 2.22,0.011C0.745,0.009 -0.729,0.009 -2.204,0.011C-3.635,0.013 -4.658,1.038 -4.659,2.469C-4.661,3.944 -4.66,5.418 -4.659,6.892C-4.658,8.328 -3.642,9.341 -2.202,9.344C-1.468,9.345 -0.734,9.344 0,9.344M-6.038,4.689C-6.038,3.773 -6.067,2.856 -6.032,1.942C-5.965,0.202 -4.416,-1.33 -2.675,-1.36C-0.899,-1.389 0.877,-1.397 2.652,-1.359C4.174,-1.326 5.467,-0.298 5.902,1.162C6.001,1.494 6.058,1.852 6.061,2.198C6.077,3.854 6.074,5.51 6.067,7.166C6.06,9.139 4.452,10.737 2.48,10.739C0.831,10.741 -0.818,10.741 -2.467,10.739C-4.358,10.737 -5.946,9.256 -6.034,7.373C-6.075,6.48 -6.041,5.584 -6.041,4.689L-6.038,4.689" style="fill:white;fill-rule:nonzero;"/>
            </g>
        </g>
        <g transform="matrix(4.16667,0,0,4.16667,0,0)">
            <g transform="matrix(1,0,0,1,691.141,166.71)">
                <path d="M0,0.008C0.008,0.94 0.773,1.701 1.694,1.695C2.628,1.688 3.39,0.911 3.378,-0.023C3.366,-0.957 2.597,-1.693 1.645,-1.684C0.745,-1.676 -0.008,-0.901 0,0.008M4.636,0C4.634,1.64 3.315,2.957 1.678,2.952C0.047,2.947 -1.27,1.618 -1.266,-0.019C-1.261,-1.633 0.07,-2.949 1.697,-2.948C3.322,-2.948 4.638,-1.628 4.636,0" style="fill:white;fill-rule:nonzero;"/>
            </g>
        </g>
        <g transform="matrix(4.16667,0,0,4.16667,0,0)">
            <g transform="matrix(0.0326848,-0.999466,-0.999466,-0.0326848,695.833,162.855)">
                <path d="M-0.875,-0.848C-1.358,-0.849 -1.748,-0.461 -1.748,0.018C-1.747,0.487 -1.333,0.905 -0.875,0.895C-0.396,0.887 -0.003,0.49 -0.004,0.018C-0.006,-0.468 -0.389,-0.848 -0.875,-0.848" style="fill:white;fill-rule:nonzero;"/>
            </g>
        </g>
    </g>
</svg>
