<?xml version="1.0" encoding="UTF-8" standalone="no"?>
<!DOCTYPE svg PUBLIC "-//W3C//DTD SVG 1.1//EN" "http://www.w3.org/Graphics/SVG/1.1/DTD/svg11.dtd">
<svg width="100%" height="100%" viewBox="0 0 98 98" version="1.1" xmlns="http://www.w3.org/2000/svg" xmlns:xlink="http://www.w3.org/1999/xlink" xml:space="preserve" xmlns:serif="http://www.serif.com/" style="fill-rule:evenodd;clip-rule:evenodd;stroke-linejoin:round;stroke-miterlimit:2;">
    <g transform="matrix(1,0,0,1,-2674.1,-646.056)">
        <g transform="matrix(4.16667,0,0,4.16667,0,0)">
            <g transform="matrix(1,0,0,1,663.773,166.801)">
                <path d="M0,-0.006C-0.013,-5.67 -4.614,-10.257 -10.27,-10.244C-15.905,-10.231 -20.493,-5.627 -20.482,0.006C-20.472,5.664 -15.867,10.248 -10.205,10.236C-4.589,10.223 0.012,5.605 0,-0.006M-10.237,-11.748C-3.737,-11.743 1.508,-6.472 1.501,0.048C1.494,6.49 -3.795,11.747 -10.259,11.736C-16.743,11.725 -21.995,6.458 -21.988,-0.027C-21.98,-6.494 -16.708,-11.753 -10.237,-11.748" style="fill:white;fill-rule:nonzero;"/>
            </g>
        </g>
        <g transform="matrix(4.16667,0,0,4.16667,0,0)">
            <g transform="matrix(1,0,0,1,658.937,163.563)">
                <path d="M0,7.422L-2.229,7.422L-2.229,7.17C-2.229,6.028 -2.222,4.887 -2.236,3.746C-2.239,3.432 -2.278,3.113 -2.345,2.806C-2.443,2.354 -2.738,2.075 -3.206,2.027C-3.706,1.976 -4.193,2.047 -4.458,2.531C-4.605,2.799 -4.703,3.126 -4.714,3.43C-4.75,4.471 -4.738,5.515 -4.743,6.557C-4.745,6.838 -4.744,7.12 -4.744,7.417L-6.976,7.417L-6.976,0.24L-4.841,0.24L-4.841,1.223C-4.726,1.07 -4.654,0.961 -4.569,0.864C-4.001,0.224 -3.271,0 -2.44,0.045C-1.964,0.071 -1.501,0.163 -1.092,0.423C-0.501,0.797 -0.226,1.375 -0.117,2.036C-0.047,2.459 0.001,2.889 0.006,3.317C0.022,4.627 0.012,5.937 0.012,7.248C0.012,7.302 0.005,7.357 0,7.422" style="fill:white;fill-rule:nonzero;"/>
            </g>
        </g>
        <g transform="matrix(4.16667,0,0,4.16667,0,0)">
            <g transform="matrix(-1,0,0,1,1298.84,-203.933)">
                <rect x="648.308" y="367.739" width="2.22" height="7.179" style="fill:white;"/>
            </g>
        </g>
        <g transform="matrix(4.16667,0,0,4.16667,0,0)">
            <g transform="matrix(-0.999954,-0.00964089,-0.00964089,0.999954,649.4,162.797)">
                <path d="M0.002,-2.597C-0.721,-2.601 -1.302,-2.024 -1.302,-1.299C-1.302,-0.574 -0.73,-0.004 0.002,-0.004C0.715,-0.004 1.291,-0.575 1.297,-1.288C1.304,-2.007 0.724,-2.593 0.002,-2.597" style="fill:white;fill-rule:nonzero;"/>
            </g>
        </g>
    </g>
</svg>
