<?xml version="1.0" encoding="UTF-8" standalone="no"?>
<!DOCTYPE svg PUBLIC "-//W3C//DTD SVG 1.1//EN" "http://www.w3.org/Graphics/SVG/1.1/DTD/svg11.dtd">
<svg width="100%" height="100%" viewBox="0 0 98 98" version="1.1" xmlns="http://www.w3.org/2000/svg" xmlns:xlink="http://www.w3.org/1999/xlink" xml:space="preserve" xmlns:serif="http://www.serif.com/" style="fill-rule:evenodd;clip-rule:evenodd;stroke-linejoin:round;stroke-miterlimit:2;">
    <g transform="matrix(1,0,0,1,-3164.34,-646.043)">
        <g transform="matrix(4.16667,0,0,4.16667,0,0)">
            <g transform="matrix(1,0,0,1,769.691,170.39)">
                <path d="M0,-7.065C-0.545,-7.069 -0.956,-6.664 -0.956,-6.151C-0.958,-4.399 -0.957,-2.647 -0.956,-0.895C-0.956,-0.519 -0.789,-0.233 -0.456,-0.062C-0.121,0.109 0.21,0.073 0.512,-0.148C1.697,-1.014 2.881,-1.882 4.062,-2.753C4.607,-3.155 4.601,-3.873 4.056,-4.275C3.815,-4.452 3.574,-4.629 3.333,-4.806C2.398,-5.491 1.463,-6.177 0.529,-6.864C0.359,-6.988 0.175,-7.062 0,-7.065M-0.213,1.826C-1.571,1.82 -2.626,0.792 -2.632,-0.508C-2.642,-2.527 -2.641,-4.546 -2.631,-6.565C-2.625,-7.72 -1.67,-8.727 -0.518,-8.834C0.094,-8.891 0.647,-8.742 1.14,-8.38C2.492,-7.392 3.845,-6.406 5.19,-5.408C6.454,-4.471 6.473,-2.598 5.221,-1.643C4.282,-0.927 3.32,-0.242 2.367,0.456C1.925,0.781 1.486,1.111 1.037,1.425C0.648,1.698 0.206,1.819 -0.213,1.826" style="fill:white;fill-rule:nonzero;"/>
            </g>
        </g>
        <g transform="matrix(4.16667,0,0,4.16667,0,0)">
            <g transform="matrix(1,0,0,1,771.184,156.556)">
                <path d="M0,20.484C5.64,20.49 10.24,15.898 10.251,10.252C10.262,4.602 5.665,0 0.005,-0.004C-5.624,-0.009 -10.227,4.584 -10.236,10.215C-10.245,15.87 -5.653,20.478 0,20.484M0.01,-1.506C6.483,-1.506 11.764,3.764 11.759,10.22C11.753,16.742 6.492,21.99 -0.036,21.984C-6.473,21.979 -11.743,16.699 -11.742,10.258C-11.742,3.757 -6.484,-1.506 0.01,-1.506" style="fill:white;fill-rule:nonzero;"/>
            </g>
        </g>
    </g>
</svg>
